<?xml version="1.0" encoding="UTF-8" standalone="no"?>
<!-- Created with Inkscape (http://www.inkscape.org/) -->

<svg
   xmlns:dc="http://purl.org/dc/elements/1.1/"
   xmlns:cc="http://creativecommons.org/ns#"
   xmlns:rdf="http://www.w3.org/1999/02/22-rdf-syntax-ns#"
   xmlns:svg="http://www.w3.org/2000/svg"
   xmlns="http://www.w3.org/2000/svg"
   xmlns:sodipodi="http://sodipodi.sourceforge.net/DTD/sodipodi-0.dtd"
   xmlns:inkscape="http://www.inkscape.org/namespaces/inkscape"
   width="30.362026mm"
   height="21.170111mm"
   viewBox="0 0 30.362019 21.170111"
   version="1.1"
   id="svg8"
   inkscape:version="0.92.3 (2405546, 2018-03-11)"
   sodipodi:docname="hopetv-logo.svg">
  <defs
     id="defs2">
    <clipPath
       clipPathUnits="userSpaceOnUse"
       id="clipPath1715">
      <path
         style="opacity:1;fill:none;fill-opacity:1;stroke:#55a79a;stroke-width:1;stroke-linecap:round;stroke-miterlimit:4;stroke-dasharray:none"
         d="m 50.91462,124.74479 v 34.41081 h 56.46115 v -34.41081 z m 27.057778,8.41964 a 4.2202076,4.2202076 0 0 1 4.220417,4.22041 4.2202076,4.2202076 0 0 1 -4.220417,4.2199 4.2202076,4.2202076 0 0 1 -4.220414,-4.2199 4.2202076,4.2202076 0 0 1 4.220414,-4.22041 z"
         id="path1717"
         inkscape:connector-curvature="0" />
    </clipPath>
  </defs>
  <sodipodi:namedview
     id="base"
     pagecolor="#ffffff"
     bordercolor="#666666"
     borderopacity="1.0"
     inkscape:pageopacity="0.0"
     inkscape:pageshadow="2"
     inkscape:zoom="63.356768"
     inkscape:cx="4.3591686"
     inkscape:cy="77.849876"
     inkscape:document-units="mm"
     inkscape:current-layer="layer1"
     showgrid="false"
     inkscape:window-width="1920"
     inkscape:window-height="1028"
     inkscape:window-x="0"
     inkscape:window-y="0"
     inkscape:window-maximized="1"
     inkscape:measure-start="0,0"
     inkscape:measure-end="0,0"
     fit-margin-top="0"
     fit-margin-left="0"
     fit-margin-right="0"
     fit-margin-bottom="0"
     units="mm" />
  <metadata
     id="metadata5">
    <rdf:RDF>
      <cc:Work
         rdf:about="">
        <dc:format>image/svg+xml</dc:format>
        <dc:type
           rdf:resource="http://purl.org/dc/dcmitype/StillImage" />
        <dc:title></dc:title>
      </cc:Work>
    </rdf:RDF>
  </metadata>
  <g
     inkscape:label="Layer 1"
     inkscape:groupmode="layer"
     id="layer1"
     style="display:inline"
     transform="translate(-65.10241,-138.28103)">
    <g
       id="g834"
       style="fill:#55a79a;stroke:#55a79a"
       transform="matrix(0.81855369,0,0,0.81855369,16.33287,32.029431)"
       clip-path="url(#clipPath1715)">
      <path
         inkscape:connector-curvature="0"
         id="path828"
         d="m 59.808656,132.41051 4.579003,20.635 c 0,0 0.111652,0.72934 0.238163,1.07327 0.126429,0.3437 0.270526,0.69736 0.513754,0.97114 0.425425,0.45522 0.992955,0.46516 1.496835,0.43486 1.923008,-0.12137 5.205501,-1.11212 5.534606,-1.4389 0.127013,-0.13855 0.102753,-0.5763 0.102753,-0.5763 0,0 0.01336,-1.43473 -0.0193,-2.15102 -0.04537,-0.99519 -0.07599,-2.0173 -0.245256,-2.97859 -0.223829,-1.23875 -0.476606,-2.48588 -0.930608,-3.65997 -0.488591,-1.26354 -1.146208,-2.46833 -1.908961,-3.58791 -0.94797,-1.39144 -3.281497,-3.83986 -3.281497,-3.83986 0,0 -0.988231,-1.02581 -0.640007,-1.40456 0.812745,-0.88399 3.391883,1.21369 3.391883,1.21369 1.881954,1.46843 3.472108,2.7019 4.97772,3.96789 1.293387,1.08754 2.357343,2.11556 3.657342,3.42066 l 0.552458,0.60027 c 0,0 0.282302,0.33529 0.474123,0.32707 0.194096,-0.008 0.449659,-0.3708 0.449659,-0.3708 l 7.201504,-8.76821 c 1.495126,-1.8901 2.88452,-3.59817 4.608745,-5.50184 0.08657,-0.0956 0.09007,-0.27486 0.02481,-0.38609 -0.177742,-0.30293 -0.500321,-0.4557 -0.950878,-0.45393 l -28.614427,0.11303 c 0,0 -0.423879,0.002 -0.600336,0.10223 -0.257418,0.14638 -0.455246,0.40599 -0.575936,0.67641 -0.182232,0.57655 -0.161709,1.01663 -0.03615,1.58246 z"
         style="fill:#55a79a;stroke:#55a79a;stroke-width:0.26458332px;stroke-linecap:butt;stroke-linejoin:miter;stroke-opacity:1"
         sodipodi:nodetypes="ccaccccacaacacsccaccsaccaccc" />
      <path
         inkscape:connector-curvature="0"
         id="path830"
         d="m 84.944907,150.03883 c 0.352255,-2.2762 0.869203,-3.98883 1.517835,-5.91996 1.358939,-4.04588 2.842433,-7.38386 4.901941,-11.75284 0.366084,-0.79655 0.498487,-0.79033 0.844636,-0.0539 l 3.987996,12.08709 c 0,0 0.565577,1.52014 0.233861,2.16624 -0.165769,0.32288 -0.947808,0.53592 -0.947808,0.53592 l -5.73954,1.69457 c 0,0 -4.841648,1.51895 -4.798921,1.24286 z"
         style="fill:#55a79a;stroke:#55a79a;stroke-width:0.26458332px;stroke-linecap:butt;stroke-linejoin:miter;stroke-opacity:1"
         sodipodi:nodetypes="sscccaccs" />
    </g>
    <path
       style="opacity:1;fill:#55a79a;fill-opacity:1;stroke:#55a79a;stroke-width:2.52940345;stroke-linecap:round;stroke-miterlimit:4;stroke-dasharray:none"
       d="m 307.49643,520.01959 a 12.496458,12.496458 0 0 1 -12.49646,12.49646 12.496458,12.496458 0 0 1 -12.49646,-12.49646 12.496458,12.496458 0 0 1 12.49646,-12.49646 12.496458,12.496458 0 0 1 12.49646,12.49646 z"
       id="path855"
       inkscape:connector-curvature="0" />
  </g>
</svg>
