<?xml version="1.0" encoding="UTF-8"?>
<!-- Generator: Adobe Illustrator 16.0.3, SVG Export Plug-In . SVG Version: 6.00 Build 0)  -->
<!DOCTYPE svg PUBLIC "-//W3C//DTD SVG 1.1//EN" "http://www.w3.org/Graphics/SVG/1.1/DTD/svg11.dtd">
<svg version="1.1" id="Layer_1" xmlns="http://www.w3.org/2000/svg" xmlns:xlink="http://www.w3.org/1999/xlink" x="0px" y="0px" width="300px" height="35px" viewBox="0 0 300 35" enable-background="new 0 0 300 35" xml:space="preserve">
<g>
	<path fill="#448490" d="M16.383,29.083v-1.381h1.959v-0.13c0-1.382-0.637-2.396-5.029-1.634l-7.222,1.286l-4.155,5.764l9.972-1.768   c2.988-0.514,5.611-0.62,6.434,1.755v-3.893H16.383z"/>
	<path fill="#448490" d="M19.705,32.976c0-1.88,1.111-3.172,3.378-5.439l1.598-1.598l7.304,1.286l4.164,5.758l-9.578-1.652   C23.324,30.707,20.572,30.488,19.705,32.976z"/>
</g>
<g>
	<path fill="#448490" d="M20.11,27.699c0.723-1.552,2.264-2.956,3.15-3.841l0.63-0.641c2.682-2.683,3.198-3.791,3.36-5.639   c0.007-0.096,0.146,0.362,0.187,0.688c0.138,1.087,0.058,1.878-0.312,2.968c-0.553,1.628-1.862,2.926-3.562,4.624l-1.848,1.841   H20.11z"/>
	<path fill="#448490" d="M21.667,5.211c0-0.015,0.045-0.023,0.045,0V7.35c0,1.935-2.486,4.166-3.476,5.149l-3.642,3.652   c-1.26,1.26-3.78,3.746-2.722,6.144c0.035,0.08,0.067,0.148-0.067,0.054c-0.269-0.192-0.678-0.862-0.787-2.09   c-0.194-2.187,1.297-4.145,3.136-5.984l3.475-3.479C21.152,7.274,21.496,6.653,21.667,5.211z"/>
	<path fill="#448490" d="M18.236,16.16c0.99-0.983,3.476-3.215,3.476-5.149V8.872c0-0.022-0.045-0.014-0.045,0   c-0.171,1.442-0.515,2.062-4.038,5.586l-3.227,3.232c-1.173,1.173-2.249,2.402-2.199,4.386c0.031,1.216,0.642,2.225,1.562,2.462   c0.379,0.082,0.355,0.032,0.266-0.006c-1.3-0.613-1.207-2.96,0.894-5.061L18.236,16.16z"/>
	<path fill="#448490" d="M14.184,12.925c-2.682,2.682-3.198,3.791-3.36,5.638c-0.007,0.096-0.146-0.362-0.187-0.687   c-0.138-1.088-0.058-1.878,0.312-2.968c0.552-1.628,1.862-2.926,3.562-4.625l3.118-3.124c3.523-3.523,3.867-4.144,4.038-5.585   c0-0.015,0.045-0.023,0.045,0v2.138c0,1.935-2.486,4.166-3.476,5.15L14.184,12.925z"/>
	<path fill="#448490" d="M19.751,31.209c-0.002,0.017-0.046,0.017-0.046,0v-2.126h0.89C20.092,29.805,19.834,30.502,19.751,31.209z"/>
	<path fill="#448490" d="M19.757,27.702c-0.001,0.017-0.045,0.017-0.045,0v-2.163c0-1.626,1.594-3.384,3.173-4.952l1.024-1.024   c0.826-0.827,3.351-3.317,2.293-5.716c-0.035-0.08-0.067-0.148,0.067-0.053c0.269,0.191,0.678,0.863,0.786,2.09   c0.194,2.187-1.297,4.144-3.136,5.984l-0.947,0.951C20.689,25.103,19.929,26.127,19.757,27.702z"/>
	<path fill="#448490" d="M19.755,23.95c-0.001,0.016-0.045,0.016-0.045,0v-2.196c0-1.551,1.537-3.224,2.283-3.97l1.157-1.154   c2.101-2.101,2.194-4.447,0.895-5.061c-0.09-0.039-0.114-0.087,0.265-0.006c0.92,0.238,1.532,1.245,1.562,2.461   c0.05,1.985-1.008,3.206-2.18,4.378l-0.938,0.937C20.792,21.303,19.934,22.448,19.755,23.95z"/>
</g>
<g>
	<g>
		<path fill="#448490" d="M245.926,23.761c-0.015-1.079-1.287-0.783-1.287-1.108c0-0.134,0.119-0.163,0.237-0.163    c0.547,0,1.08,0.059,1.628,0.059c0.457,0,0.916-0.059,1.373-0.059c0.252,0,0.283,0.089,0.283,0.147    c0,0.296-1.065,0.016-1.065,1.124v3.195c0,0.207,0,0.267,0.222,0.267h5.412c0.148,0,0.119-0.37,0.119-0.43v-3.032    c0-1.02-1.109-0.77-1.109-1.108c0-0.089,0.029-0.163,0.252-0.163c0.488,0,1.258,0.059,1.538,0.059c0.547,0,0.77-0.059,1.064-0.059    c0.385,0,0.414,0.147,0.414,0.236c0,0.266-0.991,0.016-0.991,1.035v7.84c0,1.078,1.347,0.812,1.347,1.184    c0,0.043-0.061,0.177-0.163,0.177c-0.399,0-0.857-0.06-1.391-0.06c-0.946,0-1.36,0.06-1.641,0.06    c-0.134,0-0.355,0.044-0.355-0.192c0-0.355,1.035-0.148,1.035-1.079v-3.551c0-0.236,0.059-0.369-0.119-0.369h-5.457    c-0.177,0-0.177,0.089-0.177,0.251v3.683c0,1.007,1.405,0.682,1.405,1.14c0,0.074-0.104,0.118-0.238,0.118    c-0.191,0-1.271-0.06-2.055-0.06c-1.051,0-1.212,0.06-1.272,0.06c-0.117,0-0.163-0.074-0.163-0.222    c0-0.429,1.154,0.059,1.154-1.405V23.761z"/>
		<path fill="#448490" d="M258.259,29.013c0,2.364,1.538,3.445,3.535,3.445c2.78,0,3.418-1.835,3.418-3.58v-4.792    c0-1.508-1.377-0.888-1.377-1.449c0-0.073,0.104-0.147,0.148-0.147c0.576,0,1.154,0.059,1.73,0.059    c0.279,0,0.547-0.059,0.812-0.059c0.074,0,0.193,0.074,0.193,0.163c0,0.413-0.873,0.089-0.873,1.449v4.585    c0,0.725,0.177,4.378-4.126,4.378c-3.891,0-4.631-2.174-4.631-4.452v-4.983c0-0.874-1.197-0.518-1.197-0.992    c0-0.104,0.251-0.147,0.325-0.147c0.385,0,0.754,0.059,1.154,0.059c0.473,0,0.946-0.059,1.404-0.059    c0.074,0,0.474-0.029,0.474,0.147c0,0.413-0.991,0-0.991,1.065V29.013z"/>
	</g>
	<path fill="#448490" d="M275.415,31.35c1.065,1.626,1.79,1.079,1.79,1.435c0,0.177-0.828,0.177-0.961,0.177   c-1.081,0-1.657-0.754-2.22-1.597l-1.642-2.589c-0.531-0.828-0.311-0.784-1.967-0.784c-0.474,0-0.385,0.267-0.385,0.414v3.121   c0,1.271,1.539,0.812,1.539,1.316c0,0.147-0.134,0.118-0.252,0.118c-0.133,0-0.475-0.06-1.701-0.06c-0.562,0-1.124,0.06-1.686,0.06   c-0.089,0-0.148-0.074-0.148-0.163c0-0.369,1.08-0.162,1.08-1.287v-7.527c0-1.42-1.272-0.813-1.272-1.317   c0-0.088,0.119-0.177,0.296-0.177c0.267,0,0.192,0.059,0.946,0.059c0.857,0,1.7-0.059,2.471-0.059c0.236,0,3.506-0.295,3.506,2.559   c0,1.154-0.829,2.145-1.864,2.559L275.415,31.35z M270.031,27.282c0,0.281,0.917,0.207,1.613,0.207   c0.635,0,2.055-0.267,2.055-2.102c0-1.805-1.375-2.41-2.824-2.41c-0.532,0-0.844-0.029-0.844,0.547V27.282z"/>
	<path fill="#448490" d="M282.405,22.356c2.78,0,3.549,1.14,3.978,1.14c0.119,0,0.207-0.148,0.355-0.148   c0.162,0,0.162,0.235,0.208,1.197c0.028,0.783,0.162,1.272-0.09,1.272c-0.177,0-0.28-0.384-0.341-0.489   c-0.916-1.582-1.967-2.543-3.875-2.543c-2.883,0-4.272,1.923-4.272,4.673c0,2.574,1.478,5.147,4.318,5.147   c2.321,0,3.771-1.479,3.993-2.158c0.029-0.105,0.118-0.193,0.207-0.193c0.073,0,0.146,0.088,0.134,0.162l-0.341,1.48   c-0.016,0.059-1.065,1.168-4.393,1.168c-3.032,0-5.206-2.085-5.206-5.147C277.081,24.855,279.284,22.356,282.405,22.356z"/>
	<path fill="#448490" d="M289.301,23.761c-0.015-1.079-1.286-0.783-1.286-1.108c0-0.134,0.117-0.163,0.236-0.163   c0.547,0,1.079,0.059,1.626,0.059c0.46,0,0.918-0.059,1.376-0.059c0.251,0,0.281,0.089,0.281,0.147   c0,0.296-1.064,0.016-1.064,1.124v3.195c0,0.207,0,0.267,0.222,0.267h5.413c0.148,0,0.118-0.37,0.118-0.43v-3.032   c0-1.02-1.109-0.77-1.109-1.108c0-0.089,0.03-0.163,0.252-0.163c0.488,0,1.257,0.059,1.537,0.059c0.548,0,0.77-0.059,1.066-0.059   c0.385,0,0.413,0.147,0.413,0.236c0,0.266-0.99,0.016-0.99,1.035v7.84c0,1.078,1.346,0.812,1.346,1.184   c0,0.043-0.059,0.177-0.163,0.177c-0.398,0-0.857-0.06-1.391-0.06c-0.945,0-1.36,0.06-1.641,0.06c-0.133,0-0.355,0.044-0.355-0.192   c0-0.355,1.035-0.148,1.035-1.079v-3.551c0-0.236,0.06-0.369-0.118-0.369h-5.458c-0.177,0-0.177,0.089-0.177,0.251v3.683   c0,1.007,1.404,0.682,1.404,1.14c0,0.074-0.103,0.118-0.235,0.118c-0.193,0-1.272-0.06-2.057-0.06c-1.05,0-1.213,0.06-1.271,0.06   c-0.119,0-0.163-0.074-0.163-0.222c0-0.429,1.153,0.059,1.153-1.405V23.761z"/>
	<path fill="#448490" d="M116.735,22.493c0.473,0,0.898,0.047,1.324,0.047c0.993,0,1.939-0.047,3.216-0.047   c2.648,0,5.25,1.986,5.25,4.729c0,3.404-1.608,5.77-5.77,5.77c-0.757,0-1.513-0.047-2.271-0.047c-0.095,0-1.56,0.047-1.655,0.047   c-0.094,0-0.142-0.047-0.142-0.142c0-0.331,1.041,0.047,1.041-1.371v-7.426c0-1.514-1.183-1.04-1.183-1.418   C116.546,22.54,116.64,22.493,116.735,22.493z M121.275,32.614c2.128,0,4.114-1.135,4.114-4.588c0-3.311-2.175-5.154-5.013-5.202   c-1.419,0-1.466,0.236-1.466,0.946v7.094c0,0.236-0.047,0.947,0.095,1.041C119.479,32.425,120.613,32.614,121.275,32.614z"/>
	<path fill="#448490" d="M129.316,28.877c-0.285,0-0.568,0-0.71,0.332l-0.946,2.082c-0.048,0.093-0.142,0.33-0.142,0.521   c0,1.039,1.088,0.566,1.088,0.944c0,0.285-0.237,0.236-0.425,0.236c-0.426,0-0.804-0.047-1.23-0.047s-0.804,0.047-1.182,0.047   c-0.095,0-0.142-0.047-0.142-0.142c0-0.331,0.709-0.095,1.087-0.945l3.547-7.567c0.851-1.845,0.898-2.081,1.135-2.081   c0.142,0,0.236,0.425,0.283,0.521l3.122,7.662c0.236,0.566,0.378,1.182,0.709,1.702c0.472,0.662,1.324,0.33,1.324,0.709   c0,0.142-0.095,0.142-0.19,0.142c-0.615,0-1.229-0.047-1.844-0.047c-0.426,0-0.805,0.047-1.23,0.047c-0.047,0-0.331,0-0.331-0.142   c0-0.379,0.898-0.188,0.898-0.757c0-0.331-0.284-1.041-0.426-1.419l-0.473-1.229c-0.142-0.331-0.237-0.568-0.663-0.568H129.316z    M132.342,28.216c0.331,0,0.331-0.095,0.236-0.283l-1.466-3.595c-0.047-0.189-0.142-0.189-0.237,0l-1.654,3.641   c-0.095,0.19,0,0.237,0.189,0.237H132.342z"/>
	<path fill="#448490" d="M135.321,22.493c0.379,0,0.662,0.047,1.655,0.047c0.521,0,0.899-0.047,1.041-0.047   c0.142,0,0.283,0,0.283,0.143c0,0.236-0.662,0.236-0.662,0.662c0,0.282,0.189,0.521,0.236,0.614l1.797,2.885   c0.142,0.188,0.236,0.283,0.331,0.283c0.048,0,0.143-0.095,0.284-0.33l1.514-2.46c0.094-0.188,0.331-0.425,0.331-0.803   c0-0.758-1.135-0.427-1.135-0.806c0-0.188,0.142-0.188,0.331-0.188c0.332,0,0.71,0.047,1.088,0.047   c0.425,0,0.851-0.047,1.277-0.047c0.094,0,0.142,0.096,0.142,0.143c0,0.188-0.236,0.236-0.331,0.283   c-0.426,0.236-0.615,0.661-0.852,1.04l-2.081,3.264c-0.236,0.331-0.331,0.426-0.331,0.663v3.641c0,1.277,1.182,0.852,1.182,1.324   c0,0.142-0.095,0.142-0.331,0.142c-0.189,0-1.088-0.047-1.608-0.047c-0.662,0-1.229,0.047-1.372,0.047   c-0.094,0-0.189,0-0.189-0.188c0-0.379,1.135,0,1.135-1.088v-3.595c0-0.284-0.236-0.567-0.331-0.756l-2.507-3.973   c-0.378-0.615-1.088-0.426-1.088-0.711C135.132,22.589,135.18,22.493,135.321,22.493z"/>
	<path fill="#448490" d="M206.573,22.524c0.55,0,1.065,0.065,1.614,0.065c0.484,0,0.938-0.065,1.389-0.065   c0.226,0,0.29,0.032,0.29,0.13c0,0.354-1.065,0.031-1.065,1.129v7.942c0,1.033,1.292,0.678,1.292,1.13   c0,0.098-0.032,0.129-0.291,0.129c-0.323,0-0.968-0.031-1.614-0.031c-0.904,0-1.194,0.031-1.421,0.031   c-0.258,0-0.29-0.064-0.29-0.226c0-0.42,1.129,0.064,1.129-1.388v-7.588c0-1.064-1.193-0.774-1.193-1.098   C206.412,22.557,206.443,22.524,206.573,22.524z"/>
	<path fill="#448490" d="M77.528,27.317c1.561,0,1.135-1.182,1.514-1.182c0.142,0,0.142,0.141,0.142,0.283c0,0.52,0,0.993,0,1.467   c0,0.379,0,0.804,0,1.182c0,0.142-0.047,0.188-0.142,0.188c-0.473,0,0.047-1.277-1.183-1.277h-2.223   c-0.331,0-0.284,0.237-0.284,0.474v2.696c0,0.898-0.094,1.276,1.135,1.276c3.453,0,3.973-1.561,4.162-1.561   c0.094,0,0.094,0.142,0.094,0.188c0,0.521-0.378,1.041-0.756,1.419c-0.473,0.569-0.804,0.521-1.419,0.521   c-1.135,0-2.271-0.095-3.405-0.047c-0.615,0-1.229,0.047-1.797,0.047c-0.142,0-0.237-0.047-0.237-0.142   c0.048-0.188,0.189-0.142,0.663-0.379c0.378-0.188,0.425-0.614,0.425-1.323v-6.763c0-0.662,0-1.372-0.803-1.514   c-0.142,0-0.473-0.048-0.473-0.236c0-0.096,0.095-0.143,0.52-0.143c2.837,0,3.594,0.047,4.209,0.047   c0.284,0,1.656-0.047,2.128-0.047c0.142,0,0.142,0.143,0.142,0.284c0,1.654-0.189,1.797-0.284,1.797   c-0.378,0-0.095-0.709-0.378-1.041c-0.379-0.52-1.939-0.425-2.507-0.425c-1.419,0-1.419-0.048-1.419,0.945v2.743   c0,0.521,0,0.521,0.568,0.521H77.528z"/>
	<path fill="#448490" d="M80.555,22.493c0.237,0,0.473,0.047,0.709,0.047c0.189,0,0.426-0.047,0.663-0.047   c0.189,0,0.283,0.236,0.378,0.331l7.094,7.898c0.094,0.095,0.142,0.142,0.189,0.142s0.047-0.047,0.047-0.142v-6.243   c0-1.939-1.655-1.371-1.655-1.844c0-0.096,0.094-0.143,0.189-0.143c0.426,0,0.852,0.047,1.324,0.047   c0.521,0,1.135-0.047,1.514-0.047c0.095,0,0.142,0.047,0.142,0.096c0,0.425-0.898,0.141-0.898,1.229v8.606   c0,0.426,0,0.616-0.095,0.616c-0.142,0-0.284-0.049-0.567-0.379l-6.385-7.236c-0.047,0-0.237-0.283-0.331-0.283   c-0.047,0-0.095,0.046-0.095,0.378v6.053c0,1.372,1.277,0.852,1.277,1.23c0,0.094,0,0.188-0.142,0.188   c-0.378,0-0.757-0.047-1.514-0.047c-0.52,0-1.277,0.047-1.371,0.047c-0.189,0-0.189-0.095-0.189-0.142   c0-0.52,1.277,0.142,1.277-1.986v-5.486c0-3.074-1.798-2.223-1.798-2.742C80.318,22.54,80.461,22.493,80.555,22.493z"/>
	<path fill="#448490" d="M92.757,23.298c-0.946,0-0.946,0.235-1.23,1.04c-0.047,0.142-0.047,0.331-0.236,0.331   c-0.095,0-0.142-0.095-0.142-0.189l0.142-1.419c0.047-0.188,0-0.567,0.284-0.567c1.135,0,2.317,0.047,4.209,0.047   c2.696,0,4.067-0.047,4.351-0.047c0.331,0,0.378,0.047,0.426,0.426l0.095,1.183c0,0.143,0,0.33-0.189,0.33   c-0.52,0,0.284-1.134-1.229-1.134h-2.128c-0.663,0-0.615-0.048-0.615,0.709v7.614c0,1.229,1.23,0.757,1.23,1.183   c0,0.047,0,0.188-0.143,0.188c-0.378,0-0.804-0.047-1.229-0.047c-1.655,0-1.938,0.047-2.033,0.047   c-0.142,0-0.189-0.047-0.189-0.188c0-0.379,1.182-0.189,1.182-1.088v-7.757c0-0.094,0.095-0.661-0.142-0.661H92.757z"/>
	<path fill="#448490" d="M100.608,22.493c0.568,0,1.088,0.047,1.655,0.047c0.473,0,0.946-0.047,1.372-0.047   c0.283,0,0.283,0.047,0.283,0.143c0,0.283-1.041,0-1.041,1.135v3.215c0,0.19,0,0.237,0.189,0.237h5.438   c0.189,0,0.142-0.378,0.142-0.426v-3.026c0-1.041-1.135-0.804-1.135-1.135c0-0.096,0.047-0.143,0.284-0.143   c0.473,0,1.229,0.047,1.513,0.047c0.567,0,0.804-0.047,1.087-0.047c0.378,0,0.426,0.143,0.426,0.236c0,0.237-0.993,0-0.993,1.041   v7.851c0,1.088,1.324,0.804,1.324,1.183c0,0.047-0.047,0.188-0.142,0.188c-0.426,0-0.852-0.047-1.419-0.047   c-0.946,0-1.372,0.047-1.655,0.047c-0.095,0-0.331,0.049-0.331-0.188c0-0.379,1.04-0.142,1.04-1.088v-3.547   c0-0.236,0.048-0.378-0.142-0.378h-5.486c-0.142,0-0.142,0.095-0.142,0.235v3.689c0,1.04,1.372,0.709,1.372,1.182   c0,0.048-0.094,0.095-0.236,0.095c-0.189,0-1.277-0.047-2.034-0.047c-1.088,0-1.229,0.047-1.277,0.047   c-0.142,0-0.189-0.047-0.189-0.236c0-0.425,1.183,0.095,1.183-1.372v-7.613c0-1.089-1.324-0.804-1.324-1.135   C100.372,22.493,100.513,22.493,100.608,22.493z"/>
	<path fill="#448490" d="M116.073,27.695c0,0.709,0.048,0.709-0.52,0.899l-3.027,1.039c-0.284,0.095-0.52,0.237-0.662,0.237   c-0.236,0-0.189-0.283-0.189-0.426c0-0.756-0.047-0.756,0.521-0.946l3.027-1.04c0.236-0.094,0.52-0.236,0.662-0.236   C116.121,27.223,116.073,27.554,116.073,27.695z"/>
	<path fill="#448490" d="M183.133,27.335c1.55,0,1.162-1.194,1.517-1.194c0.098,0,0.162,0.161,0.162,0.29   c0,0.517-0.032,1.002-0.032,1.485c0,0.388,0.032,0.775,0.032,1.163c0,0.129-0.064,0.193-0.162,0.193   c-0.451,0,0.033-1.292-1.193-1.292h-2.196c-0.323,0-0.259,0.259-0.259,0.485v2.711c0,0.872-0.129,1.227,1.099,1.227   c3.423,0,3.938-1.517,4.132-1.517c0.097,0,0.097,0.129,0.097,0.162c0,0.548-0.388,1.064-0.71,1.452   c-0.483,0.517-0.807,0.483-1.451,0.483c-1.131,0-2.262-0.064-3.393-0.031c-0.581,0-1.193,0.031-1.808,0.031   c-0.129,0-0.226-0.031-0.226-0.129c0.032-0.193,0.194-0.161,0.646-0.388c0.388-0.193,0.418-0.58,0.418-1.291v-6.748   c0-0.677,0-1.387-0.774-1.484c-0.129-0.032-0.452-0.064-0.452-0.259c0-0.096,0.098-0.161,0.518-0.161   c2.776,0,3.552,0.065,4.197,0.065c0.291,0,1.646-0.065,2.099-0.065c0.13,0,0.161,0.13,0.161,0.323c0,1.646-0.226,1.743-0.29,1.743   c-0.355,0-0.129-0.71-0.355-1.032c-0.388-0.517-1.938-0.421-2.519-0.421c-1.421,0-1.389-0.064-1.389,0.937v2.744   c0,0.517-0.032,0.517,0.549,0.517H183.133z"/>
	<path fill="#448490" d="M186.393,22.524c0.259,0,0.485,0.065,0.711,0.065c0.227,0,0.452-0.065,0.679-0.065   c0.161,0,0.29,0.226,0.388,0.323l7.07,7.878c0.065,0.097,0.13,0.161,0.162,0.161s0.064-0.064,0.064-0.161v-6.199   c0-1.937-1.647-1.355-1.647-1.872c0-0.098,0.064-0.13,0.162-0.13c0.419,0,0.872,0.065,1.324,0.065c0.517,0,1.162-0.065,1.518-0.065   c0.064,0,0.129,0.032,0.129,0.13c0,0.388-0.872,0.129-0.872,1.194v8.555c0,0.452,0,0.646-0.129,0.646   c-0.097,0-0.259-0.064-0.549-0.419l-6.361-7.168c-0.031,0-0.226-0.258-0.322-0.258c-0.065,0-0.097,0.033-0.097,0.322v6.07   c0,1.323,1.292,0.807,1.292,1.194c0,0.098,0,0.193-0.162,0.193c-0.354,0-0.775-0.031-1.486-0.031c-0.517,0-1.291,0.031-1.388,0.031   c-0.194,0-0.194-0.064-0.194-0.161c0-0.517,1.292,0.13,1.292-1.937v-5.456c0-3.067-1.776-2.229-1.776-2.776   C186.199,22.59,186.328,22.524,186.393,22.524z"/>
	<path fill="#448490" d="M198.533,23.332c-0.936,0-0.968,0.227-1.227,1.032c-0.064,0.162-0.064,0.355-0.258,0.355   c-0.097,0-0.13-0.129-0.13-0.193l0.162-1.42c0-0.194,0-0.582,0.259-0.582c1.161,0,2.291,0.065,4.196,0.065   c2.681,0,4.036-0.065,4.326-0.065c0.355,0,0.421,0.097,0.452,0.42l0.064,1.194c0,0.129,0.033,0.323-0.161,0.323   c-0.549,0,0.259-1.13-1.259-1.13h-2.132c-0.548,0-0.58,0.032-0.58,0.71v7.555c0,1.259,1.194,0.774,1.194,1.227   c0,0.032,0.032,0.161-0.129,0.161c-0.355,0-0.774-0.031-1.194-0.031c-1.647,0-1.938,0.031-2.035,0.031   c-0.129,0-0.16-0.031-0.16-0.193c0-0.354,1.161-0.194,1.161-1.098V24.01c0-0.098,0.033-0.678-0.193-0.678H198.533z"/>
	<path fill="#448490" d="M68.448,32.378c-0.142,0.378-0.284,0.852-0.473,0.852c-0.237,0-0.426-0.615-0.567-0.946l-3.689-8.654   c-0.378-0.899-1.135-0.615-1.135-0.947c0-0.142,0.094-0.188,0.236-0.188c0.426,0,0.899,0.047,1.372,0.047   c0.378,0,0.946-0.047,1.135-0.047c0.095,0,0.237,0.047,0.237,0.143c0,0.188-0.615,0.188-0.615,0.757   c0,0.188,0.095,0.426,0.142,0.566l2.602,6.148c0.331,0.757,0.425,1.088,0.567,1.088s0.189-0.236,0.283-0.378l2.602-6.386   c0.094-0.235,0.236-0.708,0.189-1.039c0-0.663-0.946-0.379-0.946-0.711c0-0.142,0.094-0.188,0.236-0.188   c0.332,0,0.662,0.047,0.946,0.047c0.756,0,0.946-0.047,1.182-0.047c0.142,0,0.237,0.047,0.237,0.188   c0,0.332-0.426-0.046-0.852,0.947L68.448,32.378z"/>
	<path fill="#448490" d="M61.118,32.992c-1.135,0-2.271-0.095-3.406-0.047c-0.567,0-1.229,0.047-1.797,0.047   c-0.142,0-0.236-0.047-0.236-0.142c0.047-0.188,0.189-0.142,0.662-0.379c0.378-0.188,0.425-0.614,0.425-1.323v-6.763   c0-0.662,0-1.372-0.804-1.514c-0.142,0-0.473-0.048-0.473-0.236c0-0.096,0.095-0.143,0.521-0.143c2.837,0,3.594,0.047,4.209,0.047   c0.331,0,1.655-0.047,2.128-0.047c0.142,0,0.142,0.143,0.142,0.284c0,1.654-0.189,1.797-0.283,1.797   c-0.378,0-0.095-0.709-0.378-1.041c-0.332-0.52-1.892-0.425-2.507-0.425c-1.419,0-1.372-0.048-1.372,0.945v2.743   c0,0.521-0.048,0.521,0.52,0.521h1.608c1.561,0,1.183-1.182,1.513-1.182c0.142,0,0.189,0.141,0.189,0.283   c0,0.52-0.048,0.993-0.048,1.467c0,0.379,0.048,0.804,0.048,1.182c0,0.142-0.095,0.188-0.189,0.188   c-0.473,0,0.047-1.277-1.182-1.277h-2.223c-0.284,0-0.236,0.237-0.236,0.474v2.696c0,0.898-0.142,1.276,1.087,1.276   c3.453,0,3.973-1.561,4.162-1.561c0.095,0,0.095,0.142,0.095,0.188c0,0.521-0.378,1.041-0.709,1.419   C62.063,33.041,61.78,32.992,61.118,32.992z"/>
	<path fill="#448490" d="M174.123,32.371c-0.161,0.388-0.258,0.872-0.483,0.872c-0.258,0-0.42-0.646-0.549-0.937l-3.648-8.652   c-0.355-0.871-1.163-0.612-1.163-0.936c0-0.129,0.097-0.194,0.226-0.194c0.452,0,0.904,0.065,1.356,0.065   c0.388,0,0.97-0.065,1.163-0.065c0.098,0,0.194,0.065,0.194,0.13c0.032,0.226-0.582,0.226-0.582,0.774   c0,0.194,0.064,0.42,0.13,0.581l2.582,6.07c0.355,0.807,0.42,1.13,0.581,1.13c0.162,0,0.193-0.226,0.291-0.42l2.551-6.328   c0.098-0.227,0.291-0.71,0.227-1.001c0-0.678-0.969-0.419-0.969-0.742c0-0.162,0.097-0.194,0.226-0.194   c0.323,0,0.646,0.065,1.002,0.065c0.709,0,0.903-0.065,1.129-0.065c0.162,0,0.259,0.065,0.259,0.194   c0,0.323-0.419-0.064-0.839,0.936L174.123,32.371z"/>
	<path fill="#448490" d="M46.362,32.047l-0.473-2.554c-0.094-0.379,0-0.616,0.189-0.616c0.284,0,0.284,0.237,0.378,0.664   c0.237,0.898,1.419,2.979,4.162,2.979c1.892,0,3.736-1.04,3.736-3.121c0-3.831-8.041-1.703-8.041-6.858   c0-2.507,2.128-3.736,4.399-3.736c2.412,0,3.026,0.71,3.31,0.71c0.19,0,0.237-0.236,0.426-0.236c0.143,0,0.237,0.095,0.237,0.283   l0.284,2.696c0.047,0.189,0,0.332-0.189,0.332c-0.237,0-0.378-0.427-0.426-0.615c-0.567-1.702-2.034-2.554-3.784-2.554   c-1.561,0-3.216,0.756-3.216,2.554c0,3.735,8.04,1.56,8.04,6.999c0,1.702-1.182,4.162-5.675,4.162   C48.253,33.135,46.409,32.425,46.362,32.047z"/>
	<path fill="#448490" d="M161.176,32.953c-0.097,0-0.903,0.031-1.355,0.031c-0.806,0-1.291-0.031-1.937-0.031   c-0.549,0-1.065,0.064-1.615,0.064c-0.097,0-0.42,0-0.42-0.194c0-0.484,1.163-0.291,1.163-1.033c0-0.419-0.388-1.322-0.581-1.84   l-0.646-1.613c-0.193-0.452-0.291-0.744-0.839-0.744h-4.327c-0.388,0-0.742,0-0.936,0.421l-1.227,2.744   c-0.064,0.129-0.162,0.419-0.162,0.678c0,1.355,1.389,0.773,1.389,1.291c0,0.355-0.258,0.291-0.517,0.291   c-0.548,0-1.098-0.064-1.646-0.064c-0.516,0-1.065,0.064-1.582,0.064c-0.097,0-0.162-0.098-0.162-0.227   c0-0.388,0.904-0.064,1.42-1.194l4.683-9.977c1.163-2.486,1.228-2.81,1.484-2.81c0.227,0,0.356,0.581,0.421,0.743l4.068,10.106   c0.29,0.71,0.517,1.517,0.969,2.228c0.323,0.451,0.613,0.613,1,0.613c0.323,0,0.581-0.388,0.581-1.033v-7.362   c0-1.516-1.193-1.032-1.193-1.451c0-0.098,0.097-0.13,0.194-0.13c0.451,0,0.902,0.065,1.322,0.065c1.001,0,1.938-0.065,3.229-0.065   c2.615,0,5.198,1.969,5.198,4.714c0,3.39-1.615,5.746-5.715,5.746C162.662,32.984,161.918,32.953,161.176,32.953z M161.563,23.816   v7.038c0,0.226-0.033,0.936,0.097,1.064c0.484,0.484,1.614,0.678,2.293,0.678c2.099,0,4.1-1.129,4.1-4.552   c0-3.293-2.195-5.133-5.004-5.165C161.628,22.88,161.563,23.138,161.563,23.816z M152.718,21.62l-2.229,4.746   c-0.129,0.291,0,0.355,0.259,0.355h3.875c0.452,0,0.418-0.129,0.322-0.388l-1.904-4.714   C152.944,21.362,152.847,21.362,152.718,21.62z"/>
	<path fill="#448490" d="M227.174,22.944l0.064,1.194c0,0.129,0.033,0.323-0.161,0.323c-0.55,0,0.259-1.13-1.26-1.13h-2.132   c-0.58,0-0.58,0.032-0.58,0.71v7.555c0,1.259,1.195,0.774,1.195,1.227c0,0.032,0.031,0.161-0.13,0.161   c-0.356,0-0.775-0.031-1.195-0.031c-1.646,0-1.937,0.031-2.034,0.031c-0.128,0-0.161-0.031-0.161-0.193   c0-0.354,1.162-0.194,1.162-1.098V24.01c0-0.098,0.032-0.678-0.194-0.678h-3.066c-0.904,0-0.873,0.322-0.873,0.839   c0,0.161,0.13,0.808-0.159,0.808c-0.162,0-0.259-0.323-0.324-0.452c-0.452-1.259-1.485-1.711-2.776-1.711   c-1.195,0-2.423,0.581-2.423,1.937c0,2.776,6.006,1.162,6.006,5.23c0,1.259-0.871,3.132-4.229,3.132   c-1.099,0-2.455-0.549-2.52-0.84l-0.354-1.904c-0.065-0.29,0-0.451,0.161-0.451c0.193,0,0.193,0.192,0.29,0.483   c0.162,0.678,1.066,2.228,3.101,2.228c1.42,0,2.775-0.775,2.775-2.356c0-2.841-6.005-1.259-6.005-5.102   c0-1.872,1.583-2.776,3.294-2.776c1.776,0,2.259,0.517,2.485,0.517c0.226,0,0.26-0.388,0.549-0.388   c1.163,0,2.811,0.065,4.715,0.065c2.681,0,4.037-0.065,4.326-0.065C227.077,22.524,227.142,22.621,227.174,22.944z"/>
	<path fill="#448490" d="M238.251,18.92c3.687,0,4.706,1.509,5.274,1.509c0.156,0,0.273-0.195,0.47-0.195   c0.217,0,0.217,0.312,0.275,1.589c0.04,1.038,0.215,1.685-0.117,1.685c-0.235,0-0.373-0.51-0.451-0.646   c-1.215-2.097-2.608-3.372-5.137-3.372c-3.823,0-5.667,2.549-5.667,6.196c0,3.412,1.961,6.822,5.727,6.822   c3.077,0,4.998-1.962,5.293-2.863c0.039-0.138,0.157-0.254,0.273-0.254c0.099,0,0.196,0.116,0.178,0.216l-0.451,1.96   c-0.02,0.078-1.412,1.549-5.823,1.549c-4.019,0-6.9-2.765-6.9-6.822C231.194,22.233,234.114,18.92,238.251,18.92z"/>
</g>
<g>
	<path fill="#448490" d="M228.425,18.446c0.468,0,0.865,0.164,1.194,0.493c0.328,0.328,0.493,0.726,0.493,1.193   c0,0.465-0.165,0.862-0.495,1.19c-0.329,0.329-0.726,0.494-1.192,0.494c-0.523,0-0.951-0.199-1.283-0.594   c-0.27-0.32-0.403-0.685-0.403-1.091c0-0.415,0.134-0.779,0.401-1.095C227.477,18.644,227.905,18.446,228.425,18.446z    M228.425,18.633c-0.414,0-0.769,0.147-1.062,0.439c-0.292,0.294-0.439,0.646-0.439,1.062c0,0.413,0.147,0.769,0.439,1.061   c0.293,0.293,0.647,0.439,1.062,0.439s0.769-0.146,1.061-0.439c0.293-0.292,0.439-0.647,0.439-1.061   c0-0.416-0.146-0.771-0.438-1.062C229.195,18.779,228.84,18.633,228.425,18.633z M228.636,20.129l0.378,0.552l0.047,0.067   c0.117,0.171,0.224,0.26,0.318,0.264l0.044,0.003c0.031,0.001,0.045,0.016,0.044,0.041c-0.003,0.047-0.077,0.069-0.223,0.069   c-0.166,0-0.316-0.101-0.451-0.301l-0.354-0.532l-0.019-0.031c-0.019-0.031-0.05-0.048-0.094-0.048h-0.189l-0.021,0.003   l-0.007,0.028v0.492c0,0.109,0.014,0.182,0.045,0.215c0.028,0.034,0.095,0.057,0.199,0.067c0.046,0.005,0.07,0.022,0.071,0.053   s-0.021,0.046-0.067,0.046c-0.014,0-0.042-0.003-0.086-0.006c-0.035-0.006-0.095-0.008-0.178-0.008h-0.214   c-0.025,0-0.065,0.004-0.115,0.009c-0.037,0.004-0.061,0.005-0.072,0.005c-0.042,0-0.062-0.016-0.062-0.047   c0-0.023,0.019-0.039,0.052-0.048c0.072-0.019,0.119-0.049,0.139-0.097c0.02-0.047,0.03-0.147,0.03-0.303v-1.001l-0.003-0.145   c0-0.136-0.046-0.21-0.139-0.224l-0.066-0.01c-0.043-0.007-0.062-0.025-0.062-0.053c0-0.03,0.021-0.046,0.066-0.046   c0.011,0,0.045,0.003,0.102,0.007c0.03,0.002,0.071,0.003,0.125,0.003c0.045,0,0.116-0.003,0.22-0.01   c0.078-0.005,0.145-0.008,0.201-0.008c0.451,0,0.677,0.167,0.677,0.498C228.972,19.847,228.86,20.012,228.636,20.129z    M228.188,20.069h0.158c0.251,0,0.375-0.121,0.375-0.363c0-0.123-0.046-0.225-0.14-0.308c-0.093-0.083-0.206-0.124-0.343-0.124   c-0.088,0-0.132,0.035-0.132,0.104l0.003,0.048v0.562c0,0.037,0.004,0.061,0.012,0.068   C228.129,20.065,228.151,20.069,228.188,20.069z"/>
</g>
<g>
	<path fill="#448490" d="M36.958,27.85c0.468,0,0.866,0.164,1.194,0.492s0.493,0.727,0.493,1.193s-0.165,0.863-0.495,1.19   c-0.329,0.329-0.727,0.495-1.193,0.495c-0.522,0-0.95-0.199-1.283-0.596c-0.27-0.318-0.404-0.683-0.404-1.09   c0-0.415,0.134-0.779,0.401-1.095C36.01,28.046,36.439,27.85,36.958,27.85z M36.958,28.036c-0.414,0-0.768,0.146-1.061,0.438   c-0.293,0.295-0.439,0.647-0.439,1.062c0,0.414,0.146,0.768,0.439,1.06c0.293,0.294,0.647,0.441,1.061,0.441   c0.415,0,0.769-0.147,1.062-0.441c0.292-0.292,0.44-0.646,0.44-1.06c0-0.417-0.147-0.771-0.439-1.062   C37.729,28.183,37.374,28.036,36.958,28.036z M37.169,29.532l0.377,0.552l0.047,0.066c0.118,0.172,0.224,0.26,0.318,0.265   l0.045,0.003c0.03,0.001,0.044,0.016,0.042,0.042c-0.003,0.046-0.077,0.069-0.222,0.069c-0.167,0-0.317-0.102-0.451-0.303   l-0.354-0.532l-0.019-0.03c-0.019-0.032-0.05-0.047-0.095-0.047h-0.188l-0.021,0.002l-0.007,0.027v0.493   c0,0.108,0.015,0.18,0.044,0.214c0.03,0.035,0.096,0.057,0.2,0.068c0.046,0.004,0.07,0.021,0.071,0.051   c0.001,0.032-0.021,0.049-0.067,0.049c-0.014,0-0.042-0.003-0.085-0.008c-0.037-0.005-0.096-0.008-0.179-0.008h-0.212   c-0.027,0-0.066,0.004-0.117,0.01c-0.037,0.004-0.061,0.006-0.071,0.006c-0.042,0-0.062-0.017-0.062-0.049   c0-0.023,0.018-0.039,0.052-0.047c0.073-0.019,0.119-0.049,0.139-0.097c0.02-0.047,0.029-0.147,0.029-0.303v-1.001l-0.002-0.146   c0-0.134-0.046-0.209-0.139-0.222l-0.066-0.009c-0.041-0.008-0.062-0.026-0.062-0.054c0-0.03,0.022-0.046,0.066-0.046   c0.01,0,0.045,0.002,0.101,0.007c0.03,0.001,0.072,0.003,0.125,0.003c0.044,0,0.118-0.004,0.22-0.01   c0.077-0.006,0.144-0.008,0.2-0.008c0.452,0,0.678,0.166,0.678,0.499C37.505,29.25,37.394,29.413,37.169,29.532z M36.722,29.473   h0.158c0.25,0,0.375-0.122,0.375-0.363c0-0.124-0.046-0.227-0.139-0.309c-0.093-0.081-0.208-0.123-0.345-0.123   c-0.087,0-0.13,0.035-0.13,0.104l0.002,0.047v0.563c0,0.038,0.003,0.061,0.012,0.068C36.663,29.469,36.685,29.473,36.722,29.473z"/>
</g>
</svg>