<?xml version="1.0" encoding="UTF-8"?>
<!-- Generator: Adobe Illustrator 16.0.3, SVG Export Plug-In . SVG Version: 6.00 Build 0)  -->
<!DOCTYPE svg PUBLIC "-//W3C//DTD SVG 1.1//EN" "http://www.w3.org/Graphics/SVG/1.1/DTD/svg11.dtd">
<svg version="1.1" id="Layer_1" xmlns="http://www.w3.org/2000/svg" xmlns:xlink="http://www.w3.org/1999/xlink" x="0px" y="0px" viewBox="0 0 306 90" enable-background="new 0 0 306 90" xml:space="preserve">
<g>
	<path fill="#438390" d="M38.523,71.612v-3.189h4.528v-0.302c0-3.194-1.472-5.534-11.622-3.776l-16.69,2.973L5.136,80.64   l23.045-4.088c6.905-1.186,12.968-1.433,14.871,4.058v-8.997H38.523z"/>
	<path fill="#438390" d="M46.201,80.609c0-4.347,2.568-7.331,7.808-12.571l3.692-3.693l16.878,2.973l9.62,13.308l-22.13-3.819   C54.565,75.366,48.205,74.861,46.201,80.609z"/>
</g>
<g>
	<path fill="#438390" d="M47.136,68.415c1.672-3.587,5.232-6.83,7.279-8.878l1.457-1.479c6.198-6.198,7.389-8.763,7.765-13.031   c0.017-0.223,0.336,0.836,0.432,1.586c0.32,2.516,0.135,4.341-0.72,6.859c-1.278,3.764-4.304,6.763-8.231,10.688l-4.271,4.254   H47.136z"/>
	<path fill="#438390" d="M50.735,16.443c0-0.033,0.104-0.052,0.104,0v4.943c0,4.47-5.745,9.628-8.034,11.901l-8.417,8.44   c-2.91,2.911-8.736,8.656-6.29,14.2c0.082,0.186,0.156,0.345-0.155,0.123c-0.622-0.441-1.566-1.994-1.817-4.829   c-0.448-5.054,2.998-9.58,7.248-13.83l8.029-8.039C49.545,21.209,50.339,19.774,50.735,16.443z"/>
	<path fill="#438390" d="M42.805,41.748c2.289-2.274,8.034-7.431,8.034-11.902v-4.943c0-0.052-0.104-0.034-0.104,0   c-0.396,3.332-1.19,4.767-9.333,12.91l-7.458,7.47c-2.71,2.709-5.195,5.55-5.081,10.137c0.071,2.811,1.484,5.14,3.61,5.688   c0.875,0.188,0.821,0.074,0.613-0.014c-3.002-1.418-2.787-6.841,2.067-11.695L42.805,41.748z"/>
	<path fill="#438390" d="M33.442,34.271c-6.198,6.197-7.389,8.761-7.765,13.03c-0.017,0.223-0.336-0.836-0.432-1.586   c-0.32-2.516-0.135-4.341,0.721-6.859c1.278-3.764,4.304-6.763,8.231-10.69l7.206-7.217c8.143-8.143,8.937-9.578,9.333-12.91   c0-0.033,0.104-0.052,0.104,0v4.943c0,4.471-5.745,9.628-8.034,11.901L33.442,34.271z"/>
	<path fill="#438390" d="M46.307,76.526c-0.005,0.037-0.106,0.038-0.106,0v-4.914h2.056C47.095,73.279,46.501,74.891,46.307,76.526z   "/>
	<path fill="#438390" d="M46.322,68.423c-0.004,0.037-0.106,0.037-0.106,0v-5.002c0-3.757,3.683-7.819,7.333-11.444l2.368-2.366   c1.911-1.91,7.746-7.667,5.3-13.211c-0.082-0.184-0.157-0.343,0.155-0.122c0.623,0.442,1.566,1.994,1.817,4.83   c0.448,5.054-2.998,9.579-7.249,13.829l-2.188,2.2C48.475,62.413,46.719,64.778,46.322,68.423z"/>
	<path fill="#438390" d="M46.316,59.749c-0.005,0.037-0.105,0.037-0.105,0v-5.077c0-3.582,3.552-7.447,5.277-9.172l2.672-2.667   c4.854-4.855,5.07-10.277,2.067-11.695c-0.208-0.088-0.261-0.203,0.613-0.014c2.126,0.549,3.54,2.878,3.609,5.688   c0.115,4.586-2.329,7.409-5.039,10.118l-2.167,2.168C48.713,53.629,46.729,56.278,46.316,59.749z"/>
</g>
<g>
	<g>
		<path fill="#438390" d="M230.337,68.271c-0.021-1.445-1.722-1.05-1.722-1.484c0-0.179,0.158-0.218,0.316-0.218    c0.732,0,1.444,0.078,2.177,0.078c0.613,0,1.229-0.078,1.842-0.078c0.336,0,0.376,0.117,0.376,0.198    c0,0.396-1.426,0.02-1.426,1.504v4.275c0,0.276,0,0.355,0.297,0.355h7.244c0.197,0,0.158-0.495,0.158-0.574v-4.057    c0-1.366-1.483-1.03-1.483-1.484c0-0.12,0.039-0.218,0.336-0.218c0.653,0,1.683,0.078,2.059,0.078    c0.732,0,1.029-0.078,1.426-0.078c0.514,0,0.553,0.198,0.553,0.315c0,0.356-1.326,0.021-1.326,1.387v10.489    c0,1.445,1.802,1.089,1.802,1.583c0,0.061-0.08,0.238-0.218,0.238c-0.535,0-1.147-0.079-1.86-0.079    c-1.268,0-1.82,0.079-2.197,0.079c-0.178,0-0.475,0.059-0.475-0.258c0-0.475,1.385-0.197,1.385-1.444v-4.751    c0-0.316,0.079-0.494-0.158-0.494h-7.304c-0.237,0-0.237,0.118-0.237,0.337v4.928c0,1.346,1.881,0.911,1.881,1.524    c0,0.099-0.139,0.158-0.317,0.158c-0.257,0-1.702-0.079-2.751-0.079c-1.405,0-1.622,0.079-1.702,0.079    c-0.158,0-0.218-0.1-0.218-0.298c0-0.573,1.544,0.08,1.544-1.88V68.271z"/>
		<path fill="#438390" d="M246.842,75.297c0,3.167,2.058,4.611,4.729,4.611c3.722,0,4.572-2.454,4.572-4.789v-6.413    c0-2.02-1.841-1.187-1.841-1.938c0-0.101,0.14-0.198,0.198-0.198c0.772,0,1.544,0.078,2.315,0.078    c0.377,0,0.732-0.078,1.089-0.078c0.099,0,0.257,0.098,0.257,0.218c0,0.554-1.167,0.118-1.167,1.938v6.136    c0,0.97,0.237,5.859-5.522,5.859c-5.205,0-6.195-2.91-6.195-5.958v-6.67c0-1.168-1.603-0.693-1.603-1.325    c0-0.14,0.336-0.198,0.435-0.198c0.515,0,1.011,0.078,1.544,0.078c0.634,0,1.268-0.078,1.881-0.078    c0.099,0,0.633-0.04,0.633,0.198c0,0.554-1.325,0-1.325,1.425V75.297z"/>
	</g>
	<path fill="#438390" d="M269.8,78.424c1.425,2.178,2.395,1.445,2.395,1.92c0,0.238-1.108,0.238-1.286,0.238   c-1.445,0-2.217-1.01-2.969-2.139l-2.197-3.463c-0.712-1.108-0.416-1.049-2.633-1.049c-0.634,0-0.515,0.356-0.515,0.554v4.177   c0,1.702,2.06,1.088,2.06,1.762c0,0.197-0.18,0.158-0.337,0.158c-0.179,0-0.634-0.079-2.277-0.079   c-0.751,0-1.504,0.079-2.256,0.079c-0.118,0-0.198-0.1-0.198-0.218c0-0.495,1.445-0.218,1.445-1.722V68.568   c0-1.901-1.701-1.089-1.701-1.762c0-0.12,0.157-0.237,0.396-0.237c0.355,0,0.257,0.078,1.267,0.078   c1.147,0,2.276-0.078,3.305-0.078c0.317,0,4.691-0.396,4.691,3.424c0,1.543-1.108,2.87-2.494,3.424L269.8,78.424z M262.595,72.981   c0,0.376,1.228,0.277,2.158,0.277c0.851,0,2.751-0.356,2.751-2.811c0-2.415-1.841-3.227-3.781-3.227   c-0.712,0-1.128-0.039-1.128,0.732V72.981z"/>
	<path fill="#438390" d="M279.153,66.391c3.721,0,4.75,1.524,5.324,1.524c0.158,0,0.277-0.198,0.475-0.198   c0.218,0,0.218,0.316,0.277,1.604c0.039,1.049,0.218,1.701-0.118,1.701c-0.238,0-0.377-0.514-0.456-0.652   c-1.227-2.117-2.632-3.404-5.186-3.404c-3.859,0-5.72,2.572-5.72,6.254c0,3.444,1.979,6.888,5.779,6.888   c3.107,0,5.047-1.979,5.344-2.889c0.039-0.14,0.158-0.258,0.277-0.258c0.099,0,0.197,0.118,0.178,0.218l-0.455,1.979   c-0.02,0.079-1.425,1.564-5.879,1.564c-4.057,0-6.966-2.791-6.966-6.888S274.977,66.391,279.153,66.391z"/>
	<path fill="#438390" d="M288.381,68.271c-0.019-1.445-1.722-1.05-1.722-1.484c0-0.179,0.159-0.218,0.316-0.218   c0.732,0,1.445,0.078,2.178,0.078c0.613,0,1.228-0.078,1.841-0.078c0.336,0,0.376,0.117,0.376,0.198   c0,0.396-1.425,0.02-1.425,1.504v4.275c0,0.276,0,0.355,0.297,0.355h7.244c0.197,0,0.158-0.495,0.158-0.574v-4.057   c0-1.366-1.484-1.03-1.484-1.484c0-0.12,0.04-0.218,0.336-0.218c0.653,0,1.683,0.078,2.06,0.078c0.732,0,1.028-0.078,1.425-0.078   c0.514,0,0.554,0.198,0.554,0.315c0,0.356-1.326,0.021-1.326,1.387v10.489c0,1.445,1.801,1.089,1.801,1.583   c0,0.061-0.079,0.238-0.218,0.238c-0.534,0-1.147-0.079-1.859-0.079c-1.268,0-1.821,0.079-2.197,0.079   c-0.179,0-0.476,0.059-0.476-0.258c0-0.475,1.386-0.197,1.386-1.444v-4.751c0-0.316,0.078-0.494-0.158-0.494h-7.304   c-0.237,0-0.237,0.118-0.237,0.337v4.928c0,1.346,1.881,0.911,1.881,1.524c0,0.099-0.14,0.158-0.317,0.158   c-0.258,0-1.702-0.079-2.752-0.079c-1.405,0-1.622,0.079-1.702,0.079c-0.157,0-0.217-0.1-0.217-0.298   c0-0.573,1.543,0.08,1.543-1.88V68.271z"/>
	<path fill="#438390" d="M193.703,44.275c0.633,0,1.202,0.063,1.772,0.063c1.328,0,2.595-0.063,4.304-0.063   c3.543,0,7.024,2.658,7.024,6.329c0,4.557-2.151,7.721-7.721,7.721c-1.013,0-2.026-0.062-3.038-0.062   c-0.127,0-2.089,0.062-2.216,0.062c-0.126,0-0.189-0.062-0.189-0.188c0-0.444,1.393,0.062,1.393-1.836v-9.938   c0-2.025-1.582-1.392-1.582-1.898C193.45,44.338,193.576,44.275,193.703,44.275z M199.779,57.819c2.848,0,5.506-1.519,5.506-6.14   c0-4.431-2.911-6.898-6.709-6.961c-1.899,0-1.961,0.316-1.961,1.265v9.494c0,0.317-0.064,1.266,0.125,1.392   C197.374,57.566,198.893,57.819,199.779,57.819z"/>
	<path fill="#438390" d="M210.538,52.819c-0.38,0-0.76,0-0.95,0.442l-1.266,2.786c-0.063,0.126-0.189,0.441-0.189,0.695   c0,1.394,1.455,0.76,1.455,1.266c0,0.381-0.316,0.316-0.569,0.316c-0.568,0-1.075-0.062-1.646-0.062   c-0.569,0-1.076,0.062-1.582,0.062c-0.127,0-0.189-0.062-0.189-0.188c0-0.444,0.948-0.128,1.455-1.268l4.747-10.126   c1.139-2.468,1.202-2.784,1.519-2.784c0.19,0,0.317,0.569,0.38,0.696l4.177,10.253c0.316,0.759,0.507,1.581,0.95,2.278   c0.633,0.886,1.771,0.442,1.771,0.95c0,0.188-0.127,0.188-0.253,0.188c-0.822,0-1.646-0.062-2.469-0.062   c-0.569,0-1.075,0.062-1.646,0.062c-0.063,0-0.443,0-0.443-0.188c0-0.508,1.203-0.255,1.203-1.014c0-0.442-0.38-1.393-0.57-1.898   l-0.633-1.646c-0.189-0.443-0.315-0.76-0.886-0.76H210.538z M214.588,51.933c0.443,0,0.443-0.127,0.316-0.38l-1.962-4.81   c-0.063-0.253-0.189-0.253-0.316,0l-2.215,4.874c-0.127,0.253,0,0.315,0.253,0.315H214.588z"/>
	<path fill="#438390" d="M218.575,44.275c0.506,0,0.887,0.063,2.216,0.063c0.696,0,1.202-0.063,1.392-0.063   c0.19,0,0.38,0,0.38,0.189c0,0.316-0.886,0.316-0.886,0.886c0,0.38,0.253,0.697,0.316,0.824l2.405,3.86   c0.189,0.253,0.316,0.379,0.442,0.379c0.063,0,0.19-0.126,0.38-0.442l2.025-3.291c0.127-0.253,0.442-0.57,0.442-1.076   c0-1.013-1.519-0.569-1.519-1.076c0-0.253,0.19-0.253,0.442-0.253c0.444,0,0.95,0.063,1.456,0.063c0.57,0,1.14-0.063,1.709-0.063   c0.127,0,0.19,0.126,0.19,0.189c0,0.254-0.316,0.316-0.443,0.38c-0.57,0.316-0.822,0.886-1.14,1.391l-2.784,4.368   c-0.316,0.442-0.443,0.569-0.443,0.886v4.873c0,1.709,1.583,1.14,1.583,1.773c0,0.188-0.128,0.188-0.444,0.188   c-0.253,0-1.455-0.062-2.151-0.062c-0.886,0-1.646,0.062-1.835,0.062c-0.127,0-0.253,0-0.253-0.253c0-0.506,1.519,0,1.519-1.456   v-4.811c0-0.379-0.316-0.759-0.442-1.012l-3.354-5.316c-0.507-0.823-1.455-0.569-1.455-0.949   C218.323,44.402,218.386,44.275,218.575,44.275z"/>
	<path fill="#438390" d="M177.676,66.615c0.734,0,1.426,0.087,2.16,0.087c0.647,0,1.253-0.087,1.858-0.087   c0.303,0,0.389,0.043,0.389,0.173c0,0.476-1.426,0.043-1.426,1.512v10.63c0,1.383,1.729,0.907,1.729,1.512   c0,0.13-0.043,0.173-0.389,0.173c-0.433,0-1.297-0.043-2.161-0.043c-1.21,0-1.599,0.043-1.901,0.043   c-0.345,0-0.389-0.086-0.389-0.302c0-0.562,1.513,0.086,1.513-1.858V68.3c0-1.426-1.598-1.036-1.598-1.469   C177.461,66.658,177.503,66.615,177.676,66.615z"/>
	<path fill="#438390" d="M141.237,50.731c2.089,0,1.519-1.582,2.025-1.582c0.19,0,0.19,0.188,0.19,0.379c0,0.696,0,1.33,0,1.962   c0,0.507,0,1.076,0,1.582c0,0.189-0.063,0.254-0.19,0.254c-0.633,0,0.063-1.709-1.583-1.709h-2.974c-0.443,0-0.38,0.315-0.38,0.633   v3.606c0,1.203-0.127,1.71,1.519,1.71c4.62,0,5.315-2.089,5.569-2.089c0.126,0,0.126,0.189,0.126,0.253   c0,0.696-0.506,1.393-1.012,1.898c-0.633,0.761-1.076,0.696-1.898,0.696c-1.519,0-3.038-0.127-4.557-0.062   c-0.823,0-1.646,0.062-2.405,0.062c-0.19,0-0.316-0.062-0.316-0.188c0.063-0.255,0.253-0.191,0.886-0.508   c0.506-0.253,0.569-0.822,0.569-1.772v-9.05c0-0.886,0-1.835-1.076-2.025c-0.189,0-0.632-0.062-0.632-0.316   c0-0.126,0.126-0.189,0.696-0.189c3.797,0,4.81,0.063,5.633,0.063c0.379,0,2.215-0.063,2.848-0.063c0.19,0,0.19,0.189,0.19,0.379   c0,2.214-0.253,2.406-0.379,2.406c-0.506,0-0.127-0.95-0.506-1.393c-0.507-0.696-2.595-0.569-3.354-0.569   c-1.898,0-1.898-0.063-1.898,1.265v3.672c0,0.696,0,0.696,0.759,0.696H141.237z"/>
	<path fill="#438390" d="M145.287,44.275c0.317,0,0.634,0.063,0.95,0.063c0.253,0,0.569-0.063,0.886-0.063   c0.253,0,0.379,0.316,0.506,0.443l9.494,10.568c0.127,0.127,0.189,0.19,0.254,0.19c0.062,0,0.062-0.063,0.062-0.19v-8.354   c0-2.595-2.214-1.835-2.214-2.469c0-0.126,0.125-0.189,0.252-0.189c0.57,0,1.14,0.063,1.772,0.063c0.695,0,1.519-0.063,2.024-0.063   c0.127,0,0.19,0.063,0.19,0.126c0,0.57-1.202,0.19-1.202,1.646v11.519c0,0.57,0,0.823-0.127,0.823c-0.19,0-0.379-0.064-0.759-0.508   l-8.544-9.683c-0.063,0-0.316-0.38-0.443-0.38c-0.063,0-0.126,0.063-0.126,0.507v8.101c0,1.836,1.708,1.14,1.708,1.646   c0,0.126,0,0.253-0.189,0.253c-0.507,0-1.013-0.062-2.026-0.062c-0.695,0-1.708,0.062-1.834,0.062   c-0.253,0-0.253-0.127-0.253-0.188c0-0.697,1.708,0.188,1.708-2.659v-7.342c0-4.113-2.404-2.974-2.404-3.671   C144.971,44.338,145.16,44.275,145.287,44.275z"/>
	<path fill="#438390" d="M161.615,45.351c-1.266,0-1.266,0.316-1.646,1.392c-0.063,0.19-0.063,0.444-0.316,0.444   c-0.126,0-0.189-0.127-0.189-0.254l0.189-1.898c0.064-0.254,0-0.76,0.381-0.76c1.519,0,3.101,0.063,5.632,0.063   c3.607,0,5.443-0.063,5.822-0.063c0.444,0,0.507,0.063,0.57,0.57l0.126,1.583c0,0.189,0,0.441-0.252,0.441   c-0.697,0,0.378-1.518-1.647-1.518h-2.847c-0.887,0-0.823-0.063-0.823,0.95v10.188c0,1.647,1.646,1.014,1.646,1.583   c0,0.064,0,0.253-0.189,0.253c-0.506,0-1.076-0.062-1.646-0.062c-2.216,0-2.595,0.062-2.722,0.062   c-0.189,0-0.253-0.062-0.253-0.253c0-0.506,1.582-0.253,1.582-1.456v-10.38c0-0.126,0.126-0.885-0.19-0.885H161.615z"/>
	<path fill="#438390" d="M172.121,44.275c0.76,0,1.456,0.063,2.215,0.063c0.633,0,1.267-0.063,1.836-0.063   c0.381,0,0.381,0.063,0.381,0.189c0,0.38-1.393,0-1.393,1.519v4.304c0,0.253,0,0.316,0.253,0.316h7.278   c0.253,0,0.189-0.507,0.189-0.569v-4.051c0-1.392-1.52-1.076-1.52-1.519c0-0.126,0.063-0.189,0.381-0.189   c0.632,0,1.645,0.063,2.024,0.063c0.759,0,1.075-0.063,1.456-0.063c0.506,0,0.569,0.189,0.569,0.316c0,0.316-1.329,0-1.329,1.392   v10.505c0,1.456,1.771,1.077,1.771,1.583c0,0.064-0.062,0.253-0.189,0.253c-0.569,0-1.139-0.062-1.898-0.062   c-1.266,0-1.835,0.062-2.215,0.062c-0.126,0-0.443,0.064-0.443-0.253c0-0.506,1.393-0.19,1.393-1.456V51.87   c0-0.317,0.063-0.506-0.189-0.506h-7.342c-0.189,0-0.189,0.126-0.189,0.315v4.937c0,1.393,1.834,0.95,1.834,1.582   c0,0.064-0.126,0.127-0.316,0.127c-0.253,0-1.709-0.062-2.721-0.062c-1.456,0-1.646,0.062-1.708,0.062   c-0.19,0-0.254-0.062-0.254-0.316c0-0.569,1.582,0.128,1.582-1.835v-10.19c0-1.456-1.772-1.076-1.772-1.519   C171.805,44.275,171.995,44.275,172.121,44.275z"/>
	<path fill="#438390" d="M192.817,51.237c0,0.949,0.062,0.949-0.696,1.202l-4.051,1.393c-0.38,0.127-0.696,0.315-0.887,0.315   c-0.316,0-0.252-0.379-0.252-0.568c0-1.013-0.064-1.013,0.696-1.266l4.05-1.394c0.316-0.126,0.696-0.315,0.887-0.315   C192.88,50.604,192.817,51.047,192.817,51.237z"/>
	<path fill="#438390" d="M146.307,73.053c2.074,0,1.556-1.599,2.031-1.599c0.13,0,0.215,0.217,0.215,0.39   c0,0.691-0.042,1.339-0.042,1.987c0,0.519,0.042,1.037,0.042,1.556c0,0.173-0.085,0.259-0.215,0.259   c-0.604,0,0.043-1.729-1.599-1.729h-2.938c-0.432,0-0.346,0.346-0.346,0.648v3.63c0,1.166-0.173,1.642,1.469,1.642   c4.58,0,5.272-2.031,5.53-2.031c0.13,0,0.13,0.173,0.13,0.217c0,0.734-0.519,1.426-0.951,1.944   c-0.648,0.691-1.081,0.647-1.944,0.647c-1.512,0-3.025-0.086-4.536-0.043c-0.778,0-1.599,0.043-2.42,0.043   c-0.173,0-0.302-0.043-0.302-0.173c0.043-0.259,0.259-0.216,0.864-0.519c0.519-0.259,0.562-0.777,0.562-1.728v-9.031   c0-0.907,0-1.857-1.037-1.987c-0.173-0.043-0.605-0.086-0.605-0.346c0-0.129,0.13-0.216,0.691-0.216   c3.716,0,4.753,0.087,5.617,0.087c0.389,0,2.203-0.087,2.809-0.087c0.173,0,0.216,0.173,0.216,0.432   c0,2.204-0.303,2.334-0.389,2.334c-0.476,0-0.173-0.951-0.476-1.382c-0.519-0.692-2.593-0.562-3.37-0.562   c-1.901,0-1.858-0.087-1.858,1.253v3.673c0,0.69-0.043,0.69,0.734,0.69H146.307z"/>
	<path fill="#438390" d="M150.67,66.615c0.346,0,0.649,0.087,0.952,0.087c0.302,0,0.604-0.087,0.907-0.087   c0.216,0,0.389,0.303,0.518,0.432l9.463,10.543c0.087,0.13,0.173,0.216,0.216,0.216c0.044,0,0.088-0.086,0.088-0.216v-8.296   c0-2.592-2.205-1.814-2.205-2.506c0-0.13,0.087-0.173,0.217-0.173c0.562,0,1.166,0.087,1.771,0.087c0.691,0,1.555-0.087,2.03-0.087   c0.087,0,0.173,0.043,0.173,0.173c0,0.519-1.166,0.173-1.166,1.599v11.45c0,0.604,0,0.864-0.174,0.864   c-0.129,0-0.346-0.087-0.734-0.562l-8.511-9.593c-0.044,0-0.303-0.346-0.433-0.346c-0.086,0-0.129,0.044-0.129,0.433v8.123   c0,1.771,1.728,1.08,1.728,1.599c0,0.13,0,0.259-0.217,0.259c-0.475,0-1.036-0.043-1.987-0.043c-0.691,0-1.728,0.043-1.858,0.043   c-0.259,0-0.259-0.086-0.259-0.216c0-0.691,1.728,0.173,1.728-2.593v-7.302c0-4.104-2.375-2.981-2.375-3.716   C150.412,66.702,150.585,66.615,150.67,66.615z"/>
	<path fill="#438390" d="M166.917,67.695c-1.252,0-1.296,0.304-1.642,1.383c-0.087,0.216-0.087,0.476-0.345,0.476   c-0.131,0-0.174-0.173-0.174-0.26l0.216-1.901c0-0.259,0-0.777,0.346-0.777c1.556,0,3.068,0.087,5.618,0.087   c3.585,0,5.399-0.087,5.789-0.087c0.475,0,0.562,0.13,0.604,0.562l0.087,1.599c0,0.173,0.044,0.433-0.217,0.433   c-0.734,0,0.346-1.513-1.685-1.513h-2.852c-0.734,0-0.778,0.043-0.778,0.95v10.111c0,1.685,1.599,1.037,1.599,1.642   c0,0.043,0.043,0.216-0.173,0.216c-0.475,0-1.036-0.043-1.599-0.043c-2.203,0-2.592,0.043-2.722,0.043   c-0.172,0-0.216-0.043-0.216-0.259c0-0.476,1.555-0.26,1.555-1.469V68.603c0-0.13,0.044-0.907-0.259-0.907H166.917z"/>
	<path fill="#438390" d="M129.085,57.503c-0.19,0.506-0.379,1.14-0.633,1.14c-0.316,0-0.57-0.823-0.759-1.267l-4.937-11.582   c-0.507-1.202-1.519-0.822-1.519-1.266c0-0.19,0.126-0.253,0.316-0.253c0.569,0,1.203,0.063,1.835,0.063   c0.507,0,1.266-0.063,1.519-0.063c0.127,0,0.317,0.063,0.317,0.189c0,0.254-0.823,0.254-0.823,1.013c0,0.253,0.127,0.57,0.19,0.759   l3.481,8.229c0.443,1.013,0.57,1.456,0.76,1.456c0.189,0,0.253-0.317,0.379-0.507l3.481-8.545c0.126-0.314,0.316-0.949,0.253-1.392   c0-0.886-1.266-0.506-1.266-0.949c0-0.19,0.126-0.253,0.316-0.253c0.443,0,0.886,0.063,1.266,0.063   c1.013,0,1.266-0.063,1.583-0.063c0.19,0,0.316,0.063,0.316,0.253c0,0.443-0.57-0.063-1.139,1.266L129.085,57.503z"/>
	<path fill="#438390" d="M119.276,58.325c-1.519,0-3.038-0.127-4.557-0.062c-0.759,0-1.645,0.062-2.405,0.062   c-0.19,0-0.316-0.062-0.316-0.188c0.063-0.255,0.253-0.191,0.886-0.508c0.506-0.253,0.569-0.822,0.569-1.772v-9.05   c0-0.886,0-1.835-1.076-2.025c-0.189,0-0.632-0.062-0.632-0.316c0-0.126,0.126-0.189,0.696-0.189c3.797,0,4.81,0.063,5.633,0.063   c0.443,0,2.215-0.063,2.848-0.063c0.19,0,0.19,0.189,0.19,0.379c0,2.214-0.253,2.406-0.379,2.406c-0.506,0-0.126-0.95-0.506-1.393   c-0.443-0.696-2.531-0.569-3.354-0.569c-1.899,0-1.835-0.063-1.835,1.265v3.672c0,0.696-0.063,0.696,0.696,0.696h2.152   c2.089,0,1.582-1.582,2.025-1.582c0.19,0,0.254,0.188,0.254,0.379c0,0.696-0.063,1.33-0.063,1.962c0,0.507,0.063,1.076,0.063,1.582   c0,0.189-0.127,0.254-0.254,0.254c-0.632,0,0.064-1.709-1.582-1.709h-2.974c-0.38,0-0.317,0.315-0.317,0.633v3.606   c0,1.203-0.19,1.71,1.456,1.71c4.62,0,5.316-2.089,5.569-2.089c0.126,0,0.126,0.189,0.126,0.253c0,0.696-0.506,1.393-0.949,1.898   C120.542,58.39,120.162,58.325,119.276,58.325z"/>
	<path fill="#438390" d="M134.252,79.794c-0.216,0.519-0.346,1.166-0.648,1.166c-0.345,0-0.562-0.864-0.734-1.253l-4.882-11.579   c-0.476-1.167-1.556-0.821-1.556-1.254c0-0.172,0.13-0.259,0.303-0.259c0.605,0,1.209,0.087,1.814,0.087   c0.519,0,1.296-0.087,1.556-0.087c0.129,0,0.259,0.087,0.259,0.173c0.043,0.303-0.778,0.303-0.778,1.037   c0,0.259,0.086,0.562,0.173,0.777l3.457,8.123c0.475,1.08,0.562,1.513,0.778,1.513c0.216,0,0.259-0.303,0.389-0.562l3.414-8.469   c0.129-0.303,0.389-0.951,0.302-1.34c0-0.907-1.296-0.562-1.296-0.994c0-0.216,0.129-0.259,0.302-0.259   c0.432,0,0.864,0.087,1.339,0.087c0.951,0,1.21-0.087,1.512-0.087c0.216,0,0.346,0.087,0.346,0.259   c0,0.433-0.562-0.086-1.123,1.254L134.252,79.794z"/>
	<path fill="#438390" d="M99.53,57.06l-0.633-3.418c-0.126-0.506,0-0.822,0.254-0.822c0.379,0,0.379,0.316,0.506,0.887   c0.316,1.202,1.899,3.986,5.569,3.986c2.531,0,5-1.392,5-4.177c0-5.126-10.759-2.278-10.759-9.177c0-3.354,2.848-5,5.886-5   c3.228,0,4.05,0.949,4.43,0.949c0.253,0,0.316-0.316,0.57-0.316c0.19,0,0.316,0.127,0.316,0.38l0.38,3.607   c0.063,0.253,0,0.443-0.253,0.443c-0.316,0-0.506-0.569-0.569-0.822c-0.76-2.279-2.722-3.418-5.063-3.418   c-2.088,0-4.303,1.013-4.303,3.418c0,4.999,10.759,2.088,10.759,9.366c0,2.279-1.583,5.57-7.595,5.57   C102.061,58.516,99.593,57.566,99.53,57.06z"/>
	<path fill="#438390" d="M116.926,80.571c-0.129,0-1.209,0.043-1.814,0.043c-1.081,0-1.728-0.043-2.592-0.043   c-0.734,0-1.426,0.087-2.16,0.087c-0.13,0-0.562,0-0.562-0.26c0-0.648,1.556-0.389,1.556-1.383c0-0.562-0.519-1.771-0.778-2.463   l-0.864-2.16c-0.259-0.604-0.389-0.994-1.124-0.994h-5.79c-0.519,0-0.994,0-1.253,0.562l-1.642,3.672   c-0.086,0.173-0.216,0.562-0.216,0.908c0,1.814,1.858,1.036,1.858,1.728c0,0.476-0.346,0.39-0.691,0.39   c-0.735,0-1.469-0.087-2.204-0.087c-0.691,0-1.426,0.087-2.117,0.087c-0.13,0-0.216-0.13-0.216-0.303   c0-0.519,1.21-0.087,1.901-1.599l6.265-13.352c1.555-3.327,1.642-3.758,1.987-3.758c0.303,0,0.476,0.776,0.562,0.992l5.444,13.524   c0.389,0.95,0.691,2.031,1.296,2.981c0.432,0.604,0.821,0.821,1.339,0.821c0.432,0,0.778-0.519,0.778-1.383v-9.852   c0-2.03-1.599-1.383-1.599-1.944c0-0.13,0.129-0.173,0.259-0.173c0.605,0,1.21,0.087,1.772,0.087c1.339,0,2.592-0.087,4.32-0.087   c3.5,0,6.957,2.636,6.957,6.309c0,4.536-2.16,7.69-7.647,7.69C118.914,80.614,117.92,80.571,116.926,80.571z M117.445,68.344v9.419   c0,0.303-0.043,1.253,0.129,1.426c0.648,0.648,2.161,0.907,3.067,0.907c2.809,0,5.488-1.512,5.488-6.092   c0-4.407-2.938-6.87-6.697-6.913C117.531,67.091,117.445,67.437,117.445,68.344z M105.606,64.95l-2.981,6.352   c-0.173,0.39,0,0.475,0.346,0.475h5.185c0.605,0,0.562-0.173,0.432-0.519l-2.549-6.308   C105.908,64.604,105.779,64.604,105.606,64.95z"/>
	<path fill="#438390" d="M205.242,67.177l0.086,1.599c0,0.173,0.043,0.433-0.215,0.433c-0.734,0,0.346-1.513-1.686-1.513h-2.852   c-0.778,0-0.778,0.043-0.778,0.95v10.111c0,1.685,1.599,1.037,1.599,1.642c0,0.043,0.043,0.216-0.173,0.216   c-0.476,0-1.036-0.043-1.599-0.043c-2.204,0-2.593,0.043-2.722,0.043c-0.173,0-0.217-0.043-0.217-0.259   c0-0.476,1.557-0.26,1.557-1.469V68.603c0-0.13,0.043-0.907-0.26-0.907h-4.105c-1.209,0-1.166,0.433-1.166,1.123   c0,0.217,0.173,1.081-0.216,1.081c-0.216,0-0.346-0.433-0.432-0.605c-0.605-1.685-1.988-2.29-3.717-2.29   c-1.598,0-3.24,0.778-3.24,2.593c0,3.716,8.037,1.556,8.037,7c0,1.685-1.167,4.19-5.66,4.19c-1.469,0-3.284-0.734-3.371-1.123   l-0.475-2.55c-0.087-0.389,0-0.604,0.216-0.604c0.259,0,0.259,0.26,0.389,0.648c0.216,0.907,1.427,2.981,4.148,2.981   c1.901,0,3.715-1.037,3.715-3.154c0-3.803-8.036-1.686-8.036-6.827c0-2.506,2.117-3.716,4.407-3.716   c2.377,0,3.024,0.691,3.327,0.691c0.302,0,0.346-0.519,0.735-0.519c1.555,0,3.759,0.087,6.308,0.087c3.586,0,5.4-0.087,5.789-0.087   C205.113,66.615,205.199,66.745,205.242,67.177z"/>
	<path fill="#438390" d="M220.067,61.792c4.933,0,6.297,2.021,7.058,2.021c0.209,0,0.367-0.262,0.629-0.262   c0.289,0,0.289,0.418,0.368,2.124c0.053,1.391,0.288,2.256-0.158,2.256c-0.314,0-0.499-0.682-0.603-0.865   c-1.627-2.808-3.49-4.513-6.874-4.513c-5.116,0-7.582,3.41-7.582,8.291c0,4.564,2.623,9.131,7.66,9.131   c4.119,0,6.69-2.624,7.084-3.831c0.053-0.185,0.21-0.341,0.367-0.341c0.131,0,0.263,0.156,0.236,0.288l-0.604,2.624   c-0.026,0.104-1.889,2.072-7.792,2.072c-5.379,0-9.236-3.7-9.236-9.13C210.621,66.227,214.53,61.792,220.067,61.792z"/>
</g>
<g>
	<path fill="#438390" d="M207.105,63.762c0.47,0,0.868,0.165,1.197,0.494c0.331,0.331,0.495,0.73,0.495,1.199   s-0.164,0.867-0.496,1.198c-0.33,0.329-0.729,0.494-1.196,0.494c-0.524,0-0.954-0.198-1.289-0.596   c-0.269-0.323-0.404-0.688-0.404-1.097c0-0.417,0.133-0.783,0.402-1.1C206.152,63.959,206.584,63.762,207.105,63.762z    M207.105,63.948c-0.416,0-0.771,0.147-1.065,0.442c-0.294,0.295-0.44,0.649-0.44,1.064c0,0.417,0.146,0.772,0.44,1.066   c0.295,0.296,0.649,0.441,1.065,0.441c0.415,0,0.77-0.146,1.063-0.441c0.293-0.294,0.442-0.649,0.442-1.066   s-0.148-0.771-0.44-1.065C207.877,64.096,207.521,63.948,207.105,63.948z M207.319,65.45l0.377,0.553l0.046,0.066   c0.119,0.172,0.225,0.26,0.32,0.266l0.044,0.002c0.03,0.001,0.046,0.015,0.043,0.042c-0.003,0.046-0.077,0.069-0.222,0.069   c-0.168,0-0.317-0.1-0.452-0.302l-0.354-0.532l-0.019-0.03c-0.02-0.032-0.051-0.049-0.095-0.049h-0.189l-0.021,0.003l-0.006,0.028   v0.493c0,0.109,0.014,0.182,0.042,0.216c0.03,0.033,0.097,0.057,0.2,0.067c0.046,0.006,0.07,0.022,0.072,0.052   c0.001,0.032-0.021,0.047-0.068,0.047c-0.014,0-0.043-0.002-0.086-0.008c-0.038-0.003-0.097-0.006-0.18-0.006h-0.214   c-0.026,0-0.066,0.003-0.117,0.01c-0.036,0.004-0.061,0.004-0.072,0.004c-0.041,0-0.062-0.016-0.062-0.047   c0-0.024,0.018-0.041,0.053-0.048c0.073-0.018,0.12-0.05,0.14-0.097c0.02-0.046,0.029-0.147,0.029-0.303v-1.003l-0.002-0.146   c0-0.135-0.047-0.21-0.143-0.224l-0.065-0.009c-0.042-0.009-0.062-0.027-0.062-0.056c0-0.03,0.022-0.046,0.067-0.046   c0.01,0,0.044,0.002,0.101,0.007c0.03,0.001,0.072,0.002,0.125,0.002c0.046,0,0.119-0.003,0.221-0.009   c0.078-0.006,0.144-0.008,0.201-0.008c0.453,0,0.681,0.167,0.681,0.501C207.653,65.167,207.541,65.332,207.319,65.45z    M206.871,65.39h0.158c0.248,0,0.374-0.12,0.374-0.362c0-0.123-0.048-0.225-0.141-0.306c-0.093-0.082-0.206-0.124-0.344-0.124   c-0.086,0-0.13,0.034-0.13,0.104l0.004,0.047v0.562c0,0.037,0.002,0.061,0.01,0.067C206.812,65.386,206.834,65.39,206.871,65.39z"/>
</g>
<g>
	<path fill="#438390" d="M82.356,69.255c0.557,0,1.032,0.196,1.424,0.589s0.588,0.867,0.588,1.425c0,0.557-0.196,1.03-0.589,1.422   c-0.393,0.393-0.867,0.589-1.422,0.589c-0.624,0-1.134-0.235-1.531-0.709c-0.321-0.382-0.481-0.815-0.481-1.302   c0-0.495,0.16-0.93,0.479-1.307C81.226,69.49,81.736,69.255,82.356,69.255z M82.356,69.478c-0.494,0-0.916,0.176-1.265,0.526   c-0.349,0.349-0.524,0.771-0.524,1.265c0,0.495,0.175,0.917,0.524,1.268c0.35,0.349,0.771,0.523,1.265,0.523   s0.915-0.175,1.265-0.523c0.349-0.351,0.524-0.772,0.524-1.268s-0.175-0.918-0.523-1.267   C83.274,69.653,82.852,69.478,82.356,69.478z M82.61,71.262l0.449,0.656l0.056,0.08c0.14,0.204,0.267,0.31,0.379,0.315l0.053,0.002   c0.036,0.003,0.052,0.019,0.051,0.05c-0.004,0.056-0.092,0.083-0.264,0.083c-0.198,0-0.377-0.119-0.536-0.358l-0.42-0.633   l-0.023-0.037c-0.022-0.037-0.06-0.057-0.112-0.057h-0.225l-0.025,0.004L81.984,71.4v0.587c0,0.13,0.017,0.215,0.052,0.256   c0.035,0.04,0.114,0.067,0.236,0.081c0.055,0.005,0.083,0.025,0.085,0.061c0.002,0.037-0.024,0.056-0.08,0.056   c-0.017,0-0.051-0.003-0.103-0.008c-0.043-0.007-0.115-0.009-0.213-0.009h-0.253c-0.033,0-0.079,0.003-0.14,0.012   c-0.044,0.003-0.072,0.005-0.085,0.005c-0.049,0-0.074-0.019-0.074-0.056c0-0.029,0.021-0.049,0.062-0.058   c0.087-0.021,0.143-0.059,0.167-0.114c0.023-0.056,0.035-0.176,0.035-0.36v-1.191l-0.003-0.173c0-0.16-0.056-0.249-0.168-0.266   l-0.08-0.011c-0.049-0.011-0.074-0.031-0.074-0.065c0-0.037,0.026-0.056,0.079-0.056c0.013,0,0.054,0.003,0.121,0.008   c0.036,0.003,0.085,0.003,0.149,0.003c0.053,0,0.14-0.004,0.262-0.011c0.092-0.006,0.172-0.008,0.239-0.008   c0.539,0,0.809,0.197,0.809,0.594C83.008,70.927,82.875,71.121,82.61,71.262z M82.078,71.19h0.188c0.296,0,0.444-0.144,0.444-0.431   c0-0.146-0.055-0.267-0.166-0.364c-0.11-0.097-0.246-0.146-0.408-0.146c-0.103,0-0.155,0.041-0.155,0.123l0.003,0.056v0.667   c0,0.046,0.004,0.072,0.013,0.081C82.007,71.185,82.034,71.19,82.078,71.19z"/>
</g>
</svg>