<?xml version="1.0" encoding="utf-8"?>
<!-- Generator: Adobe Illustrator 16.0.3, SVG Export Plug-In . SVG Version: 6.00 Build 0)  -->
<!DOCTYPE svg PUBLIC "-//W3C//DTD SVG 1.1//EN" "http://www.w3.org/Graphics/SVG/1.1/DTD/svg11.dtd">
<svg version="1.1" id="Layer_1" xmlns="http://www.w3.org/2000/svg" xmlns:xlink="http://www.w3.org/1999/xlink" x="0px" y="0px"
	 width="245px" height="51px" viewBox="0 0 245 51" enable-background="new 0 0 245 51" xml:space="preserve">
<g>
	<path fill="#438390" d="M119.828,26.682v-1.32h1.874v-0.125c0-1.322-0.609-2.29-4.81-1.563l-6.906,1.23l-3.975,5.512l9.537-1.69
		c2.857-0.491,5.366-0.593,6.154,1.679v-3.723H119.828z"/>
	<path fill="#438390" d="M123.005,30.403c0-1.797,1.062-3.033,3.231-5.2l1.528-1.529l6.984,1.23l3.981,5.506l-9.158-1.58
		C126.466,28.234,123.834,28.025,123.005,30.403"/>
	<path fill="#438390" d="M123.393,25.358c0.691-1.485,2.165-2.827,3.012-3.674l0.604-0.612c2.564-2.565,3.059-3.626,3.213-5.392
		c0.008-0.093,0.14,0.345,0.18,0.656c0.132,1.041,0.055,1.796-0.299,2.839c-0.529,1.557-1.781,2.798-3.406,4.423l-1.768,1.76
		H123.393z"/>
	<path fill="#438390" d="M124.881,3.851c0-0.014,0.045-0.022,0.045,0v2.046c0,1.85-2.38,3.984-3.327,4.925l-3.483,3.493
		c-1.204,1.204-3.615,3.582-2.603,5.876c0.034,0.076,0.065,0.142-0.064,0.051c-0.257-0.183-0.648-0.825-0.752-1.999
		c-0.185-2.091,1.241-3.964,2.999-5.723l3.323-3.327C124.389,5.824,124.718,5.23,124.881,3.851"/>
	<path fill="#438390" d="M121.599,14.323c0.946-0.941,3.326-3.075,3.326-4.925V7.352c0-0.021-0.043-0.014-0.043,0
		c-0.164,1.379-0.493,1.973-3.863,5.343l-3.087,3.091c-1.121,1.122-2.149,2.297-2.102,4.195c0.029,1.163,0.614,2.127,1.494,2.354
		c0.362,0.078,0.34,0.031,0.253-0.006c-1.242-0.587-1.153-2.831,0.856-4.84L121.599,14.323z"/>
	<path fill="#438390" d="M117.725,11.229c-2.565,2.565-3.058,3.626-3.214,5.392c-0.007,0.092-0.139-0.346-0.178-0.656
		c-0.133-1.041-0.057-1.796,0.297-2.839c0.529-1.557,1.782-2.798,3.407-4.423l2.982-2.987c3.37-3.37,3.699-3.964,3.863-5.342
		c0-0.014,0.043-0.022,0.043,0v2.045c0,1.85-2.378,3.984-3.326,4.925L117.725,11.229z"/>
	<path fill="#438390" d="M123.05,28.714c-0.002,0.016-0.045,0.016-0.045,0v-2.033h0.852C123.376,27.371,123.13,28.038,123.05,28.714
		"/>
	<path fill="#438390" d="M123.056,25.361c-0.002,0.016-0.045,0.016-0.045,0v-2.07c0-1.554,1.524-3.235,3.035-4.736l0.98-0.979
		c0.79-0.791,3.205-3.173,2.193-5.467c-0.034-0.076-0.065-0.142,0.063-0.05c0.257,0.182,0.648,0.824,0.752,1.998
		c0.186,2.091-1.239,3.964-2.999,5.723l-0.905,0.91C123.946,22.875,123.22,23.854,123.056,25.361"/>
	<path fill="#438390" d="M123.054,21.772c-0.002,0.016-0.045,0.016-0.045,0v-2.101c0-1.482,1.471-3.082,2.185-3.796l1.105-1.103
		c2.01-2.009,2.1-4.253,0.855-4.84c-0.086-0.037-0.108-0.084,0.254-0.006c0.88,0.227,1.465,1.191,1.494,2.354
		c0.047,1.898-0.964,3.066-2.086,4.188l-0.896,0.896C124.044,19.24,123.224,20.336,123.054,21.772"/>
	<path fill="#438390" d="M193.424,41.387c-0.016-1.045-1.245-0.759-1.245-1.073c0-0.129,0.113-0.157,0.229-0.157
		c0.529,0,1.045,0.058,1.574,0.058c0.443,0,0.887-0.058,1.331-0.058c0.243,0,0.271,0.086,0.271,0.143
		c0,0.286-1.029,0.015-1.029,1.088v3.091c0,0.2,0,0.257,0.214,0.257h5.237c0.143,0,0.113-0.356,0.113-0.414v-2.934
		c0-0.986-1.072-0.744-1.072-1.073c0-0.086,0.028-0.157,0.243-0.157c0.473,0,1.217,0.058,1.487,0.058
		c0.53,0,0.745-0.058,1.031-0.058c0.372,0,0.4,0.143,0.4,0.229c0,0.258-0.959,0.016-0.959,1.002v7.584
		c0,1.044,1.303,0.786,1.303,1.145c0,0.043-0.058,0.172-0.158,0.172c-0.386,0-0.829-0.059-1.344-0.059
		c-0.916,0-1.317,0.059-1.588,0.059c-0.131,0-0.345,0.043-0.345-0.187c0-0.344,1.001-0.144,1.001-1.045v-3.434
		c0-0.229,0.059-0.357-0.113-0.357h-5.28c-0.171,0-0.171,0.085-0.171,0.242v3.564c0,0.973,1.358,0.657,1.358,1.102
		c0,0.07-0.101,0.114-0.229,0.114c-0.188,0-1.231-0.059-1.99-0.059c-1.015,0-1.172,0.059-1.229,0.059
		c-0.114,0-0.158-0.072-0.158-0.215c0-0.415,1.117,0.057,1.117-1.359V41.387z"/>
	<path fill="#438390" d="M205.354,46.467c0,2.288,1.488,3.333,3.42,3.333c2.69,0,3.305-1.774,3.305-3.462v-4.636
		c0-1.459-1.33-0.858-1.33-1.403c0-0.071,0.101-0.144,0.144-0.144c0.558,0,1.116,0.059,1.674,0.059c0.272,0,0.529-0.059,0.787-0.059
		c0.072,0,0.186,0.072,0.186,0.158c0,0.401-0.844,0.086-0.844,1.402v4.436c0,0.701,0.171,4.235-3.992,4.235
		c-3.763,0-4.479-2.104-4.479-4.307v-4.822c0-0.844-1.159-0.501-1.159-0.959c0-0.099,0.243-0.144,0.315-0.144
		c0.37,0,0.729,0.059,1.115,0.059c0.458,0,0.916-0.059,1.36-0.059c0.07,0,0.457-0.027,0.457,0.144c0,0.401-0.959,0-0.959,1.031
		V46.467z"/>
	<path fill="#438390" d="M216.743,44.793c0,0.271,0.888,0.199,1.561,0.199c0.615,0,1.989-0.258,1.989-2.031
		c0-1.746-1.331-2.333-2.733-2.333c-0.515,0-0.816-0.027-0.816,0.53V44.793z M221.951,48.728c1.031,1.573,1.732,1.044,1.732,1.388
		c0,0.172-0.801,0.172-0.93,0.172c-1.045,0-1.604-0.729-2.146-1.546l-1.589-2.504c-0.515-0.801-0.3-0.758-1.903-0.758
		c-0.458,0-0.372,0.258-0.372,0.4v3.02c0,1.229,1.488,0.787,1.488,1.272c0,0.145-0.129,0.115-0.243,0.115
		c-0.129,0-0.458-0.058-1.646-0.058c-0.543,0-1.087,0.058-1.631,0.058c-0.085,0-0.144-0.072-0.144-0.158
		c0-0.357,1.045-0.157,1.045-1.245v-7.282c0-1.374-1.23-0.787-1.23-1.273c0-0.086,0.113-0.172,0.286-0.172
		c0.258,0,0.187,0.057,0.916,0.057c0.829,0,1.646-0.057,2.39-0.057c0.228,0,3.391-0.286,3.391,2.476
		c0,1.116-0.802,2.074-1.803,2.476L221.951,48.728z"/>
	<path fill="#438390" d="M228.714,40.027c2.689,0,3.435,1.103,3.85,1.103c0.114,0,0.2-0.145,0.343-0.145
		c0.157,0,0.157,0.229,0.2,1.159c0.029,0.759,0.157,1.231-0.086,1.231c-0.171,0-0.271-0.372-0.329-0.473
		c-0.886-1.53-1.902-2.462-3.749-2.462c-2.79,0-4.135,1.86-4.135,4.523c0,2.489,1.431,4.979,4.178,4.979
		c2.247,0,3.648-1.431,3.864-2.089c0.029-0.1,0.114-0.187,0.2-0.187c0.072,0,0.144,0.087,0.129,0.158l-0.329,1.431
		c-0.015,0.057-1.03,1.13-4.25,1.13c-2.933,0-5.037-2.017-5.037-4.979C223.562,42.445,225.695,40.027,228.714,40.027"/>
	<path fill="#438390" d="M235.386,41.387c-0.015-1.045-1.245-0.759-1.245-1.073c0-0.129,0.114-0.157,0.229-0.157
		c0.528,0,1.045,0.058,1.573,0.058c0.444,0,0.889-0.058,1.331-0.058c0.242,0,0.271,0.086,0.271,0.143
		c0,0.286-1.029,0.015-1.029,1.088v3.091c0,0.2,0,0.257,0.214,0.257h5.236c0.144,0,0.115-0.356,0.115-0.414v-2.934
		c0-0.986-1.073-0.744-1.073-1.073c0-0.086,0.027-0.157,0.244-0.157c0.472,0,1.215,0.058,1.487,0.058
		c0.529,0,0.743-0.058,1.029-0.058c0.373,0,0.402,0.143,0.402,0.229c0,0.258-0.959,0.016-0.959,1.002v7.584
		c0,1.044,1.302,0.786,1.302,1.145c0,0.043-0.057,0.172-0.157,0.172c-0.387,0-0.83-0.059-1.346-0.059
		c-0.916,0-1.316,0.059-1.588,0.059c-0.129,0-0.344,0.043-0.344-0.187c0-0.344,1.002-0.144,1.002-1.045v-3.434
		c0-0.229,0.058-0.357-0.115-0.357h-5.279c-0.171,0-0.171,0.085-0.171,0.242v3.564c0,0.973,1.358,0.657,1.358,1.102
		c0,0.07-0.101,0.114-0.229,0.114c-0.185,0-1.229-0.059-1.988-0.059c-1.016,0-1.174,0.059-1.23,0.059
		c-0.114,0-0.157-0.072-0.157-0.215c0-0.415,1.116,0.057,1.116-1.359V41.387z"/>
	<path fill="#438390" d="M73.251,49.951c2.059,0,3.981-1.098,3.981-4.438c0-3.203-2.105-4.987-4.85-5.033
		c-1.372,0-1.418,0.229-1.418,0.914v6.864c0,0.229-0.046,0.915,0.091,1.006C71.514,49.769,72.611,49.951,73.251,49.951
		 M68.859,40.16c0.458,0,0.87,0.045,1.281,0.045c0.961,0,1.876-0.045,3.111-0.045c2.563,0,5.079,1.922,5.079,4.575
		c0,3.295-1.556,5.582-5.582,5.582c-0.732,0-1.464-0.046-2.196-0.046c-0.092,0-1.51,0.046-1.602,0.046
		c-0.091,0-0.137-0.046-0.137-0.137c0-0.321,1.007,0.045,1.007-1.327v-7.183c0-1.466-1.144-1.008-1.144-1.374
		C68.677,40.205,68.769,40.16,68.859,40.16"/>
	<path fill="#438390" d="M83.958,45.696c0.321,0,0.321-0.092,0.229-0.274l-1.418-3.477c-0.046-0.184-0.138-0.184-0.229,0
		l-1.601,3.521c-0.092,0.184,0,0.229,0.182,0.229H83.958z M81.03,46.337c-0.274,0-0.549,0-0.686,0.321l-0.915,2.012
		c-0.046,0.092-0.138,0.321-0.138,0.503c0,1.007,1.053,0.55,1.053,0.916c0,0.274-0.229,0.229-0.412,0.229
		c-0.412,0-0.778-0.047-1.19-0.047c-0.412,0-0.777,0.047-1.144,0.047c-0.091,0-0.137-0.047-0.137-0.139
		c0-0.319,0.687-0.091,1.053-0.915l3.431-7.319c0.824-1.784,0.869-2.014,1.098-2.014c0.138,0,0.229,0.411,0.275,0.503l3.019,7.412
		c0.229,0.549,0.366,1.145,0.687,1.647c0.457,0.64,1.281,0.319,1.281,0.686c0,0.139-0.092,0.139-0.183,0.139
		c-0.595,0-1.19-0.047-1.785-0.047c-0.412,0-0.777,0.047-1.189,0.047c-0.046,0-0.32,0-0.32-0.139c0-0.366,0.869-0.183,0.869-0.731
		c0-0.32-0.275-1.007-0.412-1.373l-0.457-1.189c-0.138-0.319-0.229-0.549-0.641-0.549H81.03z"/>
	<path fill="#438390" d="M86.422,40.16c0.366,0,0.641,0.045,1.601,0.045c0.504,0,0.87-0.045,1.007-0.045
		c0.137,0,0.274,0,0.274,0.137c0,0.229-0.64,0.229-0.64,0.642c0,0.274,0.183,0.503,0.229,0.594l1.739,2.791
		c0.137,0.185,0.228,0.274,0.32,0.274c0.045,0,0.137-0.09,0.274-0.32l1.464-2.379c0.092-0.183,0.321-0.411,0.321-0.777
		c0-0.731-1.098-0.411-1.098-0.777c0-0.184,0.137-0.184,0.32-0.184c0.32,0,0.686,0.045,1.052,0.045c0.412,0,0.823-0.045,1.235-0.045
		c0.092,0,0.138,0.092,0.138,0.137c0,0.184-0.229,0.229-0.321,0.274c-0.411,0.229-0.594,0.642-0.823,1.007l-2.013,3.157
		c-0.229,0.32-0.32,0.412-0.32,0.641v3.522c0,1.236,1.143,0.824,1.143,1.282c0,0.137-0.091,0.137-0.32,0.137
		c-0.183,0-1.052-0.046-1.556-0.046c-0.64,0-1.189,0.046-1.326,0.046c-0.092,0-0.183,0-0.183-0.183c0-0.366,1.098,0,1.098-1.053
		v-3.478c0-0.274-0.229-0.549-0.321-0.732l-2.425-3.843c-0.366-0.595-1.052-0.412-1.052-0.686
		C86.239,40.252,86.285,40.16,86.422,40.16"/>
	<path fill="#438390" d="M155.353,40.19c0.532,0,1.031,0.062,1.562,0.062c0.468,0,0.906-0.062,1.343-0.062
		c0.219,0,0.281,0.03,0.281,0.125c0,0.343-1.03,0.03-1.03,1.093v7.684c0,1,1.249,0.657,1.249,1.094c0,0.094-0.031,0.125-0.281,0.125
		c-0.312,0-0.937-0.031-1.562-0.031c-0.875,0-1.156,0.031-1.375,0.031c-0.25,0-0.281-0.062-0.281-0.219
		c0-0.406,1.094,0.062,1.094-1.343v-7.341c0-1.031-1.155-0.75-1.155-1.062C155.197,40.221,155.228,40.19,155.353,40.19"/>
	<path fill="#438390" d="M30.93,44.827c1.51,0,1.098-1.145,1.464-1.145c0.137,0,0.137,0.138,0.137,0.274v1.419v1.145
		c0,0.137-0.045,0.183-0.137,0.183c-0.457,0,0.046-1.235-1.144-1.235H29.1c-0.32,0-0.274,0.229-0.274,0.458v2.607
		c0,0.869-0.092,1.235,1.097,1.235c3.34,0,3.844-1.51,4.027-1.51c0.091,0,0.091,0.138,0.091,0.183c0,0.503-0.366,1.007-0.732,1.373
		c-0.457,0.548-0.778,0.504-1.372,0.504c-1.098,0-2.197-0.093-3.295-0.047c-0.594,0-1.189,0.047-1.738,0.047
		c-0.137,0-0.229-0.047-0.229-0.138c0.046-0.184,0.183-0.139,0.641-0.366c0.365-0.184,0.411-0.595,0.411-1.281V41.99
		c0-0.64,0-1.327-0.778-1.464c-0.137,0-0.457-0.046-0.457-0.229c0-0.092,0.092-0.137,0.503-0.137c2.745,0,3.477,0.045,4.072,0.045
		c0.275,0,1.602-0.045,2.059-0.045c0.137,0,0.137,0.137,0.137,0.275c0,1.601-0.182,1.738-0.274,1.738
		c-0.366,0-0.092-0.687-0.366-1.008c-0.366-0.503-1.876-0.411-2.425-0.411c-1.372,0-1.372-0.046-1.372,0.915v2.653
		c0,0.504,0,0.504,0.549,0.504H30.93z"/>
	<path fill="#438390" d="M33.858,40.16c0.229,0,0.458,0.045,0.686,0.045c0.183,0,0.412-0.045,0.641-0.045
		c0.183,0,0.274,0.229,0.366,0.32l6.863,7.641c0.091,0.093,0.137,0.138,0.183,0.138s0.046-0.045,0.046-0.138v-6.039
		c0-1.877-1.602-1.327-1.602-1.785c0-0.092,0.092-0.137,0.183-0.137c0.412,0,0.824,0.045,1.281,0.045
		c0.504,0,1.098-0.045,1.465-0.045c0.091,0,0.137,0.045,0.137,0.092c0,0.411-0.87,0.138-0.87,1.189v8.327
		c0,0.412,0,0.594-0.091,0.594c-0.137,0-0.274-0.045-0.549-0.365l-6.177-7.001c-0.046,0-0.229-0.273-0.32-0.273
		c-0.046,0-0.092,0.046-0.092,0.366v5.855c0,1.327,1.236,0.824,1.236,1.19c0,0.091,0,0.183-0.137,0.183
		c-0.367,0-0.733-0.046-1.465-0.046c-0.503,0-1.235,0.046-1.326,0.046c-0.183,0-0.183-0.092-0.183-0.137
		c0-0.504,1.235,0.137,1.235-1.922v-5.308c0-2.974-1.739-2.15-1.739-2.654C33.629,40.205,33.768,40.16,33.858,40.16"/>
	<path fill="#438390" d="M45.663,40.938c-0.915,0-0.915,0.229-1.19,1.006c-0.045,0.138-0.045,0.321-0.228,0.321
		c-0.092,0-0.137-0.092-0.137-0.184l0.137-1.372c0.046-0.184,0-0.55,0.274-0.55c1.098,0,2.242,0.045,4.072,0.045
		c2.608,0,3.935-0.045,4.21-0.045c0.32,0,0.366,0.045,0.411,0.411l0.092,1.145c0,0.137,0,0.319-0.183,0.319
		c-0.503,0,0.275-1.097-1.19-1.097h-2.059c-0.64,0-0.594-0.047-0.594,0.687v7.365c0,1.189,1.189,0.732,1.189,1.145
		c0,0.045,0,0.183-0.137,0.183c-0.366,0-0.778-0.046-1.19-0.046c-1.601,0-1.876,0.046-1.967,0.046c-0.137,0-0.183-0.046-0.183-0.183
		c0-0.366,1.144-0.184,1.144-1.053v-7.504c0-0.091,0.091-0.64-0.138-0.64H45.663z"/>
	<path fill="#438390" d="M53.258,40.16c0.549,0,1.052,0.045,1.601,0.045c0.458,0,0.916-0.045,1.327-0.045
		c0.275,0,0.275,0.045,0.275,0.137c0,0.274-1.007,0-1.007,1.098v3.113c0,0.182,0,0.228,0.184,0.228h5.261
		c0.183,0,0.137-0.366,0.137-0.412v-2.929c0-1.005-1.098-0.777-1.098-1.098c0-0.092,0.046-0.137,0.275-0.137
		c0.457,0,1.189,0.045,1.464,0.045c0.549,0,0.778-0.045,1.052-0.045c0.366,0,0.412,0.137,0.412,0.229c0,0.228-0.961,0-0.961,1.005
		v7.596c0,1.053,1.281,0.778,1.281,1.145c0,0.046-0.046,0.183-0.137,0.183c-0.412,0-0.824-0.046-1.373-0.046
		c-0.915,0-1.327,0.046-1.601,0.046c-0.092,0-0.32,0.045-0.32-0.183c0-0.366,1.006-0.138,1.006-1.053V45.65
		c0-0.229,0.046-0.366-0.137-0.366h-5.308c-0.137,0-0.137,0.092-0.137,0.229v3.568c0,1.007,1.327,0.687,1.327,1.144
		c0,0.046-0.091,0.092-0.229,0.092c-0.182,0-1.235-0.046-1.967-0.046c-1.052,0-1.189,0.046-1.235,0.046
		c-0.138,0-0.183-0.046-0.183-0.229c0-0.412,1.143,0.092,1.143-1.327v-7.367c0-1.051-1.281-0.777-1.281-1.098
		C53.029,40.16,53.167,40.16,53.258,40.16"/>
	<path fill="#438390" d="M68.219,45.193c0,0.686,0.046,0.686-0.503,0.869l-2.929,1.006c-0.274,0.093-0.503,0.229-0.64,0.229
		c-0.229,0-0.183-0.274-0.183-0.412c0-0.732-0.046-0.732,0.503-0.916l2.928-1.006c0.229-0.092,0.504-0.228,0.641-0.228
		C68.265,44.736,68.219,45.056,68.219,45.193"/>
	<path fill="#438390" d="M132.676,44.845c1.499,0,1.125-1.156,1.468-1.156c0.094,0,0.156,0.157,0.156,0.281
		c0,0.5-0.031,0.969-0.031,1.437c0,0.375,0.031,0.749,0.031,1.125c0,0.125-0.062,0.187-0.156,0.187
		c-0.437,0,0.031-1.248-1.155-1.248h-2.124c-0.312,0-0.25,0.248-0.25,0.468v2.624c0,0.843-0.125,1.187,1.062,1.187
		c3.311,0,3.811-1.468,3.998-1.468c0.093,0,0.093,0.125,0.093,0.156c0,0.53-0.374,1.03-0.686,1.405
		c-0.469,0.499-0.782,0.469-1.407,0.469c-1.093,0-2.186-0.062-3.279-0.031c-0.562,0-1.155,0.031-1.75,0.031
		c-0.124,0-0.219-0.031-0.219-0.124c0.032-0.188,0.188-0.157,0.626-0.376c0.374-0.188,0.406-0.562,0.406-1.249v-6.528
		c0-0.656,0-1.343-0.75-1.438c-0.125-0.031-0.438-0.062-0.438-0.249c0-0.095,0.094-0.156,0.499-0.156
		c2.688,0,3.437,0.062,4.062,0.062c0.281,0,1.593-0.062,2.03-0.062c0.125,0,0.156,0.125,0.156,0.312
		c0,1.594-0.219,1.687-0.281,1.687c-0.344,0-0.124-0.687-0.344-0.999c-0.375-0.499-1.874-0.406-2.436-0.406
		c-1.375,0-1.344-0.062-1.344,0.906v2.655c0,0.5-0.031,0.5,0.531,0.5H132.676z"/>
	<path fill="#438390" d="M135.831,40.19c0.249,0,0.468,0.062,0.687,0.062c0.22,0,0.438-0.062,0.656-0.062
		c0.156,0,0.281,0.219,0.375,0.312l6.841,7.621c0.062,0.094,0.125,0.156,0.155,0.156c0.032,0,0.063-0.062,0.063-0.156v-5.997
		c0-1.874-1.594-1.312-1.594-1.812c0-0.095,0.063-0.125,0.156-0.125c0.407,0,0.844,0.062,1.28,0.062c0.5,0,1.125-0.062,1.469-0.062
		c0.062,0,0.125,0.03,0.125,0.125c0,0.375-0.844,0.123-0.844,1.154v8.279c0,0.437,0,0.623-0.124,0.623
		c-0.096,0-0.25-0.062-0.532-0.405l-6.153-6.935c-0.03,0-0.219-0.25-0.312-0.25c-0.062,0-0.094,0.031-0.094,0.312v5.873
		c0,1.28,1.25,0.781,1.25,1.155c0,0.094,0,0.188-0.157,0.188c-0.343,0-0.749-0.031-1.437-0.031c-0.5,0-1.25,0.031-1.344,0.031
		c-0.187,0-0.187-0.062-0.187-0.156c0-0.5,1.249,0.125,1.249-1.874v-5.279c0-2.967-1.719-2.155-1.719-2.686
		C135.643,40.253,135.768,40.19,135.831,40.19"/>
	<path fill="#438390" d="M147.575,40.971c-0.906,0-0.937,0.219-1.187,1c-0.062,0.155-0.062,0.344-0.25,0.344
		c-0.094,0-0.124-0.126-0.124-0.188l0.154-1.374c0-0.188,0-0.562,0.25-0.562c1.125,0,2.219,0.062,4.062,0.062
		c2.592,0,3.904-0.062,4.185-0.062c0.346,0,0.407,0.093,0.438,0.405l0.062,1.156c0,0.124,0.031,0.312-0.154,0.312
		c-0.532,0,0.249-1.094-1.22-1.094h-2.061c-0.531,0-0.563,0.031-0.563,0.688v7.309c0,1.22,1.156,0.75,1.156,1.188
		c0,0.032,0.031,0.156-0.125,0.156c-0.344,0-0.75-0.031-1.156-0.031c-1.592,0-1.874,0.031-1.968,0.031
		c-0.124,0-0.156-0.031-0.156-0.188c0-0.344,1.125-0.188,1.125-1.062v-7.435c0-0.093,0.031-0.655-0.188-0.655H147.575z"/>
	<path fill="#438390" d="M22.146,49.723c-0.137,0.366-0.274,0.823-0.458,0.823c-0.228,0-0.412-0.594-0.549-0.914l-3.568-8.373
		c-0.366-0.87-1.098-0.595-1.098-0.915c0-0.138,0.091-0.183,0.228-0.183c0.412,0,0.87,0.045,1.327,0.045
		c0.366,0,0.915-0.045,1.098-0.045c0.092,0,0.229,0.045,0.229,0.136c0,0.184-0.595,0.184-0.595,0.732
		c0,0.183,0.092,0.412,0.138,0.55l2.516,5.947c0.32,0.731,0.412,1.053,0.549,1.053c0.137,0,0.183-0.229,0.274-0.366l2.517-6.177
		c0.092-0.229,0.229-0.687,0.183-1.007c0-0.641-0.915-0.365-0.915-0.686c0-0.138,0.091-0.183,0.229-0.183
		c0.32,0,0.64,0.045,0.915,0.045c0.732,0,0.915-0.045,1.143-0.045c0.138,0,0.229,0.045,0.229,0.183c0,0.32-0.411-0.047-0.823,0.915
		L22.146,49.723z"/>
	<path fill="#438390" d="M15.054,50.318c-1.098,0-2.196-0.093-3.294-0.047c-0.549,0-1.19,0.047-1.739,0.047
		c-0.137,0-0.229-0.047-0.229-0.139c0.046-0.183,0.183-0.137,0.641-0.366c0.366-0.183,0.412-0.594,0.412-1.28V41.99
		c0-0.641,0-1.326-0.778-1.464c-0.137,0-0.458-0.046-0.458-0.229c0-0.091,0.092-0.136,0.503-0.136c2.746,0,3.478,0.045,4.072,0.045
		c0.321,0,1.602-0.045,2.06-0.045c0.137,0,0.137,0.136,0.137,0.273c0,1.602-0.183,1.739-0.275,1.739
		c-0.366,0-0.091-0.687-0.366-1.008c-0.32-0.502-1.83-0.411-2.425-0.411c-1.372,0-1.326-0.046-1.326,0.915v2.654
		c0,0.503-0.046,0.503,0.503,0.503h1.555c1.51,0,1.144-1.145,1.465-1.145c0.137,0,0.182,0.139,0.182,0.275
		c0,0.504-0.045,0.961-0.045,1.418c0,0.367,0.045,0.777,0.045,1.144c0,0.139-0.091,0.185-0.182,0.185
		c-0.458,0,0.045-1.236-1.145-1.236h-2.15c-0.274,0-0.228,0.229-0.228,0.458v2.607c0,0.87-0.138,1.235,1.052,1.235
		c3.34,0,3.843-1.511,4.026-1.511c0.091,0,0.091,0.138,0.091,0.184c0,0.504-0.365,1.007-0.686,1.372
		C15.969,50.363,15.694,50.318,15.054,50.318"/>
	<path fill="#438390" d="M123.961,49.717c-0.156,0.375-0.25,0.844-0.469,0.844c-0.249,0-0.406-0.626-0.531-0.906l-3.531-8.371
		c-0.343-0.845-1.124-0.594-1.124-0.906c0-0.124,0.094-0.188,0.219-0.188c0.437,0,0.874,0.063,1.312,0.063
		c0.374,0,0.937-0.063,1.124-0.063c0.094,0,0.188,0.063,0.188,0.126c0.031,0.219-0.562,0.219-0.562,0.749
		c0,0.188,0.062,0.405,0.124,0.562l2.5,5.872c0.344,0.781,0.406,1.094,0.563,1.094c0.155,0,0.187-0.219,0.28-0.407l2.468-6.122
		c0.094-0.219,0.28-0.687,0.219-0.968c0-0.657-0.938-0.406-0.938-0.719c0-0.156,0.095-0.188,0.22-0.188
		c0.312,0,0.624,0.063,0.968,0.063c0.687,0,0.874-0.063,1.093-0.063c0.156,0,0.25,0.063,0.25,0.188c0,0.312-0.406-0.062-0.812,0.906
		L123.961,49.717z"/>
	<path fill="#438390" d="M0.779,49.402l-0.457-2.471c-0.092-0.366,0-0.595,0.183-0.595c0.274,0,0.274,0.229,0.365,0.64
		c0.229,0.87,1.373,2.883,4.027,2.883c1.83,0,3.614-1.006,3.614-3.019c0-3.707-7.778-1.648-7.778-6.635
		c0-2.424,2.059-3.615,4.255-3.615c2.334,0,2.929,0.687,3.203,0.687c0.183,0,0.229-0.229,0.412-0.229
		c0.137,0,0.229,0.092,0.229,0.275l0.274,2.607c0.046,0.182,0,0.32-0.183,0.32c-0.229,0-0.366-0.411-0.412-0.595
		c-0.549-1.647-1.967-2.471-3.66-2.471c-1.51,0-3.111,0.731-3.111,2.471c0,3.613,7.778,1.51,7.778,6.771
		c0,1.646-1.144,4.026-5.49,4.026C2.609,50.455,0.825,49.769,0.779,49.402"/>
	<path fill="#438390" d="M103.251,39.315l-2.155,4.592c-0.125,0.28,0,0.344,0.25,0.344h3.748c0.438,0,0.406-0.125,0.313-0.375
		l-1.843-4.561C103.47,39.065,103.376,39.065,103.251,39.315 M111.81,41.438v6.811c0,0.219-0.031,0.904,0.094,1.03
		c0.468,0.47,1.562,0.655,2.218,0.655c2.03,0,3.967-1.093,3.967-4.404c0-3.186-2.125-4.966-4.842-4.996
		C111.872,40.534,111.81,40.784,111.81,41.438 M111.435,50.278c-0.094,0-0.874,0.032-1.312,0.032c-0.781,0-1.249-0.032-1.874-0.032
		c-0.531,0-1.031,0.063-1.562,0.063c-0.093,0-0.406,0-0.406-0.188c0-0.468,1.125-0.28,1.125-1c0-0.404-0.375-1.279-0.563-1.779
		l-0.624-1.562c-0.188-0.438-0.281-0.718-0.812-0.718h-4.186c-0.375,0-0.719,0-0.906,0.405l-1.187,2.654
		c-0.062,0.125-0.156,0.406-0.156,0.656c0,1.312,1.343,0.75,1.343,1.25c0,0.343-0.25,0.281-0.5,0.281
		c-0.53,0-1.062-0.063-1.593-0.063c-0.499,0-1.03,0.063-1.53,0.063c-0.094,0-0.156-0.094-0.156-0.219
		c0-0.374,0.874-0.062,1.374-1.155l4.529-9.652c1.125-2.404,1.187-2.718,1.437-2.718c0.219,0,0.344,0.562,0.406,0.718l3.936,9.777
		c0.281,0.687,0.5,1.468,0.937,2.156c0.312,0.437,0.593,0.593,0.968,0.593c0.313,0,0.563-0.374,0.563-1V41.72
		c0-1.467-1.156-0.999-1.156-1.404c0-0.095,0.093-0.126,0.187-0.126c0.437,0,0.875,0.063,1.281,0.063
		c0.968,0,1.874-0.063,3.124-0.063c2.53,0,5.029,1.906,5.029,4.562c0,3.278-1.562,5.56-5.529,5.56
		C112.872,50.311,112.154,50.278,111.435,50.278"/>
	<path fill="#438390" d="M175.281,40.596l0.062,1.156c0,0.125,0.031,0.312-0.155,0.312c-0.531,0,0.249-1.093-1.218-1.093h-2.062
		c-0.562,0-0.562,0.031-0.562,0.688v7.31c0,1.218,1.154,0.749,1.154,1.187c0,0.031,0.032,0.156-0.124,0.156
		c-0.344,0-0.75-0.032-1.155-0.032c-1.595,0-1.874,0.032-1.969,0.032c-0.125,0-0.155-0.032-0.155-0.187
		c0-0.346,1.124-0.189,1.124-1.063v-7.434c0-0.095,0.03-0.656-0.188-0.656h-2.967c-0.875,0-0.844,0.312-0.844,0.812
		c0,0.157,0.125,0.781-0.156,0.781c-0.157,0-0.25-0.312-0.313-0.437c-0.436-1.219-1.436-1.656-2.686-1.656
		c-1.155,0-2.342,0.562-2.342,1.874c0,2.687,5.81,1.125,5.81,5.061c0,1.219-0.844,3.029-4.092,3.029
		c-1.062,0-2.374-0.53-2.438-0.811l-0.344-1.844c-0.062-0.28,0-0.438,0.157-0.438c0.187,0,0.187,0.188,0.281,0.469
		c0.155,0.656,1.03,2.155,2.999,2.155c1.374,0,2.686-0.749,2.686-2.28c0-2.749-5.81-1.218-5.81-4.935
		c0-1.812,1.529-2.688,3.186-2.688c1.718,0,2.188,0.5,2.405,0.5c0.219,0,0.25-0.375,0.532-0.375c1.123,0,2.716,0.063,4.559,0.063
		c2.593,0,3.905-0.063,4.186-0.063C175.188,40.189,175.25,40.283,175.281,40.596"/>
	<path fill="#438390" d="M185.999,36.703c3.566,0,4.552,1.46,5.103,1.46c0.151,0,0.265-0.188,0.454-0.188
		c0.209,0,0.209,0.303,0.267,1.535c0.038,1.007,0.208,1.632-0.114,1.632c-0.228,0-0.361-0.492-0.437-0.625
		c-1.176-2.03-2.522-3.264-4.969-3.264c-3.698,0-5.481,2.466-5.481,5.994c0,3.3,1.896,6.6,5.539,6.6c2.977,0,4.836-1.896,5.12-2.769
		c0.038-0.133,0.152-0.246,0.266-0.246c0.095,0,0.19,0.113,0.171,0.208l-0.437,1.897c-0.019,0.074-1.365,1.498-5.634,1.498
		c-3.888,0-6.676-2.675-6.676-6.602C179.171,39.909,181.997,36.703,185.999,36.703"/>
	<path fill="#438390" d="M139.229,27.283h0.147c0.23,0,0.347-0.11,0.347-0.335c0-0.113-0.044-0.208-0.13-0.284
		s-0.192-0.114-0.319-0.114c-0.08,0-0.12,0.032-0.12,0.096l0.003,0.043v0.521c0,0.035,0.003,0.056,0.011,0.062
		C139.174,27.28,139.194,27.283,139.229,27.283 M139.645,27.341l0.351,0.512l0.043,0.062c0.109,0.159,0.209,0.241,0.297,0.246
		l0.041,0.002c0.028,0.002,0.041,0.014,0.04,0.038c-0.003,0.044-0.072,0.065-0.206,0.065c-0.155,0-0.295-0.094-0.419-0.28
		l-0.328-0.494l-0.019-0.028c-0.017-0.029-0.047-0.044-0.087-0.044h-0.176l-0.02,0.002l-0.006,0.026v0.457
		c0,0.103,0.014,0.168,0.041,0.201c0.026,0.031,0.089,0.052,0.185,0.062c0.043,0.005,0.065,0.02,0.066,0.048
		c0.002,0.03-0.02,0.044-0.062,0.044c-0.014,0-0.04-0.002-0.081-0.007c-0.034-0.004-0.089-0.006-0.166-0.006h-0.198
		c-0.024,0-0.062,0.002-0.108,0.008c-0.034,0.003-0.057,0.005-0.066,0.005c-0.039,0-0.058-0.015-0.058-0.044
		c0-0.023,0.016-0.037,0.049-0.045c0.068-0.017,0.111-0.045,0.129-0.089c0.02-0.043,0.029-0.138,0.029-0.282v-0.93l-0.003-0.136
		c0-0.125-0.044-0.193-0.132-0.207l-0.062-0.009c-0.038-0.007-0.057-0.023-0.057-0.051c0-0.028,0.02-0.043,0.061-0.043
		c0.01,0,0.042,0.002,0.094,0.007c0.028,0.001,0.068,0.002,0.117,0.002c0.041,0,0.109-0.003,0.204-0.009
		c0.072-0.004,0.134-0.006,0.188-0.006c0.42,0,0.631,0.153,0.631,0.464C139.956,27.079,139.852,27.23,139.645,27.341
		 M139.447,25.948c-0.387,0-0.716,0.136-0.988,0.409c-0.273,0.274-0.409,0.604-0.409,0.989c0,0.386,0.136,0.716,0.409,0.989
		c0.272,0.272,0.602,0.41,0.988,0.41c0.385,0,0.714-0.138,0.986-0.41c0.273-0.273,0.41-0.604,0.41-0.989
		c0-0.387-0.137-0.717-0.409-0.989C140.163,26.084,139.833,25.948,139.447,25.948 M139.447,25.774c0.435,0,0.805,0.153,1.11,0.458
		c0.307,0.308,0.46,0.677,0.46,1.113c0,0.434-0.153,0.804-0.46,1.11s-0.677,0.46-1.11,0.46c-0.487,0-0.886-0.186-1.195-0.555
		c-0.251-0.298-0.376-0.637-0.376-1.016c0-0.387,0.124-0.728,0.373-1.021C138.562,25.958,138.963,25.774,139.447,25.774"/>
	<path fill="#438390" d="M176.559,38.799h0.146c0.232,0,0.348-0.112,0.348-0.336c0-0.113-0.043-0.208-0.131-0.285
		c-0.086-0.075-0.191-0.113-0.318-0.113c-0.079,0-0.12,0.032-0.12,0.097l0.002,0.043v0.521c0,0.035,0.004,0.056,0.011,0.063
		C176.502,38.795,176.523,38.799,176.559,38.799 M176.974,38.854l0.351,0.512l0.043,0.063c0.11,0.16,0.209,0.241,0.296,0.246
		l0.041,0.003c0.028,0.001,0.042,0.014,0.04,0.038c-0.003,0.043-0.071,0.064-0.206,0.064c-0.154,0-0.294-0.094-0.418-0.28
		l-0.329-0.494l-0.017-0.028c-0.019-0.029-0.048-0.044-0.087-0.044h-0.176l-0.021,0.002l-0.007,0.026v0.458
		c0,0.101,0.014,0.168,0.042,0.2c0.026,0.031,0.088,0.053,0.184,0.062c0.043,0.005,0.065,0.021,0.066,0.048
		c0.002,0.029-0.02,0.044-0.062,0.044c-0.014,0-0.039-0.003-0.08-0.008c-0.034-0.004-0.09-0.005-0.166-0.005h-0.199
		c-0.025,0-0.062,0.003-0.108,0.008c-0.035,0.003-0.057,0.005-0.066,0.005c-0.039,0-0.059-0.015-0.059-0.044
		c0-0.022,0.017-0.037,0.049-0.045c0.068-0.016,0.112-0.045,0.13-0.09c0.02-0.042,0.028-0.137,0.028-0.281v-0.93l-0.003-0.135
		c0-0.125-0.043-0.194-0.131-0.207l-0.063-0.01c-0.037-0.007-0.057-0.023-0.057-0.051s0.021-0.043,0.062-0.043
		c0.01,0,0.041,0.002,0.094,0.006c0.027,0.001,0.066,0.003,0.117,0.003c0.041,0,0.108-0.003,0.204-0.009
		c0.071-0.004,0.134-0.006,0.187-0.006c0.42,0,0.631,0.154,0.631,0.463C177.284,38.593,177.182,38.746,176.974,38.854
		 M176.775,37.463c-0.385,0-0.715,0.136-0.987,0.409s-0.41,0.603-0.41,0.988s0.138,0.716,0.41,0.989
		c0.272,0.272,0.603,0.41,0.987,0.41s0.715-0.138,0.988-0.41c0.271-0.273,0.408-0.604,0.408-0.989c0-0.388-0.136-0.717-0.408-0.988
		C177.492,37.599,177.161,37.463,176.775,37.463 M176.775,37.289c0.435,0,0.805,0.152,1.112,0.459
		c0.305,0.307,0.459,0.677,0.459,1.112c0,0.435-0.154,0.805-0.46,1.11c-0.308,0.306-0.678,0.46-1.111,0.46
		c-0.487,0-0.885-0.185-1.195-0.554c-0.25-0.299-0.376-0.638-0.376-1.017c0-0.388,0.125-0.727,0.374-1.021
		C175.893,37.472,176.291,37.289,176.775,37.289"/>
</g>
</svg>
