<svg xmlns="http://www.w3.org/2000/svg" viewBox="0 0 877 177" width="292" height="60">
    <g fill="#438390" fill-rule="evenodd">
        <path d="M213.457 146.417c6.043 0 8.785-4.42 8.785-11.526 0-7.107-2.742-11.359-8.84-11.359-6.099 0-8.729 4.252-8.729 11.36 0 7.105 2.685 11.525 8.784 11.525m-.11 4.085c-7.948 0-13.766-5.65-13.766-15.61 0-9.905 5.315-15.5 13.933-15.5 8.113 0 13.82 5.595 13.82 15.5 0 9.96-5.428 15.61-13.988 15.61M244.342 124.092v25.851h-4.868v-25.85h-9.68l1.567-4.142h22.773v4.141zM270.692 135.115c0-11.078 5.986-15.723 14.044-15.723 3.021 0 6.155.728 7.945 1.623l-1.566 4.084c-1.79-.671-4.42-1.398-6.49-1.398-5.988 0-8.84 3.86-8.84 11.358 0 7.218 2.908 11.19 8.56 11.19 2.517 0 4.7-.56 6.658-1.453l1.51 3.916c-1.678 1.063-4.7 1.79-8.113 1.79-8 0-13.708-4.755-13.708-15.387M301.632 131.982h15.275c-.055-5.092-2.294-8.562-7.273-8.562-4.7 0-7.498 3.19-8.002 8.562m20.424.95v2.966h-20.535c.168 6.77 3.581 10.408 9.567 10.408 2.91 0 5.876-.56 8.226-1.455l1.398 3.693c-3.077 1.343-5.763 1.959-9.848 1.959-8.56 0-14.435-5.316-14.435-15.332 0-9.848 5.315-15.78 13.261-15.78 7.666 0 12.366 5.372 12.366 13.542M339.399 123.812c-.504 7.61-3.134 16.619-7.05 21.99h13.708v-21.99h-6.658zm11.415 21.99h4.364v14.548h-4.756v-10.407H329.55v10.407h-4.7v-14.548h2.406c5.148-7.106 7.665-16.618 7.778-25.85h15.779v25.85zM392.105 149.943h-4.421v-19.137c0-1.566.112-3.3.28-4.98h-.168l-9.792 24.117h-4.14l-9.513-24.116h-.167c.11 1.679.167 3.357.167 5.147v18.969h-4.42v-29.991h6.547l9.456 24.116 9.624-24.116h6.547v29.99zM405.195 138.248c0 1.398-.225 5.315-.337 6.826l16.06-25.123h6.043v29.991h-4.589v-17.68c0-1.736.112-5.932.223-7.387l-15.946 25.067h-6.099v-29.99h4.644v18.296zM445.198 133.94h7.05v-9.903h-8c-4.589 0-6.38 2.013-6.38 4.81 0 3.47 2.685 5.093 7.33 5.093zm-13.652 16.003l8.56-12.59c-3.525-.84-6.994-3.245-6.994-8.56 0-5.707 4.196-8.841 10.631-8.841h13.43v29.99h-4.925v-11.917h-7.274l-7.72 11.918h-5.708zM489.845 123.812c-.504 7.61-3.134 16.619-7.05 21.99h13.708v-21.99h-6.658zm11.415 21.99h4.364v14.548h-4.756v-10.407h-20.871v10.407h-4.7v-14.548h2.406c5.148-7.106 7.665-16.618 7.778-25.85h15.779v25.85zM513.902 131.982h15.275c-.055-5.092-2.293-8.562-7.274-8.562-4.7 0-7.498 3.19-8 8.562m20.422.95v2.966H513.79c.168 6.77 3.582 10.408 9.568 10.408 2.91 0 5.875-.56 8.226-1.455l1.399 3.693c-3.077 1.343-5.764 1.959-9.849 1.959-8.56 0-14.436-5.316-14.436-15.332 0-9.848 5.315-15.78 13.261-15.78 7.666 0 12.366 5.372 12.366 13.542M545.737 132.43h16.283V119.95h4.924v29.992h-4.924V136.57h-16.283v13.373h-4.924v-29.992h4.924z"/>
        <g>
            <path d="M236.79 100.462h-4.812v-10.52h-30.047v-39.95h5.036v35.474h19.975V49.991h4.98v35.532h4.868zM252.342 76.402v9.568h8.28c4.42 0 7.276-1.342 7.276-4.923 0-3.582-2.463-4.645-7.443-4.645h-8.113zm0-4.141h8.28c8.227 0 12.143 2.91 12.143 8.505 0 5.596-3.525 9.177-12.197 9.177h-13.15V64.092h-9.568l1.566-4.14h12.926V72.26zM284.345 73.94v.95c0 7.387 2.014 11.528 8.56 11.528 5.428 0 8.002-4.87 8.002-11.582 0-6.827-2.574-11.303-8.114-11.303-6.098 0-8.337 3.413-8.448 10.407m21.654.95c0 10.24-4.925 15.612-12.366 15.612-4.644 0-7.554-2.014-9.288-4.364h-.336c.11 1.287.336 3.526.336 4.924v12.31h-4.924v-43.42h4.028l.67 4.085h.226c1.79-2.575 4.476-4.645 9.344-4.645 7.385 0 12.31 5.148 12.31 15.499M335.82 59.952l-12.813 14.436 13.874 15.555h-5.706l-13.541-15.22v15.22h-4.923V59.952h4.923V74.5l12.814-14.548zM353.442 76.346h-7.33v9.624h7.441c4.924 0 7.61-1.287 7.61-4.812 0-3.414-2.686-4.812-7.72-4.812m.335-12.31h-7.665v8.225h6.77c4.868 0 7.442-1.287 7.442-4.14 0-2.798-1.958-4.085-6.547-4.085m5.54 9.96v.224c3.692.503 6.938 2.462 6.938 6.938 0 5.091-3.525 8.785-12.143 8.785h-12.925V59.951h12.87c6.379 0 11.246 1.847 11.246 7.554 0 3.75-2.463 5.764-5.987 6.49M385.11 75.45c-7.497.28-9.903 2.407-9.903 6.212 0 3.357 2.238 4.868 5.483 4.868 5.036 0 8.84-2.742 8.84-8.561v-2.686l-4.42.168zm9.289-5.93v20.423h-3.582l-.95-4.253h-.225c-2.63 3.302-5.036 4.813-10.072 4.813-5.428 0-9.456-2.798-9.456-8.897 0-5.987 4.588-9.29 14.38-9.568l5.092-.168v-1.79c0-4.981-2.294-6.66-6.21-6.66-3.133 0-5.987 1.12-8.45 2.295l-1.51-3.693c2.63-1.4 6.322-2.574 10.24-2.574 7.272 0 10.742 3.078 10.742 10.072zM420.916 72.43h16.282V59.95h4.924v29.992h-4.924V76.57h-16.282v13.373h-4.924V59.951h4.924zM463.325 75.45c-7.497.28-9.903 2.407-9.903 6.212 0 3.357 2.238 4.868 5.483 4.868 5.036 0 8.841-2.742 8.841-8.561v-2.686l-4.42.168zm9.29-5.93v20.423h-3.582l-.95-4.253h-.225c-2.63 3.302-5.036 4.813-10.072 4.813-5.428 0-9.456-2.798-9.456-8.897 0-5.987 4.588-9.29 14.38-9.568l5.092-.168v-1.79c0-4.981-2.294-6.66-6.21-6.66-3.134 0-5.988 1.12-8.45 2.295l-1.51-3.693c2.63-1.4 6.322-2.574 10.24-2.574 7.272 0 10.742 3.078 10.742 10.072zM507.02 75.45c-7.496.28-9.902 2.407-9.902 6.212 0 3.357 2.238 4.868 5.483 4.868 5.036 0 8.84-2.742 8.84-8.561v-2.686l-4.42.168zm9.29-5.93v20.423h-3.581l-.951-4.253h-.224c-2.63 3.302-5.036 4.813-10.072 4.813-5.428 0-9.456-2.798-9.456-8.897 0-5.987 4.588-9.29 14.38-9.568l5.092-.168v-1.79c0-4.981-2.294-6.66-6.211-6.66-3.133 0-5.987 1.12-8.45 2.295l-1.51-3.693c2.63-1.4 6.323-2.574 10.24-2.574 7.273 0 10.743 3.078 10.743 10.072zM535.331 63.812c-.504 7.61-3.134 16.619-7.05 21.99h13.708v-21.99h-6.658zm11.414 21.99h4.364v14.548h-4.756V89.943h-20.87v10.407h-4.7V85.802h2.405c5.148-7.106 7.666-16.618 7.778-25.85h15.78v25.85zM568.117 76.346h-7.33v9.624h7.441c4.924 0 7.61-1.287 7.61-4.812 0-3.414-2.686-4.812-7.72-4.812m.334-12.31h-7.665v8.225h6.77c4.868 0 7.442-1.287 7.442-4.14 0-2.798-1.958-4.085-6.547-4.085m5.54 9.96v.224c3.692.503 6.938 2.462 6.938 6.938 0 5.091-3.525 8.785-12.142 8.785h-12.925V59.951h12.87c6.378 0 11.245 1.847 11.245 7.554 0 3.75-2.462 5.764-5.986 6.49M590.496 71.982h15.275c-.055-5.092-2.294-8.562-7.273-8.562-4.7 0-7.498 3.19-8.002 8.562m20.424.95v2.966h-20.535c.168 6.77 3.581 10.408 9.567 10.408 2.91 0 5.876-.56 8.226-1.455l1.398 3.693c-3.077 1.343-5.763 1.959-9.848 1.959-8.56 0-14.435-5.316-14.435-15.332 0-9.848 5.315-15.78 13.261-15.78 7.666 0 12.366 5.372 12.366 13.542M622.332 72.43h16.282V59.95h4.924v29.992h-4.924V76.57h-16.282v13.373h-4.924V59.951h4.924zM662.839 64.092v25.851h-4.867v-25.85h-9.681l1.568-4.142h22.772v4.141zM682.085 78.248c0 1.398-.224 5.315-.336 6.826l16.06-25.123h6.043v29.991h-4.589v-17.68c0-1.736.112-5.932.223-7.387L683.54 89.942h-6.099v-29.99h4.644v18.296zM710.618 75.115c0-11.078 5.987-15.723 14.045-15.723 3.021 0 6.154.728 7.945 1.623l-1.567 4.084c-1.79-.671-4.42-1.398-6.49-1.398-5.988 0-8.84 3.86-8.84 11.358 0 7.218 2.91 11.19 8.56 11.19 2.518 0 4.7-.56 6.66-1.453l1.51 3.916c-1.679 1.063-4.7 1.79-8.114 1.79-8.002 0-13.709-4.755-13.709-15.387M748.944 64.092v25.851h-4.867v-25.85h-9.68l1.566-4.142h22.774v4.141zM768.19 78.248c0 1.398-.224 5.315-.335 6.826l16.059-25.123h6.043v29.991h-4.588v-17.68c0-1.736.11-5.932.223-7.387l-15.947 25.067h-6.1v-29.99h4.646v18.296zM809.313 64.092v25.851h-4.867v-25.85h-9.681l1.568-4.142h22.772v4.141zM826.881 71.982h15.275c-.056-5.092-2.294-8.562-7.274-8.562-4.7 0-7.498 3.19-8.001 8.562m20.423.95v2.966h-20.535c.168 6.77 3.581 10.408 9.568 10.408 2.909 0 5.875-.56 8.226-1.455l1.398 3.693c-3.077 1.343-5.764 1.959-9.848 1.959-8.561 0-14.436-5.316-14.436-15.332 0-9.848 5.315-15.78 13.261-15.78 7.666 0 12.366 5.372 12.366 13.542"/>
        </g>
        <path d="M853.848 49.488h1.119l1.287 3.47 1.287-3.47h1.119v4.42h-.783v-3.412h-.056l-1.231 3.413h-.672l-1.23-3.413h-.057v3.413h-.783v-4.421zm-2.573.672h-1.287v-.672h3.413v.672h-1.343v3.749h-.783v-3.75zM161.313 130.671h1.12l1.286 3.47 1.287-3.47h1.12v4.421h-.784v-3.414h-.056l-1.23 3.414h-.673l-1.23-3.414h-.057V135.092h-.783v-4.42zm-2.574.672h-1.287v-.672h3.413v.672h-1.343v3.75h-.783v-3.75zm-63.75 9.954c0 .541.62.543.732 0 .823-3.998 2.076-6.662 4.033-9.249l-4.4.002a.364.364 0 0 0-.365.364v8.883zm32.32-55.485c-.18-.585-.687-.623-.682-.01.05 5.778-1.612 10.744-12.16 21.293l-8.344 8.336c-3.797 3.797-7.21 7.265-9.229 10.73h8.24l.974-.975 11.97-11.982c9.97-9.969 11.36-20.514 9.231-27.392zm-11.187 35.25l-9.999 10.006c-6.052 6.053-11.134 11.268-11.134 16.971l.006 1.588c0 .431.536.5.701.048 1.868-5.106 8.112-10.556 19.564-8.624 0 0 49.89 8.621 50.31 8.658.487.043.728-.437.414-.81-.189-.225-23.22-23.255-23.22-23.255l-26.642-4.583zM80.03 132.047a.364.364 0 0 1-.364-.364v-5.162c0-.2.163-.364.364-.364l8.732.002a.364.364 0 0 0 .364-.364c-.023-4.637-3.519-7.788-17.523-5.35l-30.24 5.198s-23.032 23.03-23.22 23.254c-.315.374-.074.854.413.811.42-.037 50.31-8.658 50.31-8.658 11.452-1.932 17.696 3.518 19.564 8.624.165.451.702.383.702-.048l.001-17.215a.364.364 0 0 0-.364-.364H80.03zM66.09 59.896c-9.969 9.97-11.359 20.514-9.23 27.392.18.585.686.623.681.011-.05-5.779 1.612-10.746 12.161-21.294l22.74-22.733c6.052-6.053 11.134-11.268 11.134-16.97v-8.896c0-.54-.62-.543-.732 0-1.496 7.26-4.4 10.123-10.387 16.111L66.09 59.897zm37.508-17.973v-8.956c0-.54-.62-.543-.732 0-1.496 7.26-4.392 10.17-10.38 16.157L68.603 72.987c-11.59 11.59-13.596 22.808-7.7 30.016.392.48.815.192.558-.388-3.897-8.818 5.45-18.167 9.898-22.617l21.104-21.105c6.053-6.052 11.135-11.267 11.135-16.97zm-34.34 46.044c-11.59 11.592-6.26 22.787.5 25.868.593.271.828-.21.375-.604-5.422-4.696-3.776-12.597 3.042-19.414L92.44 74.552c6.053-6.052 11.134-11.267 11.134-16.97v-8.895c0-.54-.62-.543-.732 0-1.495 7.26-4.393 10.111-10.38 16.1l-23.203 23.18zm25.71 28.813v8.955c0 .541.62.543.731 0 1.496-7.259 4.392-10.168 10.38-16.156l9.486-9.466c11.591-11.59 13.596-22.808 7.701-30.016-.393-.48-.816-.193-.559.387 3.897 8.818-5.449 18.168-9.898 22.618l-6.707 6.707c-6.053 6.053-11.135 11.268-11.135 16.971zm11.137-22.863c-5.988 5.988-8.886 8.84-10.38 16.1-.113.542-.733.54-.733 0v-8.896c0-5.703 5.081-10.918 11.134-16.97l4.867-4.868c6.818-6.818 8.464-14.718 3.042-19.415-.453-.392-.218-.874.376-.603 6.76 3.081 12.09 14.276.5 25.867l-8.806 8.785z"/>
    </g>
</svg>
