<?xml version="1.0" encoding="UTF-8" standalone="no"?>
<!-- Generator: Adobe Illustrator 16.0.3, SVG Export Plug-In . SVG Version: 6.00 Build 0)  -->

<svg
   xmlns:dc="http://purl.org/dc/elements/1.1/"
   xmlns:cc="http://creativecommons.org/ns#"
   xmlns:rdf="http://www.w3.org/1999/02/22-rdf-syntax-ns#"
   xmlns:svg="http://www.w3.org/2000/svg"
   xmlns="http://www.w3.org/2000/svg"
   xmlns:sodipodi="http://sodipodi.sourceforge.net/DTD/sodipodi-0.dtd"
   xmlns:inkscape="http://www.inkscape.org/namespaces/inkscape"
   version="1.1"
   id="Layer_1"
   x="0px"
   y="0px"
   viewBox="0 0 240 60"
   enable-background="new 0 0 306 90"
   xml:space="preserve"
   inkscape:version="0.91 r13725"
   sodipodi:docname="sda-logo.svg"
   width="240"
   height="60"><metadata
     id="metadata89"><rdf:RDF><cc:Work
         rdf:about=""><dc:format>image/svg+xml</dc:format><dc:type
           rdf:resource="http://purl.org/dc/dcmitype/StillImage" /><dc:title></dc:title></cc:Work></rdf:RDF></metadata><defs
     id="defs87" /><sodipodi:namedview
     pagecolor="#ffffff"
     bordercolor="#666666"
     borderopacity="1"
     objecttolerance="10"
     gridtolerance="10"
     guidetolerance="10"
     inkscape:pageopacity="0"
     inkscape:pageshadow="2"
     inkscape:window-width="1920"
     inkscape:window-height="1139"
     id="namedview85"
     showgrid="false"
     inkscape:zoom="2.7082652"
     inkscape:cx="159.48956"
     inkscape:cy="-57.976285"
     inkscape:window-x="0"
     inkscape:window-y="0"
     inkscape:window-maximized="1"
     inkscape:current-layer="g25" /><g
     id="g3"
     transform="matrix(0.78397604,0,0,0.78397604,0.2483232,-4.9629706)"><path
       d="m 38.523,71.612 0,-3.189 4.528,0 0,-0.302 c 0,-3.194 -1.472,-5.534 -11.622,-3.776 L 14.739,67.318 5.136,80.64 28.181,76.552 c 6.905,-1.186 12.968,-1.433 14.871,4.058 l 0,-8.997 -4.529,0 z"
       id="path5"
       inkscape:connector-curvature="0"
       style="fill:#438390" /><path
       d="m 46.201,80.609 c 0,-4.347 2.568,-7.331 7.808,-12.571 l 3.692,-3.693 16.878,2.973 9.62,13.308 -22.13,-3.819 C 54.565,75.366 48.205,74.861 46.201,80.609 Z"
       id="path7"
       inkscape:connector-curvature="0"
       style="fill:#438390" /></g><g
     id="g9"
     transform="matrix(0.78397604,0,0,0.78397604,0.2483232,-4.9629706)"><path
       d="m 47.136,68.415 c 1.672,-3.587 5.232,-6.83 7.279,-8.878 l 1.457,-1.479 c 6.198,-6.198 7.389,-8.763 7.765,-13.031 0.017,-0.223 0.336,0.836 0.432,1.586 0.32,2.516 0.135,4.341 -0.72,6.859 -1.278,3.764 -4.304,6.763 -8.231,10.688 l -4.271,4.254 -3.711,0 z"
       id="path11"
       inkscape:connector-curvature="0"
       style="fill:#438390" /><path
       d="m 50.735,16.443 c 0,-0.033 0.104,-0.052 0.104,0 l 0,4.943 c 0,4.47 -5.745,9.628 -8.034,11.901 l -8.417,8.44 c -2.91,2.911 -8.736,8.656 -6.29,14.2 0.082,0.186 0.156,0.345 -0.155,0.123 -0.622,-0.441 -1.566,-1.994 -1.817,-4.829 -0.448,-5.054 2.998,-9.58 7.248,-13.83 l 8.029,-8.039 c 8.142,-8.143 8.936,-9.578 9.332,-12.909 z"
       id="path13"
       inkscape:connector-curvature="0"
       style="fill:#438390" /><path
       d="m 42.805,41.748 c 2.289,-2.274 8.034,-7.431 8.034,-11.902 l 0,-4.943 c 0,-0.052 -0.104,-0.034 -0.104,0 -0.396,3.332 -1.19,4.767 -9.333,12.91 l -7.458,7.47 c -2.71,2.709 -5.195,5.55 -5.081,10.137 0.071,2.811 1.484,5.14 3.61,5.688 0.875,0.188 0.821,0.074 0.613,-0.014 -3.002,-1.418 -2.787,-6.841 2.067,-11.695 l 7.652,-7.651 z"
       id="path15"
       inkscape:connector-curvature="0"
       style="fill:#438390" /><path
       d="m 33.442,34.271 c -6.198,6.197 -7.389,8.761 -7.765,13.03 -0.017,0.223 -0.336,-0.836 -0.432,-1.586 -0.32,-2.516 -0.135,-4.341 0.721,-6.859 1.278,-3.764 4.304,-6.763 8.231,-10.69 l 7.206,-7.217 c 8.143,-8.143 8.937,-9.578 9.333,-12.91 0,-0.033 0.104,-0.052 0.104,0 l 0,4.943 c 0,4.471 -5.745,9.628 -8.034,11.901 l -9.364,9.388 z"
       id="path17"
       inkscape:connector-curvature="0"
       style="fill:#438390" /><path
       d="m 46.307,76.526 c -0.005,0.037 -0.106,0.038 -0.106,0 l 0,-4.914 2.056,0 c -1.162,1.667 -1.756,3.279 -1.95,4.914 z"
       id="path19"
       inkscape:connector-curvature="0"
       style="fill:#438390" /><path
       d="m 46.322,68.423 c -0.004,0.037 -0.106,0.037 -0.106,0 l 0,-5.002 c 0,-3.757 3.683,-7.819 7.333,-11.444 l 2.368,-2.366 c 1.911,-1.91 7.746,-7.667 5.3,-13.211 -0.082,-0.184 -0.157,-0.343 0.155,-0.122 0.623,0.442 1.566,1.994 1.817,4.83 0.448,5.054 -2.998,9.579 -7.249,13.829 l -2.188,2.2 c -5.277,5.276 -7.033,7.641 -7.43,11.286 z"
       id="path21"
       inkscape:connector-curvature="0"
       style="fill:#438390" /><path
       d="m 46.316,59.749 c -0.005,0.037 -0.105,0.037 -0.105,0 l 0,-5.077 c 0,-3.582 3.552,-7.447 5.277,-9.172 l 2.672,-2.667 c 4.854,-4.855 5.07,-10.277 2.067,-11.695 -0.208,-0.088 -0.261,-0.203 0.613,-0.014 2.126,0.549 3.54,2.878 3.609,5.688 0.115,4.586 -2.329,7.409 -5.039,10.118 l -2.167,2.168 c -4.53,4.531 -6.514,7.18 -6.927,10.651 z"
       id="path23"
       inkscape:connector-curvature="0"
       style="fill:#438390" /></g><g
     id="g25"
     transform="translate(0,-30)"><g
       id="g27"
       transform="matrix(0.78397604,0,0,0.78397604,0.2483232,9.5994772)"><path
         d="m 230.337,68.271 c -0.021,-1.445 -1.722,-1.05 -1.722,-1.484 0,-0.179 0.158,-0.218 0.316,-0.218 0.732,0 1.444,0.078 2.177,0.078 0.613,0 1.229,-0.078 1.842,-0.078 0.336,0 0.376,0.117 0.376,0.198 0,0.396 -1.426,0.02 -1.426,1.504 l 0,4.275 c 0,0.276 0,0.355 0.297,0.355 l 7.244,0 c 0.197,0 0.158,-0.495 0.158,-0.574 l 0,-4.057 c 0,-1.366 -1.483,-1.03 -1.483,-1.484 0,-0.12 0.039,-0.218 0.336,-0.218 0.653,0 1.683,0.078 2.059,0.078 0.732,0 1.029,-0.078 1.426,-0.078 0.514,0 0.553,0.198 0.553,0.315 0,0.356 -1.326,0.021 -1.326,1.387 l 0,10.489 c 0,1.445 1.802,1.089 1.802,1.583 0,0.061 -0.08,0.238 -0.218,0.238 -0.535,0 -1.147,-0.079 -1.86,-0.079 -1.268,0 -1.82,0.079 -2.197,0.079 -0.178,0 -0.475,0.059 -0.475,-0.258 0,-0.475 1.385,-0.197 1.385,-1.444 l 0,-4.751 c 0,-0.316 0.079,-0.494 -0.158,-0.494 l -7.304,0 c -0.237,0 -0.237,0.118 -0.237,0.337 l 0,4.928 c 0,1.346 1.881,0.911 1.881,1.524 0,0.099 -0.139,0.158 -0.317,0.158 -0.257,0 -1.702,-0.079 -2.751,-0.079 -1.405,0 -1.622,0.079 -1.702,0.079 -0.158,0 -0.218,-0.1 -0.218,-0.298 0,-0.573 1.544,0.08 1.544,-1.88 l 0,-10.131 z"
         id="path29"
         inkscape:connector-curvature="0"
         style="fill:#438390" /><path
         d="m 246.842,75.297 c 0,3.167 2.058,4.611 4.729,4.611 3.722,0 4.572,-2.454 4.572,-4.789 l 0,-6.413 c 0,-2.02 -1.841,-1.187 -1.841,-1.938 0,-0.101 0.14,-0.198 0.198,-0.198 0.772,0 1.544,0.078 2.315,0.078 0.377,0 0.732,-0.078 1.089,-0.078 0.099,0 0.257,0.098 0.257,0.218 0,0.554 -1.167,0.118 -1.167,1.938 l 0,6.136 c 0,0.97 0.237,5.859 -5.522,5.859 -5.205,0 -6.195,-2.91 -6.195,-5.958 l 0,-6.67 c 0,-1.168 -1.603,-0.693 -1.603,-1.325 0,-0.14 0.336,-0.198 0.435,-0.198 0.515,0 1.011,0.078 1.544,0.078 0.634,0 1.268,-0.078 1.881,-0.078 0.099,0 0.633,-0.04 0.633,0.198 0,0.554 -1.325,0 -1.325,1.425 l 0,7.104 z"
         id="path31"
         inkscape:connector-curvature="0"
         style="fill:#438390" /></g><path
       d="m 211.76505,71.082012 c 1.11717,1.707501 1.87762,1.132846 1.87762,1.505235 0,0.186587 -0.86864,0.186587 -1.00819,0.186587 -1.13284,0 -1.73807,-0.791817 -2.32762,-1.676926 l -1.7224,-2.714909 c -0.55819,-0.868646 -0.32613,-0.822391 -2.06421,-0.822391 -0.49704,0 -0.40375,0.279096 -0.40375,0.434324 l 0,3.274667 c 0,1.334327 1.61499,0.852966 1.61499,1.381366 0,0.154443 -0.14111,0.123869 -0.26419,0.123869 -0.14033,0 -0.49705,-0.06193 -1.78512,-0.06193 -0.58877,0 -1.1791,0.06193 -1.76865,0.06193 -0.0925,0 -0.15522,-0.0784 -0.15522,-0.170908 0,-0.388068 1.13284,-0.170906 1.13284,-1.350007 l 0,-7.897773 c 0,-1.49034 -1.33354,-0.85375 -1.33354,-1.381367 0,-0.09408 0.12308,-0.185801 0.31045,-0.185801 0.27831,0 0.20148,0.06115 0.9933,0.06115 0.89922,0 1.78433,-0.06115 2.59104,-0.06115 0.24852,0 3.67762,-0.310456 3.67762,2.684333 0,1.209675 -0.86863,2.250011 -1.95522,2.684333 l 2.59025,3.925368 z m -5.64855,-4.267181 c 0,0.294775 0.96273,0.217161 1.69182,0.217161 0.66717,0 2.15673,-0.279096 2.15673,-2.203755 0,-1.893304 -1.44331,-2.529891 -2.96422,-2.529891 -0.5582,0 -0.88433,-0.03058 -0.88433,0.57387 l 0,3.942615 z"
       id="path33"
       inkscape:connector-curvature="0"
       style="fill:#438390" /><path
       d="m 219.09758,61.648429 c 2.91718,0 3.72388,1.194779 4.17389,1.194779 0.12387,0 0.21716,-0.155227 0.37238,-0.155227 0.17092,0 0.17092,0.247737 0.21717,1.257498 0.0306,0.82239 0.1709,1.333544 -0.0925,1.333544 -0.18658,0 -0.29555,-0.402965 -0.3575,-0.511154 -0.96193,-1.659676 -2.06342,-2.668654 -4.0657,-2.668654 -3.02535,0 -4.48433,2.016387 -4.48433,4.902987 0,2.700013 1.55148,5.400026 4.53059,5.400026 2.43582,0 3.95673,-1.551488 4.18957,-2.264907 0.0306,-0.109753 0.12386,-0.202266 0.21716,-0.202266 0.0777,0 0.15444,0.09251 0.13955,0.170908 l -0.35671,1.551487 c -0.0157,0.06193 -1.11717,1.226139 -4.60899,1.226139 -3.18059,0 -5.46119,-2.188076 -5.46119,-5.400026 0,-3.21195 2.31273,-5.835134 5.58662,-5.835134 z"
       id="path35"
       inkscape:connector-curvature="0"
       style="fill:#438390" /><path
       d="m 226.33211,63.122304 c -0.015,-1.132846 -1.35001,-0.823175 -1.35001,-1.16342 0,-0.140332 0.12466,-0.170906 0.24774,-0.170906 0.57387,0 1.13284,0.06115 1.7075,0.06115 0.48058,0 0.96272,-0.06115 1.44329,-0.06115 0.26343,0 0.29479,0.09173 0.29479,0.155226 0,0.310455 -1.11717,0.01567 -1.11717,1.1791 l 0,3.351498 c 0,0.216377 0,0.278311 0.23283,0.278311 l 5.67914,0 c 0.15444,0 0.12386,-0.388068 0.12386,-0.450002 l 0,-3.180591 c 0,-1.070911 -1.16342,-0.807495 -1.16342,-1.163421 0,-0.09408 0.0314,-0.170906 0.26342,-0.170906 0.51193,0 1.31943,0.06115 1.61499,0.06115 0.57386,0 0.80593,-0.06115 1.11717,-0.06115 0.40296,0 0.43431,0.155227 0.43431,0.246952 0,0.279096 -1.03955,0.01647 -1.03955,1.087375 l 0,8.223125 c 0,1.132845 1.41194,0.85375 1.41194,1.241034 0,0.04782 -0.0619,0.186586 -0.1709,0.186586 -0.41865,0 -0.89922,-0.06193 -1.45742,-0.06193 -0.99407,0 -1.42761,0.06193 -1.72239,0.06193 -0.14033,0 -0.37317,0.04625 -0.37317,-0.202266 0,-0.372388 1.08659,-0.154443 1.08659,-1.132061 l 0,-3.72467 c 0,-0.247736 0.0611,-0.387285 -0.12387,-0.387285 l -5.72615,0 c -0.18581,0 -0.18581,0.09251 -0.18581,0.264201 l 0,3.863434 c 0,1.055231 1.47466,0.714202 1.47466,1.194779 0,0.07762 -0.10976,0.123868 -0.24853,0.123868 -0.20226,0 -1.33432,-0.06193 -2.1575,-0.06193 -1.10149,0 -1.27161,0.06193 -1.33432,0.06193 -0.12309,0 -0.17013,-0.0784 -0.17013,-0.233625 0,-0.449218 1.20968,0.06271 1.20968,-1.473875 l 0,-7.942461 z"
       id="path37"
       inkscape:connector-curvature="0"
       style="fill:#438390" /><path
       d="m 152.10683,44.310015 c 0.49626,0 0.94233,0.04939 1.3892,0.04939 1.04113,0 2.03442,-0.04939 3.37424,-0.04939 2.77763,0 5.50664,2.083808 5.50664,4.961784 0,3.572579 -1.68633,6.053079 -6.05308,6.053079 -0.79416,0 -1.58833,-0.0486 -2.38171,-0.0486 -0.0995,0 -1.63773,0.0486 -1.7373,0.0486 -0.0988,0 -0.14817,-0.0486 -0.14817,-0.147387 0,-0.348086 1.09208,0.0486 1.09208,-1.43938 l 0,-7.791154 c 0,-1.587552 -1.24025,-1.091295 -1.24025,-1.487986 0,-0.09957 0.0988,-0.148956 0.19835,-0.148956 z m 4.76344,10.618172 c 2.23275,0 4.31656,-1.190861 4.31656,-4.813613 0,-3.473798 -2.28215,-5.407867 -5.25969,-5.457258 -1.48877,0 -1.53738,0.247736 -1.53738,0.99173 l 0,7.443068 c 0,0.248521 -0.0502,0.992514 0.098,1.091296 0.49704,0.546431 1.6879,0.744777 2.38251,0.744777 z"
       id="path39"
       inkscape:connector-curvature="0"
       style="fill:#438390" /><path
       d="m 165.30506,51.008306 c -0.29791,0 -0.59581,0 -0.74478,0.346518 l -0.99251,2.184157 c -0.0494,0.09878 -0.14817,0.345734 -0.14817,0.544863 0,1.092863 1.14068,0.595822 1.14068,0.992514 0,0.298695 -0.24773,0.247737 -0.44607,0.247737 -0.44531,0 -0.84278,-0.0486 -1.29043,-0.0486 -0.44608,0 -0.84356,0.0486 -1.24025,0.0486 -0.0995,0 -0.14817,-0.0486 -0.14817,-0.147388 0,-0.348086 0.74321,-0.10035 1.14068,-0.994082 l 3.72154,-7.938541 c 0.89295,-1.934854 0.94233,-2.182589 1.19085,-2.182589 0.14897,0 0.24853,0.446082 0.29792,0.545647 l 3.27467,8.038107 c 0.24773,0.595037 0.39747,1.239466 0.74477,1.785896 0.49626,0.694604 1.38843,0.346518 1.38843,0.744778 0,0.147387 -0.0995,0.147387 -0.19835,0.147387 -0.64443,0 -1.29042,-0.0486 -1.93563,-0.0486 -0.44609,0 -0.84278,0.0486 -1.29043,0.0486 -0.0494,0 -0.34731,0 -0.34731,-0.147387 0,-0.39826 0.94313,-0.199914 0.94313,-0.794952 0,-0.346518 -0.29791,-1.092078 -0.44687,-1.487986 L 169.4225,51.60256 c -0.14817,-0.347301 -0.24695,-0.595822 -0.69459,-0.595822 l -3.42285,0 z m 3.17511,-0.694602 c 0.34729,0 0.34729,-0.09957 0.24774,-0.297911 l -1.53817,-3.770925 c -0.0494,-0.198346 -0.14816,-0.198346 -0.24774,0 l -1.7365,3.821099 c -0.0995,0.198346 0,0.246953 0.19834,0.246953 l 3.07633,0 z"
       id="path41"
       inkscape:connector-curvature="0"
       style="fill:#438390" /><path
       d="m 171.60587,44.310015 c 0.3967,0 0.6954,0.04939 1.7373,0.04939 0.54564,0 0.94233,-0.04939 1.0913,-0.04939 0.14895,0 0.2979,0 0.2979,0.148172 0,0.247736 -0.69459,0.247736 -0.69459,0.694602 0,0.297911 0.19834,0.546431 0.24772,0.645997 l 1.88547,3.026147 c 0.14817,0.198346 0.24773,0.297126 0.34652,0.297126 0.0494,0 0.14895,-0.09878 0.29791,-0.346517 l 1.58755,-2.580065 c 0.0995,-0.198345 0.34652,-0.446866 0.34652,-0.843557 0,-0.794168 -1.19087,-0.446084 -1.19087,-0.843559 0,-0.198346 0.14897,-0.198346 0.34653,-0.198346 0.34808,0 0.74477,0.04939 1.14146,0.04939 0.44687,0 0.89374,-0.04939 1.33983,-0.04939 0.0995,0 0.14895,0.09878 0.14895,0.148172 0,0.199129 -0.24774,0.247736 -0.3473,0.297911 -0.44687,0.247736 -0.64443,0.694602 -0.89374,1.09051 l -2.1826,3.424407 c -0.24772,0.346517 -0.34729,0.446083 -0.34729,0.694603 l 0,3.820316 c 0,1.339815 1.24103,0.893732 1.24103,1.389989 0,0.147387 -0.10031,0.147387 -0.34808,0.147387 -0.19835,0 -1.14068,-0.0486 -1.68633,-0.0486 -0.69461,0 -1.29042,0.0486 -1.4386,0.0486 -0.0995,0 -0.19835,0 -0.19835,-0.198345 0,-0.396692 1.19087,0 1.19087,-1.14147 l 0,-3.771708 c 0,-0.297127 -0.24774,-0.595039 -0.34652,-0.793384 L 172.549,45.250787 c -0.39747,-0.645213 -1.14068,-0.446083 -1.14068,-0.743995 0,-0.09721 0.0494,-0.196777 0.19755,-0.196777 z"
       id="path43"
       inkscape:connector-curvature="0"
       style="fill:#438390" /><path
       d="m 139.54204,61.82404 c 0.57544,0 1.11795,0.06821 1.69339,0.06821 0.50724,0 0.98233,-0.06821 1.45663,-0.06821 0.23754,0 0.30496,0.03371 0.30496,0.135628 0,0.373172 -1.11795,0.03371 -1.11795,1.185371 l 0,8.333666 c 0,1.084239 1.3555,0.711066 1.3555,1.185372 0,0.101911 -0.0338,0.135627 -0.30497,0.135627 -0.33946,0 -1.01682,-0.03371 -1.69417,-0.03371 -0.94862,0 -1.25357,0.03371 -1.49033,0.03371 -0.27048,0 -0.30497,-0.06742 -0.30497,-0.23676 0,-0.440595 1.18615,0.06742 1.18615,-1.456629 l 0,-7.961276 c 0,-1.117949 -1.25279,-0.812199 -1.25279,-1.15166 0,-0.135628 0.0329,-0.169339 0.16855,-0.169339 z"
       id="path45"
       inkscape:connector-curvature="0"
       style="fill:#438390" /><path
       d="m 110.97474,49.371365 c 1.63772,0 1.19086,-1.24025 1.58755,-1.24025 0.14896,0 0.14896,0.147387 0.14896,0.297126 0,0.545647 0,1.042688 0,1.538161 0,0.397476 0,0.843558 0,1.24025 0,0.148172 -0.0494,0.19913 -0.14896,0.19913 -0.49626,0 0.0494,-1.339815 -1.24103,-1.339815 l -2.33154,0 c -0.34731,0 -0.29791,0.246953 -0.29791,0.496257 l 0,2.827018 c 0,0.943123 -0.0995,1.340599 1.19085,1.340599 3.62197,0 4.16683,-1.637727 4.36596,-1.637727 0.0988,0 0.0988,0.148172 0.0988,0.198346 0,0.545648 -0.39669,1.092079 -0.79338,1.487987 -0.49626,0.596606 -0.84356,0.545648 -1.48799,0.545648 -1.19086,0 -2.38172,-0.09957 -3.57257,-0.0486 -0.64522,0 -1.29043,0.0486 -1.88547,0.0486 -0.14895,0 -0.24774,-0.0486 -0.24774,-0.147388 0.0494,-0.199915 0.19835,-0.14974 0.69461,-0.39826 0.39669,-0.198345 0.44609,-0.644428 0.44609,-1.389205 l 0,-7.094983 c 0,-0.694604 0,-1.438597 -0.84356,-1.587552 -0.14819,0 -0.49547,-0.0486 -0.49547,-0.247736 0,-0.09878 0.0988,-0.148172 0.54563,-0.148172 2.97677,0 3.77093,0.04939 4.41614,0.04939 0.29713,0 1.73651,-0.04939 2.23277,-0.04939 0.14895,0 0.14895,0.148172 0.14895,0.297126 0,1.735725 -0.19835,1.886247 -0.29712,1.886247 -0.39669,0 -0.0995,-0.744777 -0.39669,-1.092079 -0.39748,-0.545646 -2.03442,-0.446082 -2.62946,-0.446082 -1.48798,0 -1.48798,-0.04939 -1.48798,0.99173 l 0,2.87876 c 0,0.545647 0,0.545647 0.59504,0.545647 l 1.68554,0 z"
       id="path47"
       inkscape:connector-curvature="0"
       style="fill:#438390" /><path
       d="m 114.14984,44.310015 c 0.24853,0 0.49705,0.04939 0.74478,0.04939 0.19835,0 0.44608,-0.04939 0.6946,-0.04939 0.19835,0 0.29713,0.247737 0.39669,0.347301 l 7.44307,8.285059 c 0.0995,0.09957 0.14817,0.148956 0.19913,0.148956 0.0486,0 0.0486,-0.04939 0.0486,-0.148956 l 0,-6.549336 c 0,-2.034418 -1.73572,-1.438596 -1.73572,-1.935637 0,-0.09878 0.098,-0.148172 0.19755,-0.148172 0.44687,0 0.89374,0.0494 1.38921,0.0494 0.54486,0 1.19087,-0.0494 1.58677,-0.0494 0.0995,0 0.14895,0.0494 0.14895,0.09878 0,0.446866 -0.94234,0.148955 -0.94234,1.290425 l 0,9.030619 c 0,0.446866 0,0.645212 -0.0995,0.645212 -0.14896,0 -0.29713,-0.05017 -0.59503,-0.398259 l -6.69829,-7.59124 c -0.0494,0 -0.24774,-0.297911 -0.34731,-0.297911 -0.0494,0 -0.0988,0.04939 -0.0988,0.397475 l 0,6.35099 c 0,1.439381 1.33903,0.893733 1.33903,1.290425 0,0.09878 0,0.198347 -0.14817,0.198347 -0.39747,0 -0.79417,-0.0486 -1.58833,-0.0486 -0.54487,0 -1.33903,0.0486 -1.43782,0.0486 -0.19835,0 -0.19835,-0.09957 -0.19835,-0.147389 0,-0.546432 1.33904,0.147389 1.33904,-2.084593 l 0,-5.755951 c 0,-3.224493 -1.88468,-2.331544 -1.88468,-2.877975 -7.8e-4,-0.09878 0.14739,-0.148173 0.24696,-0.148173 z"
       id="path49"
       inkscape:connector-curvature="0"
       style="fill:#438390" /><path
       d="m 126.95061,45.153573 c -0.99252,0 -0.99252,0.247737 -1.29043,1.091295 -0.0494,0.148955 -0.0494,0.348086 -0.24774,0.348086 -0.0988,0 -0.14817,-0.09957 -0.14817,-0.199131 l 0.14817,-1.487987 c 0.0502,-0.199129 0,-0.595821 0.2987,-0.595821 1.19086,0 2.43111,0.04939 4.41535,0.04939 2.82781,0 4.26717,-0.04939 4.56431,-0.04939 0.34808,0 0.39747,0.04939 0.44687,0.446866 l 0.0988,1.241034 c 0,0.148173 0,0.345735 -0.19756,0.345735 -0.54643,0 0.29635,-1.190077 -1.2912,-1.190077 l -2.23198,0 c -0.69539,0 -0.64522,-0.04939 -0.64522,0.744778 l 0,7.987147 c 0,1.291209 1.29043,0.794952 1.29043,1.241035 0,0.05018 0,0.198345 -0.14817,0.198345 -0.39669,0 -0.84356,-0.0486 -1.29043,-0.0486 -1.73729,0 -2.03442,0.0486 -2.13397,0.0486 -0.14819,0 -0.19835,-0.0486 -0.19835,-0.198345 0,-0.396692 1.24024,-0.198346 1.24024,-1.14147 l 0,-8.137672 c 0,-0.09878 0.0988,-0.693818 -0.14895,-0.693818 l -2.53067,0 z"
       id="path51"
       inkscape:connector-curvature="0"
       style="fill:#438390" /><path
       d="m 135.18706,44.310015 c 0.59582,0 1.14146,0.04939 1.7365,0.04939 0.49626,0 0.99331,-0.04939 1.43938,-0.04939 0.2987,0 0.2987,0.04939 0.2987,0.148172 0,0.297911 -1.09208,0 -1.09208,1.190859 l 0,3.374233 c 0,0.198346 0,0.247736 0.19834,0.247736 l 5.70578,0 c 0.19835,0 0.14818,-0.397476 0.14818,-0.446082 l 0,-3.175887 c 0,-1.091294 -1.19165,-0.843558 -1.19165,-1.190859 0,-0.09878 0.0494,-0.148172 0.29869,-0.148172 0.49548,0 1.28965,0.04939 1.58677,0.04939 0.59504,0 0.84278,-0.04939 1.14148,-0.04939 0.39668,0 0.44607,0.148172 0.44607,0.247737 0,0.247736 -1.0419,0 -1.0419,1.091294 l 0,8.235669 c 0,1.141468 1.38842,0.844341 1.38842,1.241034 0,0.05017 -0.0486,0.198346 -0.14817,0.198346 -0.44609,0 -0.89296,-0.0486 -1.48798,-0.0486 -0.99252,0 -1.4386,0.0486 -1.73652,0.0486 -0.0988,0 -0.3473,0.05018 -0.3473,-0.198346 0,-0.396693 1.09209,-0.148957 1.09209,-1.14147 l 0,-3.719966 c 0,-0.24852 0.0494,-0.396692 -0.14818,-0.396692 l -5.75595,0 c -0.14817,0 -0.14817,0.09878 -0.14817,0.246953 l 0,3.870489 c 0,1.092079 1.43781,0.744778 1.43781,1.24025 0,0.05018 -0.0988,0.09957 -0.24774,0.09957 -0.19834,0 -1.33981,-0.0486 -2.13319,-0.0486 -1.14148,0 -1.29043,0.0486 -1.33903,0.0486 -0.14895,0 -0.19914,-0.0486 -0.19914,-0.247735 0,-0.446084 1.24025,0.10035 1.24025,-1.438597 l 0,-7.988716 c 0,-1.141469 -1.3892,-0.843558 -1.3892,-1.190858 0,-0.148957 0.14895,-0.148957 0.24774,-0.148957 z"
       id="path53"
       inkscape:connector-curvature="0"
       style="fill:#438390" /><path
       d="m 151.41223,49.768056 c 0,0.743993 0.0486,0.743993 -0.54566,0.942339 l -3.17589,1.092079 c -0.2979,0.09957 -0.54563,0.246953 -0.69538,0.246953 -0.24774,0 -0.19755,-0.297128 -0.19755,-0.445299 0,-0.794168 -0.0502,-0.794168 0.54564,-0.992514 l 3.1751,-1.092862 c 0.24773,-0.09878 0.54565,-0.246953 0.69539,-0.246953 0.24773,0 0.19835,0.347302 0.19835,0.496257 z"
       id="path55"
       inkscape:connector-curvature="0"
       style="fill:#438390" /><path
       d="m 114.9495,66.871277 c 1.62597,0 1.21987,-1.253577 1.59226,-1.253577 0.10195,0 0.16855,0.170122 0.16855,0.30575 0,0.541728 -0.0329,1.049745 -0.0329,1.557761 0,0.406883 0.0329,0.812982 0.0329,1.219867 0,0.135627 -0.0667,0.203049 -0.16855,0.203049 -0.47352,0 0.0338,-1.355494 -1.25359,-1.355494 l -2.30331,0 c -0.33868,0 -0.27126,0.271256 -0.27126,0.508016 l 0,2.845833 c 0,0.914116 -0.13563,1.287289 1.15166,1.287289 3.59061,0 4.13312,-1.592255 4.33539,-1.592255 0.10196,0 0.10196,0.135627 0.10196,0.170122 0,0.575439 -0.40689,1.11795 -0.74556,1.52405 -0.50802,0.541728 -0.84749,0.507232 -1.52405,0.507232 -1.18538,0 -2.37153,-0.06742 -3.55612,-0.03371 -0.60993,0 -1.25357,0.03371 -1.89721,0.03371 -0.13564,0 -0.23677,-0.03371 -0.23677,-0.135627 0.0337,-0.203051 0.20305,-0.169339 0.67736,-0.406884 0.40687,-0.20305 0.44058,-0.60915 0.44058,-1.35471 l 0,-7.080089 c 0,-0.711066 0,-1.455843 -0.81298,-1.55776 -0.13562,-0.03371 -0.4743,-0.06742 -0.4743,-0.271256 0,-0.101131 0.10196,-0.169339 0.54173,-0.169339 2.91326,0 3.72623,0.06821 4.40359,0.06821 0.30497,0 1.72711,-0.06821 2.20219,-0.06821 0.13563,0 0.16934,0.135629 0.16934,0.338678 0,1.727883 -0.23755,1.8298 -0.30497,1.8298 -0.37318,0 -0.13562,-0.74556 -0.37318,-1.083455 -0.40687,-0.542511 -2.03284,-0.440594 -2.64199,-0.440594 -1.49034,0 -1.45663,-0.06821 -1.45663,0.982321 l 0,2.879545 c 0,0.540943 -0.0338,0.540943 0.57544,0.540943 l 1.66046,0 z"
       id="path57"
       inkscape:connector-curvature="0"
       style="fill:#438390" /><path
       d="m 118.36999,61.82404 c 0.27125,0 0.5088,0.06821 0.74634,0.06821 0.23676,0 0.47352,-0.06821 0.71107,-0.06821 0.16934,0 0.30496,0.237545 0.4061,0.338678 l 7.41876,8.265459 c 0.0682,0.101912 0.13563,0.169339 0.16934,0.169339 0.0345,0 0.069,-0.06742 0.069,-0.169339 l 0,-6.503865 c 0,-2.032066 -1.72866,-1.422133 -1.72866,-1.964644 0,-0.101912 0.0682,-0.135628 0.17012,-0.135628 0.4406,0 0.91412,0.06821 1.38843,0.06821 0.54173,0 1.21908,-0.06821 1.59146,-0.06821 0.0682,0 0.13564,0.03371 0.13564,0.135628 0,0.406883 -0.91412,0.135627 -0.91412,1.253577 l 0,8.976526 c 0,0.473522 0,0.677356 -0.13641,0.677356 -0.10119,0 -0.27126,-0.06821 -0.57544,-0.440595 l -6.67243,-7.520683 c -0.0344,0 -0.23753,-0.271256 -0.33945,-0.271256 -0.0674,0 -0.10108,0.03449 -0.10108,0.339462 l 0,6.368238 c 0,1.388421 1.35472,0.846693 1.35472,1.253578 0,0.101923 0,0.203049 -0.17013,0.203049 -0.37238,0 -0.8122,-0.03371 -1.55777,-0.03371 -0.54172,0 -1.35471,0.03371 -1.45662,0.03371 -0.20305,0 -0.20305,-0.06742 -0.20305,-0.169339 0,-0.541727 1.35471,0.135629 1.35471,-2.032849 l 0,-5.724593 c 0,-3.217438 -1.86194,-2.337033 -1.86194,-2.913255 -7.9e-4,-0.06664 0.13484,-0.134844 0.20148,-0.134844 z"
       id="path59"
       inkscape:connector-curvature="0"
       style="fill:#438390" /><path
       d="m 131.10725,62.670735 c -0.98154,0 -1.01604,0.238328 -1.2873,1.084238 -0.0682,0.169339 -0.0682,0.373173 -0.27047,0.373173 -0.10273,0 -0.1364,-0.135629 -0.1364,-0.203834 l 0.16933,-1.490339 c 0,-0.203049 0,-0.609148 0.27125,-0.609148 1.21987,0 2.40525,0.06821 4.40438,0.06821 2.81056,0 4.23269,-0.06821 4.53844,-0.06821 0.3724,0 0.4406,0.101911 0.47353,0.440592 l 0.0682,1.253579 c 0,0.135628 0.0345,0.339461 -0.17013,0.339461 -0.57543,0 0.27126,-1.186155 -1.32099,-1.186155 l -2.2359,0 c -0.57544,0 -0.60993,0.03371 -0.60993,0.744777 l 0,7.926782 c 0,1.320999 1.25357,0.812983 1.25357,1.287289 0,0.03371 0.0337,0.169338 -0.13563,0.169338 -0.37239,0 -0.81219,-0.03371 -1.25357,-0.03371 -1.7271,0 -2.03207,0.03371 -2.13398,0.03371 -0.13485,0 -0.16934,-0.03371 -0.16934,-0.20305 0,-0.373172 1.21908,-0.203833 1.21908,-1.15166 l 0,-8.063194 c 0,-0.101923 0.0345,-0.711066 -0.20305,-0.711066 l -2.47109,0 z"
       id="path61"
       inkscape:connector-curvature="0"
       style="fill:#438390" /><path
       d="m 101.44786,54.68045 c -0.14895,0.396692 -0.29711,0.893733 -0.49625,0.893733 -0.24773,0 -0.44687,-0.645212 -0.59504,-0.993298 l -3.870492,-9.080011 c -0.397473,-0.942339 -1.190858,-0.644427 -1.190858,-0.992513 0,-0.148956 0.09877,-0.198346 0.24773,-0.198346 0.446086,0 0.943128,0.04939 1.438609,0.04939 0.397473,0 0.992512,-0.04939 1.190858,-0.04939 0.09954,0 0.248521,0.04939 0.248521,0.148172 0,0.199129 -0.645213,0.199129 -0.645213,0.794167 0,0.198346 0.09954,0.446866 0.148952,0.595037 l 2.729013,6.45134 c 0.34731,0.794168 0.44687,1.141469 0.59582,1.141469 0.14818,0 0.19835,-0.24852 0.29713,-0.397476 l 2.72903,-6.699074 c 0.0988,-0.24617 0.24773,-0.743995 0.19834,-1.091296 0,-0.694602 -0.9925,-0.396692 -0.9925,-0.743993 0,-0.148956 0.0988,-0.198346 0.24773,-0.198346 0.34729,0 0.69459,0.04939 0.99251,0.04939 0.79416,0 0.99251,-0.04939 1.24103,-0.04939 0.14895,0 0.24774,0.04939 0.24774,0.198346 0,0.347301 -0.44687,-0.04939 -0.89295,0.992513 l -3.86971,9.179576 z"
       id="path63"
       inkscape:connector-curvature="0"
       style="fill:#438390" /><path
       d="m 93.757845,55.324878 c -1.190859,0 -2.381717,-0.09957 -3.572575,-0.0486 -0.59505,0 -1.289646,0.0486 -1.885466,0.0486 -0.148963,0 -0.24774,-0.0486 -0.24774,-0.147387 0.04938,-0.199913 0.198346,-0.14974 0.694597,-0.39826 0.396703,-0.198346 0.446086,-0.644428 0.446086,-1.389205 l 0,-7.094984 c 0,-0.694602 0,-1.438595 -0.84356,-1.587552 -0.14816,0 -0.495469,-0.0486 -0.495469,-0.247736 0,-0.09878 0.09877,-0.148171 0.545644,-0.148171 2.976766,0 3.770932,0.04939 4.416146,0.04939 0.347298,0 1.736502,-0.04939 2.232753,-0.04939 0.148963,0 0.148963,0.148171 0.148963,0.297127 0,1.735723 -0.198346,1.886246 -0.297123,1.886246 -0.396693,0 -0.09877,-0.744777 -0.396693,-1.092078 -0.347309,-0.545647 -1.984254,-0.446084 -2.629467,-0.446084 -1.488763,0 -1.438588,-0.04939 -1.438588,0.99173 l 0,2.878761 c 0,0.545647 -0.04938,0.545647 0.545645,0.545647 l 1.687119,0 c 1.637726,0 1.240253,-1.24025 1.587551,-1.24025 0.148952,0 0.199127,0.147388 0.199127,0.297127 0,0.545648 -0.04938,1.042689 -0.04938,1.538161 0,0.397476 0.04938,0.843558 0.04938,1.240251 0,0.148171 -0.09954,0.199129 -0.199127,0.199129 -0.49547,0 0.05015,-1.339815 -1.240252,-1.339815 l -2.331542,0 c -0.297915,0 -0.248521,0.246952 -0.248521,0.496256 l 0,2.827018 c 0,0.943123 -0.148952,1.3406 1.141475,1.3406 3.621958,0 4.167613,-1.637726 4.36596,-1.637726 0.09877,0 0.09877,0.148172 0.09877,0.198345 0,0.545648 -0.396693,1.092079 -0.743991,1.487988 -0.547217,0.595821 -0.845133,0.544862 -1.539729,0.544862 z"
       id="path65"
       inkscape:connector-curvature="0"
       style="fill:#438390" /><path
       d="m 105.49867,72.15606 c -0.16935,0.406884 -0.27126,0.914116 -0.50802,0.914116 -0.27048,0 -0.4406,-0.677355 -0.57543,-0.982322 l -3.82738,-9.077658 c -0.37317,-0.914901 -1.219868,-0.643645 -1.219868,-0.983106 0,-0.134844 0.101955,-0.20305 0.237544,-0.20305 0.474314,0 0.947834,0.06821 1.422134,0.06821 0.40689,0 1.01603,-0.06821 1.21987,-0.06821 0.10119,0 0.20306,0.06821 0.20306,0.135628 0.0336,0.237545 -0.60995,0.237545 -0.60995,0.812983 0,0.203049 0.0674,0.440594 0.13564,0.60915 l 2.7102,6.368236 c 0.37239,0.846695 0.4406,1.186156 0.60993,1.186156 0.16934,0 0.20306,-0.237544 0.30497,-0.440595 l 2.6765,-6.639492 c 0.10107,-0.237545 0.30496,-0.745562 0.23675,-1.050528 0,-0.711067 -1.01603,-0.440595 -1.01603,-0.779273 0,-0.169339 0.10108,-0.20305 0.23677,-0.20305 0.33867,0 0.67735,0.06821 1.04973,0.06821 0.74557,0 0.94861,-0.06821 1.18538,-0.06821 0.16934,0 0.27126,0.06821 0.27126,0.20305 0,0.339462 -0.4406,-0.06742 -0.88042,0.983106 l -3.86264,9.146649 z"
       id="path67"
       inkscape:connector-curvature="0"
       style="fill:#438390" /><path
       d="m 78.277458,54.333148 -0.49625,-2.679629 c -0.09877,-0.396693 0,-0.644429 0.199127,-0.644429 0.297123,0 0.297123,0.247736 0.396692,0.695387 0.247741,0.942339 1.488774,3.124928 4.36596,3.124928 1.984232,0 3.919873,-1.091294 3.919873,-3.274667 0,-4.018661 -8.434796,-1.785898 -8.434796,-7.194548 0,-2.629456 2.232764,-3.919881 4.614492,-3.919881 2.530657,0 3.17509,0.743994 3.473005,0.743994 0.198346,0 0.24774,-0.247737 0.446868,-0.247737 0.148952,0 0.247729,0.09957 0.247729,0.297911 l 0.297915,2.827802 c 0.04938,0.198346 0,0.347301 -0.198346,0.347301 -0.24774,0 -0.396693,-0.446083 -0.446087,-0.644429 -0.595819,-1.786681 -2.133976,-2.679629 -3.969267,-2.679629 -1.636933,0 -3.373447,0.794167 -3.373447,2.679629 0,3.919097 8.434795,1.636942 8.434795,7.34272 0,1.786682 -1.241033,4.366747 -5.95429,4.366747 -1.53973,0 -3.47459,-0.744777 -3.523973,-1.14147 z"
       id="path69"
       inkscape:connector-curvature="0"
       style="fill:#438390" /><path
       d="m 91.915493,72.76521 c -0.101076,0 -0.947815,0.03371 -1.422134,0.03371 -0.847475,0 -1.354702,-0.03371 -2.032053,-0.03371 -0.57544,0 -1.117961,0.06821 -1.693389,0.06821 -0.101956,0 -0.440598,0 -0.440598,-0.203834 0,-0.508016 1.219861,-0.304967 1.219861,-1.084238 0,-0.440595 -0.406877,-1.388423 -0.60992,-1.930933 l -0.677362,-1.693388 c -0.203054,-0.473523 -0.304965,-0.779273 -0.881197,-0.779273 l -4.539207,0 c -0.406888,0 -0.779274,0 -0.982327,0.440595 l -1.287282,2.87876 c -0.06742,0.135627 -0.169343,0.440595 -0.169343,0.71185 0,1.422132 1.456625,0.8122 1.456625,1.354711 0,0.373172 -0.271255,0.30575 -0.541729,0.30575 -0.57622,0 -1.15166,-0.06821 -1.72788,-0.06821 -0.541729,0 -1.11795,0.06821 -1.659679,0.06821 -0.101955,0 -0.169343,-0.101923 -0.169343,-0.237545 0,-0.406883 0.948617,-0.06821 1.490346,-1.253578 L 82.160497,60.87465 c 1.21908,-2.608289 1.287282,-2.946182 1.557756,-2.946182 0.237545,0 0.373167,0.608365 0.440587,0.777704 l 4.267963,10.602492 c 0.304977,0.744777 0.54173,1.592255 1.016038,2.337033 0.338676,0.473521 0.643641,0.643644 1.049748,0.643644 0.338665,0 0.60992,-0.406884 0.60992,-1.084239 l 0,-7.723732 c 0,-1.591472 -1.253572,-1.084239 -1.253572,-1.524049 0,-0.101912 0.101186,-0.135629 0.203054,-0.135629 0.474308,0 0.948606,0.06821 1.389204,0.06821 1.049748,0 2.032064,-0.06821 3.386778,-0.06821 2.743917,0 5.454127,2.066561 5.454127,4.946105 0,3.556116 -1.693391,6.028776 -5.995076,6.028776 -0.812973,0.0023 -1.592257,-0.03136 -2.371531,-0.03136 z m 0.406888,-9.585676 0,7.38427 c 0,0.237545 -0.03366,0.982322 0.101076,1.117951 0.508018,0.508016 1.69418,0.711066 2.404461,0.711066 2.202188,0 4.302454,-1.185373 4.302454,-4.775982 0,-3.454983 -2.303319,-5.385915 -5.250291,-5.419626 -1.490324,0 -1.557755,0.271255 -1.557755,0.982321 z m -9.281479,-2.660815 -2.33703,4.979816 c -0.135633,0.305751 0,0.372388 0.271255,0.372388 l 4.06491,0 c 0.474297,0 0.440587,-0.135627 0.338664,-0.406882 l -1.998343,-4.945322 c -0.102725,-0.271255 -0.203834,-0.271255 -0.339456,0 z"
       id="path71"
       inkscape:connector-curvature="0"
       style="fill:#438390" /><path
       d="m 161.15312,62.264634 0.0674,1.253578 c 0,0.135628 0.0338,0.339462 -0.16855,0.339462 -0.57544,0 0.27126,-1.186156 -1.32178,-1.186156 l -2.2359,0 c -0.60993,0 -0.60993,0.03371 -0.60993,0.744777 l 0,7.926782 c 0,1.321 1.25358,0.812983 1.25358,1.287288 0,0.03371 0.0337,0.169339 -0.13563,0.169339 -0.37318,0 -0.8122,-0.03371 -1.25358,-0.03371 -1.72788,0 -2.03285,0.03371 -2.13399,0.03371 -0.13562,0 -0.17011,-0.03371 -0.17011,-0.203049 0,-0.373173 1.22065,-0.203834 1.22065,-1.151662 l 0,-8.062409 c 0,-0.101923 0.0338,-0.711066 -0.20383,-0.711066 l -3.21823,0 c -0.94783,0 -0.91412,0.339462 -0.91412,0.880404 0,0.170124 0.13563,0.847479 -0.16933,0.847479 -0.16934,0 -0.27125,-0.339462 -0.33868,-0.474305 -0.4743,-1.321 -1.55854,-1.795306 -2.91404,-1.795306 -1.25279,0 -2.54009,0.609934 -2.54009,2.032851 0,2.913254 6.30082,1.219866 6.30082,5.487831 0,1.321 -0.91491,3.28486 -4.43731,3.28486 -1.15166,0 -2.57457,-0.575439 -2.64277,-0.880405 l -0.3724,-1.999138 c -0.0682,-0.304968 0,-0.473522 0.16934,-0.473522 0.20306,0 0.20306,0.203833 0.30498,0.508016 0.16933,0.711066 1.11873,2.337033 3.25193,2.337033 1.49034,0 2.91247,-0.812984 2.91247,-2.47266 0,-2.981461 -6.30004,-1.321785 -6.30004,-5.352205 0,-1.964645 1.65969,-2.913255 3.45499,-2.913255 1.86351,0 2.37074,0.541728 2.60828,0.541728 0.23677,0 0.27127,-0.406884 0.57622,-0.406884 1.21909,0 2.94697,0.06821 4.94533,0.06821 2.81133,0 4.23347,-0.06821 4.53843,-0.06821 0.37474,0 0.44218,0.101912 0.47587,0.440594 z"
       id="path73"
       inkscape:connector-curvature="0"
       style="fill:#438390" /><path
       d="m 172.77557,58.042923 c 3.86736,0 4.9367,1.584416 5.5333,1.584416 0.16386,0 0.28772,-0.205402 0.49313,-0.205402 0.22656,0 0.22656,0.327703 0.2885,1.665165 0.0416,1.090511 0.22578,1.76865 -0.12388,1.76865 -0.24616,0 -0.3912,-0.534671 -0.47273,-0.678139 -1.27553,-2.201404 -2.73608,-3.538084 -5.38905,-3.538084 -4.01082,0 -5.9441,2.673358 -5.9441,6.499945 0,3.578067 2.05637,7.158485 6.00525,7.158485 3.2292,0 5.24481,-2.057152 5.55369,-3.003412 0.0416,-0.145035 0.16463,-0.267335 0.28772,-0.267335 0.10272,0 0.20618,0.1223 0.18501,0.225785 l -0.47351,2.057153 c -0.0205,0.08153 -1.48094,1.624399 -6.10875,1.624399 -4.217,0 -7.2408,-2.900712 -7.2408,-7.157702 7.8e-4,-4.25699 3.06535,-7.733924 7.40622,-7.733924 z"
       id="path75"
       inkscape:connector-curvature="0"
       style="fill:#438390" /></g><g
     id="g77"
     transform="matrix(0.78397604,0,0,0.78397604,0.2483232,-20.400526)"><path
       d="m 207.105,63.762 c 0.47,0 0.868,0.165 1.197,0.494 0.331,0.331 0.495,0.73 0.495,1.199 0,0.469 -0.164,0.867 -0.496,1.198 -0.33,0.329 -0.729,0.494 -1.196,0.494 -0.524,0 -0.954,-0.198 -1.289,-0.596 -0.269,-0.323 -0.404,-0.688 -0.404,-1.097 0,-0.417 0.133,-0.783 0.402,-1.1 0.338,-0.395 0.77,-0.592 1.291,-0.592 z m 0,0.186 c -0.416,0 -0.771,0.147 -1.065,0.442 -0.294,0.295 -0.44,0.649 -0.44,1.064 0,0.417 0.146,0.772 0.44,1.066 0.295,0.296 0.649,0.441 1.065,0.441 0.415,0 0.77,-0.146 1.063,-0.441 0.293,-0.294 0.442,-0.649 0.442,-1.066 0,-0.417 -0.148,-0.771 -0.44,-1.065 -0.293,-0.293 -0.649,-0.441 -1.065,-0.441 z m 0.214,1.502 0.377,0.553 0.046,0.066 c 0.119,0.172 0.225,0.26 0.32,0.266 l 0.044,0.002 c 0.03,10e-4 0.046,0.015 0.043,0.042 -0.003,0.046 -0.077,0.069 -0.222,0.069 -0.168,0 -0.317,-0.1 -0.452,-0.302 l -0.354,-0.532 -0.019,-0.03 c -0.02,-0.032 -0.051,-0.049 -0.095,-0.049 l -0.189,0 -0.021,0.003 -0.006,0.028 0,0.493 c 0,0.109 0.014,0.182 0.042,0.216 0.03,0.033 0.097,0.057 0.2,0.067 0.046,0.006 0.07,0.022 0.072,0.052 0.001,0.032 -0.021,0.047 -0.068,0.047 -0.014,0 -0.043,-0.002 -0.086,-0.008 -0.038,-0.003 -0.097,-0.006 -0.18,-0.006 l -0.214,0 c -0.026,0 -0.066,0.003 -0.117,0.01 -0.036,0.004 -0.061,0.004 -0.072,0.004 -0.041,0 -0.062,-0.016 -0.062,-0.047 0,-0.024 0.018,-0.041 0.053,-0.048 0.073,-0.018 0.12,-0.05 0.14,-0.097 0.02,-0.046 0.029,-0.147 0.029,-0.303 l 0,-1.003 -0.002,-0.146 c 0,-0.135 -0.047,-0.21 -0.143,-0.224 l -0.065,-0.009 c -0.042,-0.009 -0.062,-0.027 -0.062,-0.056 0,-0.03 0.022,-0.046 0.067,-0.046 0.01,0 0.044,0.002 0.101,0.007 0.03,0.001 0.072,0.002 0.125,0.002 0.046,0 0.119,-0.003 0.221,-0.009 0.078,-0.006 0.144,-0.008 0.201,-0.008 0.453,0 0.681,0.167 0.681,0.501 0.001,0.212 -0.111,0.377 -0.333,0.495 z m -0.448,-0.06 0.158,0 c 0.248,0 0.374,-0.12 0.374,-0.362 0,-0.123 -0.048,-0.225 -0.141,-0.306 -0.093,-0.082 -0.206,-0.124 -0.344,-0.124 -0.086,0 -0.13,0.034 -0.13,0.104 l 0.004,0.047 0,0.562 c 0,0.037 0.002,0.061 0.01,0.067 0.01,0.008 0.032,0.012 0.069,0.012 z"
       id="path79"
       inkscape:connector-curvature="0"
       style="fill:#438390" /></g><g
     id="g81"
     transform="matrix(0.78397604,0,0,0.78397604,0.2483232,-4.9629706)"><path
       d="m 82.356,69.255 c 0.557,0 1.032,0.196 1.424,0.589 0.392,0.393 0.588,0.867 0.588,1.425 0,0.557 -0.196,1.03 -0.589,1.422 -0.393,0.393 -0.867,0.589 -1.422,0.589 -0.624,0 -1.134,-0.235 -1.531,-0.709 -0.321,-0.382 -0.481,-0.815 -0.481,-1.302 0,-0.495 0.16,-0.93 0.479,-1.307 0.402,-0.472 0.912,-0.707 1.532,-0.707 z m 0,0.223 c -0.494,0 -0.916,0.176 -1.265,0.526 -0.349,0.349 -0.524,0.771 -0.524,1.265 0,0.495 0.175,0.917 0.524,1.268 0.35,0.349 0.771,0.523 1.265,0.523 0.494,0 0.915,-0.175 1.265,-0.523 0.349,-0.351 0.524,-0.772 0.524,-1.268 0,-0.496 -0.175,-0.918 -0.523,-1.267 -0.348,-0.349 -0.77,-0.524 -1.266,-0.524 z m 0.254,1.784 0.449,0.656 0.056,0.08 c 0.14,0.204 0.267,0.31 0.379,0.315 l 0.053,0.002 c 0.036,0.003 0.052,0.019 0.051,0.05 -0.004,0.056 -0.092,0.083 -0.264,0.083 -0.198,0 -0.377,-0.119 -0.536,-0.358 l -0.42,-0.633 -0.023,-0.037 c -0.022,-0.037 -0.06,-0.057 -0.112,-0.057 l -0.225,0 -0.025,0.004 -0.009,0.033 0,0.587 c 0,0.13 0.017,0.215 0.052,0.256 0.035,0.04 0.114,0.067 0.236,0.081 0.055,0.005 0.083,0.025 0.085,0.061 0.002,0.037 -0.024,0.056 -0.08,0.056 -0.017,0 -0.051,-0.003 -0.103,-0.008 -0.043,-0.007 -0.115,-0.009 -0.213,-0.009 l -0.253,0 c -0.033,0 -0.079,0.003 -0.14,0.012 -0.044,0.003 -0.072,0.005 -0.085,0.005 -0.049,0 -0.074,-0.019 -0.074,-0.056 0,-0.029 0.021,-0.049 0.062,-0.058 0.087,-0.021 0.143,-0.059 0.167,-0.114 0.023,-0.056 0.035,-0.176 0.035,-0.36 l 0,-1.191 -0.003,-0.173 c 0,-0.16 -0.056,-0.249 -0.168,-0.266 l -0.08,-0.011 c -0.049,-0.011 -0.074,-0.031 -0.074,-0.065 0,-0.037 0.026,-0.056 0.079,-0.056 0.013,0 0.054,0.003 0.121,0.008 0.036,0.003 0.085,0.003 0.149,0.003 0.053,0 0.14,-0.004 0.262,-0.011 0.092,-0.006 0.172,-0.008 0.239,-0.008 0.539,0 0.809,0.197 0.809,0.594 10e-4,0.25 -0.132,0.444 -0.397,0.585 z m -0.532,-0.072 0.188,0 c 0.296,0 0.444,-0.144 0.444,-0.431 0,-0.146 -0.055,-0.267 -0.166,-0.364 -0.11,-0.097 -0.246,-0.146 -0.408,-0.146 -0.103,0 -0.155,0.041 -0.155,0.123 l 0.003,0.056 0,0.667 c 0,0.046 0.004,0.072 0.013,0.081 0.01,0.009 0.037,0.014 0.081,0.014 z"
       id="path83"
       inkscape:connector-curvature="0"
       style="fill:#438390" /></g></svg>